<svg width="40" height="40" viewBox="0 0 40 40" fill="none" xmlns="http://www.w3.org/2000/svg">
<path d="M16.9496 31.6667C17.1986 31.6676 17.4446 31.6126 17.6695 31.5059C17.8945 31.3992 18.0927 31.2434 18.2496 31.0501L26.2996 21.0501C26.5447 20.7518 26.6787 20.3778 26.6787 19.9917C26.6787 19.6057 26.5447 19.2316 26.2996 18.9334L17.9662 8.93339C17.6833 8.59302 17.2768 8.37898 16.8361 8.33835C16.3954 8.29772 15.9566 8.43382 15.6162 8.71672C15.2759 8.99962 15.0618 9.40614 15.0212 9.84685C14.9806 10.2876 15.1167 10.7264 15.3996 11.0667L22.8496 20.0001L15.6496 28.9334C15.4458 29.178 15.3163 29.4759 15.2765 29.7918C15.2367 30.1078 15.2882 30.4285 15.425 30.716C15.5618 31.0036 15.778 31.2459 16.0482 31.4144C16.3184 31.5829 16.6312 31.6704 16.9496 31.6667Z" fill="white"/>
<rect x="-0.5" y="0.5" width="39" height="39" rx="9.5" transform="matrix(-1 0 0 1 39 0)" stroke="white"/>
</svg>
