<svg width="624" height="56" viewBox="0 0 624 56" fill="none" xmlns="http://www.w3.org/2000/svg">
<path d="M49.8322 46.125C49.8322 45.75 49.6822 45.3 49.3822 44.85L44.5822 37.95C44.1322 37.35 43.6822 37.05 43.2322 37.05C42.7822 37.05 42.2572 37.275 41.6572 37.725C39.8572 39.075 37.9072 40.125 35.9572 40.875C33.9322 41.625 31.7572 42 29.5072 42C26.8072 42 24.3322 41.4 22.2322 40.2C20.1322 39 18.4822 37.35 17.2822 35.175C16.0822 33.075 15.4822 30.6 15.4822 27.825C15.4822 25.05 16.0822 22.575 17.2822 20.4C18.4822 18.3 20.1322 16.575 22.2322 15.375C24.3322 14.175 26.8072 13.575 29.5072 13.575C33.5572 13.575 37.6072 15 41.5072 17.7C42.1072 18.15 42.6322 18.3 43.0072 18.3C43.5322 18.3 44.0572 18 44.5072 17.325L49.3822 10.425C49.6822 9.975 49.9072 9.525 49.9072 9.075C49.9072 8.625 49.6072 8.1 49.0072 7.575C46.3072 5.325 43.3072 3.6 40.0072 2.325C36.7072 1.125 33.2572 0.449997 29.5822 0.449997C24.0322 0.449997 19.0822 1.65 14.7322 4.05C10.3822 6.45 6.93223 9.675 4.45723 13.875C1.98223 18.075 0.782227 22.8 0.782227 28.05C0.782227 33.15 1.98223 37.8 4.38223 41.925C6.78223 46.05 10.1572 49.275 14.5072 51.6C18.7822 53.925 23.5822 55.05 28.9822 55.05C32.6572 55.05 36.1822 54.45 39.5572 53.175C42.8572 51.975 45.9322 50.25 48.6322 48C49.3822 47.4 49.8322 46.725 49.8322 46.125ZM56.7504 13.725C54.3504 17.925 53.1504 22.65 53.1504 27.9C53.1504 33.15 54.3504 37.875 56.7504 42C59.1504 46.125 62.5254 49.35 66.8004 51.6C71.0754 53.925 75.8754 55.05 81.2754 55.05C86.7504 55.05 91.6254 53.925 95.9754 51.6C100.325 49.275 103.7 46.05 106.1 41.925C108.5 37.8 109.775 33.075 109.775 27.75C109.775 22.5 108.5 17.85 106.1 13.65C103.7 9.525 100.325 6.3 96.0504 3.975C91.7004 1.65 86.8254 0.449997 81.4254 0.449997C76.0254 0.449997 71.1504 1.65 66.8754 3.975C62.5254 6.375 59.1504 9.6 56.7504 13.725ZM88.4754 40.275C86.3004 41.475 83.9004 42 81.3504 42C78.7254 42 76.3254 41.475 74.2254 40.275C72.1254 39.075 70.4004 37.425 69.2004 35.25C68.0004 33.15 67.4004 30.675 67.4004 27.825C67.4004 24.975 68.0004 22.5 69.2754 20.325C70.4754 18.225 72.2004 16.575 74.3004 15.375C76.4004 14.175 78.8004 13.575 81.4254 13.575C83.9754 13.575 86.3754 14.175 88.5504 15.375C90.6504 16.575 92.3754 18.225 93.6504 20.4C94.8504 22.575 95.5254 25.05 95.5254 27.825C95.5254 30.675 94.8504 33.15 93.5754 35.25C92.3004 37.425 90.5754 39.075 88.4754 40.275ZM77.9754 33.75C79.0254 34.35 80.1504 34.575 81.4254 34.575C82.7004 34.575 83.8254 34.35 84.8754 33.75C85.9254 33.15 86.7504 32.325 87.3504 31.275C87.9504 30.225 88.2504 29.1 88.2504 27.75C88.2504 26.475 87.9504 25.275 87.3504 24.225C86.7504 23.175 85.9254 22.35 84.8754 21.75C83.8254 21.15 82.7004 20.85 81.4254 20.85C80.1504 20.85 79.0254 21.15 77.9754 21.75C76.9254 22.35 76.1754 23.175 75.5754 24.225C74.9754 25.275 74.6754 26.475 74.6754 27.75C74.6754 29.1 74.9754 30.225 75.5754 31.275C76.1754 32.325 76.9254 33.15 77.9754 33.75ZM118.115 2.025C117.815 2.325 117.665 2.85 117.665 3.525V51.975C117.665 52.725 117.815 53.25 118.115 53.55C118.415 53.85 118.94 54 119.69 54H137.54C143.84 54 149.315 52.95 153.815 50.7C158.315 48.525 161.765 45.45 164.165 41.4C166.565 37.35 167.765 32.625 167.765 27.15C167.765 21.975 166.64 17.475 164.39 13.575C162.14 9.75 158.84 6.75 154.49 4.65C150.14 2.55 144.965 1.5 138.89 1.5H119.69C118.94 1.5 118.415 1.725 118.115 2.025ZM149.09 37.575C146.465 39.975 142.64 41.175 137.54 41.175H133.115C132.59 41.175 132.29 41.1 132.14 40.95C131.99 40.8 131.915 40.425 131.915 39.975V15.525C131.915 15.075 131.99 14.775 132.14 14.625C132.29 14.475 132.59 14.325 133.115 14.325H137.84C141.14 14.325 143.915 14.925 146.165 15.975C148.415 17.025 150.14 18.6 151.34 20.55C152.465 22.5 153.065 24.825 153.065 27.525C153.065 31.875 151.715 35.175 149.09 37.575ZM176.123 2.025C175.823 2.325 175.673 2.85 175.673 3.525V51.975C175.673 52.725 175.823 53.25 176.123 53.55C176.423 53.85 176.948 54 177.698 54H187.823C188.573 54 189.098 53.85 189.398 53.55C189.698 53.25 189.923 52.725 189.923 51.975V3.525C189.923 2.85 189.698 2.325 189.398 2.025C189.098 1.725 188.573 1.5 187.823 1.5H177.698C176.948 1.5 176.423 1.725 176.123 2.025ZM200.879 2.025C200.579 2.325 200.429 2.85 200.429 3.525V51.975C200.429 52.725 200.579 53.25 200.879 53.55C201.179 53.85 201.704 54 202.454 54H212.579C213.329 54 213.854 53.85 214.154 53.55C214.454 53.25 214.679 52.725 214.679 51.975V15.525C214.679 15.075 214.754 14.775 214.904 14.625C215.054 14.475 215.354 14.325 215.879 14.325H230.804C231.254 14.325 231.554 14.475 231.704 14.625C231.854 14.775 231.929 15.075 231.929 15.525V51.975C231.929 53.325 232.604 54 234.029 54H244.229C245.579 54 246.254 53.325 246.254 51.975V3.525C246.254 2.175 245.579 1.5 244.229 1.5H202.454C201.704 1.5 201.179 1.725 200.879 2.025ZM291.177 27.75C290.877 28.125 290.727 28.65 290.727 29.325V39.375C290.727 39.9 290.577 40.275 290.427 40.5C290.277 40.725 289.977 40.875 289.527 41.025C287.652 41.775 285.327 42.15 282.477 42.15C279.777 42.15 277.452 41.55 275.352 40.35C273.252 39.15 271.677 37.5 270.552 35.325C269.352 33.15 268.827 30.675 268.827 27.9C268.827 25.2 269.352 22.725 270.477 20.55C271.602 18.375 273.252 16.65 275.427 15.45C277.527 14.25 280.077 13.575 283.077 13.575C285.477 13.575 287.727 13.875 289.827 14.475C291.927 15.075 293.952 15.975 295.977 17.1C296.502 17.475 297.027 17.625 297.477 17.625C298.077 17.625 298.602 17.25 299.202 16.35L303.402 9.75C303.777 9.225 304.002 8.7 304.002 8.25C304.002 7.65 303.552 6.975 302.652 6.375C299.952 4.575 296.877 3.075 293.502 2.025C290.127 0.974999 286.602 0.449997 282.927 0.449997C277.377 0.449997 272.352 1.65 268.002 3.975C263.652 6.3 260.202 9.525 257.802 13.725C255.327 17.925 254.127 22.8 254.127 28.275C254.127 33.6 255.327 38.25 257.727 42.3C260.127 46.35 263.502 49.5 267.777 51.75C272.052 54 276.852 55.05 282.252 55.05C286.002 55.05 289.527 54.675 292.977 53.775C296.427 52.875 299.802 51.6 303.102 49.95C303.777 49.575 304.227 49.125 304.527 48.675C304.827 48.225 304.977 47.625 304.977 46.8V29.325C304.977 28.65 304.752 28.125 304.452 27.75C304.152 27.45 303.627 27.225 302.952 27.225H292.752C292.002 27.225 291.477 27.45 291.177 27.75Z" fill="#FF8D29"/>
<path d="M332.507 6.675L347.132 27L331.907 48.825C331.232 49.8 330.782 50.55 330.482 51.075C330.182 51.6 330.107 52.05 330.107 52.425C330.107 53.475 330.857 54 332.357 54H369.782C370.457 54 370.982 53.85 371.282 53.55C371.582 53.25 371.807 52.725 371.807 51.975V43.65C371.807 42.9 371.582 42.375 371.282 42.075C370.982 41.775 370.457 41.625 369.782 41.625H352.907L361.082 30C361.607 29.25 361.982 28.65 362.207 28.2C362.357 27.75 362.507 27.375 362.507 26.925C362.507 26.55 362.357 26.1 362.132 25.65C361.907 25.2 361.532 24.6 361.007 23.85L353.807 13.875H369.632C370.307 13.875 370.832 13.725 371.132 13.425C371.432 13.125 371.657 12.6 371.657 11.85V3.525C371.657 2.175 370.982 1.5 369.632 1.5H332.957C331.382 1.5 330.632 2.025 330.632 3.075C330.632 3.525 330.707 3.975 331.007 4.5C331.307 5.1 331.757 5.775 332.507 6.675ZM374.688 2.625C374.688 3.075 374.763 3.45 375.063 3.9L399.438 51.525C400.188 53.025 400.788 54 401.313 54.6C401.763 55.2 402.363 55.425 402.963 55.425C403.563 55.425 404.163 55.2 404.688 54.6C405.213 54 405.813 53.025 406.563 51.525L430.788 3.9C431.088 3.375 431.238 2.925 431.238 2.55C431.238 1.875 430.638 1.5 429.513 1.5H419.313C418.338 1.5 417.588 1.725 417.138 2.025C416.613 2.325 416.088 3 415.638 3.9L403.263 29.625L390.663 3.9C390.213 3 389.688 2.325 389.238 2.025C388.713 1.725 387.963 1.5 387.063 1.5H376.413C375.213 1.5 374.688 1.875 374.688 2.625ZM435.412 6.675L450.037 27L434.812 48.825C434.137 49.8 433.687 50.55 433.387 51.075C433.087 51.6 433.012 52.05 433.012 52.425C433.012 53.475 433.762 54 435.262 54H472.687C473.362 54 473.887 53.85 474.187 53.55C474.487 53.25 474.712 52.725 474.712 51.975V43.65C474.712 42.9 474.487 42.375 474.187 42.075C473.887 41.775 473.362 41.625 472.687 41.625H455.812L463.987 30C464.512 29.25 464.887 28.65 465.112 28.2C465.262 27.75 465.412 27.375 465.412 26.925C465.412 26.55 465.262 26.1 465.037 25.65C464.812 25.2 464.437 24.6 463.912 23.85L456.712 13.875H472.537C473.212 13.875 473.737 13.725 474.037 13.425C474.337 13.125 474.562 12.6 474.562 11.85V3.525C474.562 2.175 473.887 1.5 472.537 1.5H435.862C434.287 1.5 433.537 2.025 433.537 3.075C433.537 3.525 433.612 3.975 433.912 4.5C434.212 5.1 434.662 5.775 435.412 6.675ZM482.861 2.025C482.561 2.325 482.411 2.85 482.411 3.525V51.975C482.411 52.725 482.561 53.25 482.861 53.55C483.161 53.85 483.686 54 484.436 54H494.561C495.311 54 495.836 53.85 496.136 53.55C496.436 53.25 496.661 52.725 496.661 51.975V15.525C496.661 15.075 496.736 14.775 496.886 14.625C497.036 14.475 497.336 14.325 497.861 14.325H512.786C513.236 14.325 513.536 14.475 513.686 14.625C513.836 14.775 513.911 15.075 513.911 15.525V51.975C513.911 53.325 514.586 54 516.011 54H526.211C527.561 54 528.236 53.325 528.236 51.975V3.525C528.236 2.175 527.561 1.5 526.211 1.5H484.436C483.686 1.5 483.161 1.725 482.861 2.025ZM548.859 14.775C549.009 14.925 549.159 15.225 549.159 15.675V51.975C549.159 52.725 549.309 53.25 549.609 53.55C549.909 53.85 550.434 54 551.184 54H561.384C562.059 54 562.584 53.85 562.884 53.55C563.184 53.25 563.409 52.725 563.409 51.975V15.675C563.409 15.225 563.484 14.925 563.634 14.775C563.784 14.625 564.159 14.475 564.609 14.475H575.934C576.609 14.475 577.134 14.325 577.434 14.025C577.734 13.725 577.959 13.2 577.959 12.45V3.525C577.959 2.85 577.734 2.325 577.434 2.025C577.134 1.725 576.609 1.5 575.934 1.5H536.634C535.284 1.5 534.609 2.175 534.609 3.525V12.45C534.609 13.8 535.284 14.475 536.634 14.475H547.959C548.409 14.475 548.709 14.625 548.859 14.775ZM587.713 37.275C587.113 37.275 586.663 37.65 586.213 38.4L581.938 44.925C581.488 45.6 581.263 46.2 581.263 46.65C581.263 47.025 581.338 47.325 581.563 47.625C581.713 47.925 582.013 48.15 582.463 48.45C585.013 50.55 588.013 52.125 591.313 53.325C594.613 54.525 598.138 55.05 602.038 55.05C606.238 55.05 609.988 54.375 613.213 53.025C616.363 51.675 618.838 49.65 620.638 47.025C622.363 44.475 623.263 41.4 623.263 37.8C623.263 34.875 622.588 32.4 621.313 30.3C620.038 28.2 618.163 26.475 615.688 25.125C613.138 23.775 609.913 22.575 606.013 21.6C603.763 21.075 602.113 20.625 601.063 20.25C599.938 19.875 599.113 19.425 598.588 18.825C597.988 18.3 597.763 17.625 597.763 16.725C597.763 15.675 598.213 14.775 599.263 14.1C600.238 13.425 601.663 13.05 603.463 13.05C607.213 13.05 611.188 14.55 615.238 17.475C615.688 17.925 616.138 18.075 616.663 18.075C617.113 18.075 617.638 17.775 618.088 17.1L622.588 10.2C622.888 9.75 623.113 9.225 623.113 8.7C623.113 8.1 622.813 7.575 622.213 7.125C616.663 2.7 610.363 0.449997 603.313 0.449997C599.338 0.449997 595.813 1.125 592.813 2.475C589.738 3.825 587.338 5.775 585.613 8.325C583.888 10.875 583.063 13.95 583.063 17.475C583.063 20.55 583.663 23.1 584.938 25.2C586.213 27.3 588.088 29.025 590.488 30.375C592.888 31.725 595.888 32.775 599.638 33.675C602.038 34.275 603.838 34.8 605.038 35.25C606.238 35.7 607.138 36.15 607.738 36.675C608.263 37.275 608.563 37.95 608.563 38.7C608.563 39.9 607.963 40.8 606.838 41.475C605.713 42.15 604.063 42.45 601.888 42.45C599.638 42.45 597.463 42.075 595.288 41.25C593.038 40.425 591.013 39.3 589.213 37.95C588.613 37.5 588.088 37.275 587.713 37.275Z" fill="#161E54"/>
</svg>
