<svg width="487" height="56" viewBox="0 0 487 56" fill="none" xmlns="http://www.w3.org/2000/svg">
<path d="M3.3123 6.675L17.9373 27L2.7123 48.825C2.0373 49.8 1.5873 50.55 1.2873 51.075C0.987305 51.6 0.912305 52.05 0.912305 52.425C0.912305 53.475 1.6623 54 3.1623 54H40.5873C41.2623 54 41.7873 53.85 42.0873 53.55C42.3873 53.25 42.6123 52.725 42.6123 51.975V43.65C42.6123 42.9 42.3873 42.375 42.0873 42.075C41.7873 41.775 41.2623 41.625 40.5873 41.625H23.7123L31.8873 30C32.4123 29.25 32.7873 28.65 33.0123 28.2C33.1623 27.75 33.3123 27.375 33.3123 26.925C33.3123 26.55 33.1623 26.1 32.9373 25.65C32.7123 25.2 32.3373 24.6 31.8123 23.85L24.6123 13.875H40.4373C41.1123 13.875 41.6373 13.725 41.9373 13.425C42.2373 13.125 42.4623 12.6 42.4623 11.85V3.525C42.4623 2.175 41.7873 1.5 40.4373 1.5H3.7623C2.1873 1.5 1.4373 2.025 1.4373 3.075C1.4373 3.525 1.5123 3.975 1.8123 4.5C2.1123 5.1 2.5623 5.775 3.3123 6.675ZM45.4939 2.625C45.4939 3.075 45.5689 3.45 45.8689 3.9L70.2439 51.525C70.9939 53.025 71.5939 54 72.1189 54.6C72.5689 55.2 73.1689 55.425 73.7689 55.425C74.3689 55.425 74.9689 55.2 75.4939 54.6C76.0189 54 76.6189 53.025 77.3689 51.525L101.594 3.9C101.894 3.375 102.044 2.925 102.044 2.55C102.044 1.875 101.444 1.5 100.319 1.5H90.1189C89.1439 1.5 88.3939 1.725 87.9439 2.025C87.4189 2.325 86.8939 3 86.4439 3.9L74.0689 29.625L61.4689 3.9C61.0189 3 60.4939 2.325 60.0439 2.025C59.5189 1.725 58.7689 1.5 57.8689 1.5H47.2189C46.0189 1.5 45.4939 1.875 45.4939 2.625ZM106.218 6.675L120.843 27L105.618 48.825C104.943 49.8 104.493 50.55 104.193 51.075C103.893 51.6 103.818 52.05 103.818 52.425C103.818 53.475 104.568 54 106.068 54H143.493C144.168 54 144.693 53.85 144.993 53.55C145.293 53.25 145.518 52.725 145.518 51.975V43.65C145.518 42.9 145.293 42.375 144.993 42.075C144.693 41.775 144.168 41.625 143.493 41.625H126.618L134.793 30C135.318 29.25 135.693 28.65 135.918 28.2C136.068 27.75 136.218 27.375 136.218 26.925C136.218 26.55 136.068 26.1 135.843 25.65C135.618 25.2 135.243 24.6 134.718 23.85L127.518 13.875H143.343C144.018 13.875 144.543 13.725 144.843 13.425C145.143 13.125 145.368 12.6 145.368 11.85V3.525C145.368 2.175 144.693 1.5 143.343 1.5H106.668C105.093 1.5 104.343 2.025 104.343 3.075C104.343 3.525 104.418 3.975 104.718 4.5C105.018 5.1 105.468 5.775 106.218 6.675ZM153.667 2.025C153.367 2.325 153.217 2.85 153.217 3.525V51.975C153.217 52.725 153.367 53.25 153.667 53.55C153.967 53.85 154.492 54 155.242 54H165.367C166.117 54 166.642 53.85 166.942 53.55C167.242 53.25 167.467 52.725 167.467 51.975V15.525C167.467 15.075 167.542 14.775 167.692 14.625C167.842 14.475 168.142 14.325 168.667 14.325H183.592C184.042 14.325 184.342 14.475 184.492 14.625C184.642 14.775 184.717 15.075 184.717 15.525V51.975C184.717 53.325 185.392 54 186.817 54H197.017C198.367 54 199.042 53.325 199.042 51.975V3.525C199.042 2.175 198.367 1.5 197.017 1.5H155.242C154.492 1.5 153.967 1.725 153.667 2.025ZM219.665 14.775C219.815 14.925 219.965 15.225 219.965 15.675V51.975C219.965 52.725 220.115 53.25 220.415 53.55C220.715 53.85 221.24 54 221.99 54H232.19C232.865 54 233.39 53.85 233.69 53.55C233.99 53.25 234.215 52.725 234.215 51.975V15.675C234.215 15.225 234.29 14.925 234.44 14.775C234.59 14.625 234.965 14.475 235.415 14.475H246.74C247.415 14.475 247.94 14.325 248.24 14.025C248.54 13.725 248.765 13.2 248.765 12.45V3.525C248.765 2.85 248.54 2.325 248.24 2.025C247.94 1.725 247.415 1.5 246.74 1.5H207.44C206.09 1.5 205.415 2.175 205.415 3.525V12.45C205.415 13.8 206.09 14.475 207.44 14.475H218.765C219.215 14.475 219.515 14.625 219.665 14.775ZM258.519 37.275C257.919 37.275 257.469 37.65 257.019 38.4L252.744 44.925C252.294 45.6 252.069 46.2 252.069 46.65C252.069 47.025 252.144 47.325 252.369 47.625C252.519 47.925 252.819 48.15 253.269 48.45C255.819 50.55 258.819 52.125 262.119 53.325C265.419 54.525 268.944 55.05 272.844 55.05C277.044 55.05 280.794 54.375 284.019 53.025C287.169 51.675 289.644 49.65 291.444 47.025C293.169 44.475 294.069 41.4 294.069 37.8C294.069 34.875 293.394 32.4 292.119 30.3C290.844 28.2 288.969 26.475 286.494 25.125C283.944 23.775 280.719 22.575 276.819 21.6C274.569 21.075 272.919 20.625 271.869 20.25C270.744 19.875 269.919 19.425 269.394 18.825C268.794 18.3 268.569 17.625 268.569 16.725C268.569 15.675 269.019 14.775 270.069 14.1C271.044 13.425 272.469 13.05 274.269 13.05C278.019 13.05 281.994 14.55 286.044 17.475C286.494 17.925 286.944 18.075 287.469 18.075C287.919 18.075 288.444 17.775 288.894 17.1L293.394 10.2C293.694 9.75 293.919 9.225 293.919 8.7C293.919 8.1 293.619 7.575 293.019 7.125C287.469 2.7 281.169 0.449997 274.119 0.449997C270.144 0.449997 266.619 1.125 263.619 2.475C260.544 3.825 258.144 5.775 256.419 8.325C254.694 10.875 253.869 13.95 253.869 17.475C253.869 20.55 254.469 23.1 255.744 25.2C257.019 27.3 258.894 29.025 261.294 30.375C263.694 31.725 266.694 32.775 270.444 33.675C272.844 34.275 274.644 34.8 275.844 35.25C277.044 35.7 277.944 36.15 278.544 36.675C279.069 37.275 279.369 37.95 279.369 38.7C279.369 39.9 278.769 40.8 277.644 41.475C276.519 42.15 274.869 42.45 272.694 42.45C270.444 42.45 268.269 42.075 266.094 41.25C263.844 40.425 261.819 39.3 260.019 37.95C259.419 37.5 258.894 37.275 258.519 37.275Z" fill="#161E54"/>
<path d="M324.428 0.674998C323.153 0.674998 322.553 1.65 322.553 3.6V51.975C322.553 52.725 322.703 53.25 323.003 53.55C323.303 53.85 323.828 54 324.578 54H334.703C335.453 54 335.978 53.85 336.278 53.55C336.578 53.25 336.803 52.725 336.803 51.975V31.2L346.628 42.075C347.228 42.825 347.753 43.35 348.203 43.65C348.578 43.95 348.953 44.025 349.403 44.025C349.778 44.025 350.153 43.95 350.603 43.65C350.978 43.35 351.503 42.825 352.253 42.075L362.078 31.2V51.975C362.078 53.325 362.753 54 364.178 54H374.303C375.653 54 376.403 53.325 376.403 51.975V3.6C376.403 1.65 375.728 0.674998 374.453 0.674998C374.003 0.674998 373.553 0.9 373.103 1.2C372.653 1.5 371.978 2.1 371.153 2.925L349.478 25.95L327.728 2.925C326.978 2.175 326.303 1.575 325.853 1.2C325.328 0.9 324.878 0.674998 324.428 0.674998ZM407.559 1.2C406.959 1.8 406.359 2.775 405.609 4.2L381.684 51.525C381.384 51.975 381.309 52.425 381.309 52.875C381.309 53.625 381.834 54 383.034 54H436.134C437.259 54 437.859 53.625 437.859 52.875C437.859 52.5 437.709 52.05 437.409 51.525L413.484 4.2C412.734 2.775 412.059 1.8 411.459 1.2C410.859 0.599999 410.259 0.299998 409.584 0.299998C408.834 0.299998 408.159 0.599999 407.559 1.2ZM409.284 23.625L417.684 41.625H400.959L409.284 23.625ZM443.193 2.025C442.893 2.325 442.743 2.85 442.743 3.525V51.975C442.743 52.725 442.893 53.25 443.193 53.55C443.493 53.85 444.018 54 444.768 54H454.893C455.643 54 456.168 53.85 456.468 53.55C456.768 53.25 456.993 52.725 456.993 51.975V41.175C456.993 40.725 457.068 40.425 457.218 40.275C457.368 40.125 457.743 40.05 458.193 40.05H462.693C470.493 40.05 476.418 38.4 480.468 35.1C484.518 31.8 486.618 27 486.618 20.55C486.618 14.175 484.593 9.375 480.693 6.225C476.793 3.075 470.868 1.5 463.068 1.5H444.768C444.018 1.5 443.493 1.725 443.193 2.025ZM471.993 20.625C471.993 25.35 468.693 27.675 462.093 27.675H458.193C457.668 27.675 457.368 27.6 457.218 27.45C457.068 27.3 456.993 26.925 456.993 26.475V15.075C456.993 14.625 457.068 14.325 457.218 14.175C457.368 14.025 457.668 13.875 458.193 13.875H462.093C465.393 13.875 467.868 14.4 469.518 15.45C471.168 16.5 471.993 18.225 471.993 20.625Z" fill="#FF8D29"/>
</svg>
