<svg width="269" height="33" viewBox="0 0 269 33" fill="none" xmlns="http://www.w3.org/2000/svg">
<path d="M1.804 4.236L10.384 16.16L1.452 28.964C1.056 29.536 0.792 29.976 0.616 30.284C0.44 30.592 0.396 30.856 0.396 31.076C0.396 31.692 0.836 32 1.716 32H23.672C24.068 32 24.376 31.912 24.552 31.736C24.728 31.56 24.86 31.252 24.86 30.812V25.928C24.86 25.488 24.728 25.18 24.552 25.004C24.376 24.828 24.068 24.74 23.672 24.74H13.772L18.568 17.92C18.876 17.48 19.096 17.128 19.228 16.864C19.316 16.6 19.404 16.38 19.404 16.116C19.404 15.896 19.316 15.632 19.184 15.368C19.052 15.104 18.832 14.752 18.524 14.312L14.3 8.46H23.584C23.98 8.46 24.288 8.372 24.464 8.196C24.64 8.02 24.772 7.712 24.772 7.272V2.388C24.772 1.596 24.376 1.2 23.584 1.2H2.068C1.144 1.2 0.704 1.508 0.704 2.124C0.704 2.388 0.748 2.652 0.924 2.96C1.1 3.312 1.364 3.708 1.804 4.236ZM26.5506 1.86C26.5506 2.124 26.5946 2.344 26.7706 2.608L41.0706 30.548C41.5106 31.428 41.8626 32 42.1706 32.352C42.4346 32.704 42.7866 32.836 43.1386 32.836C43.4906 32.836 43.8426 32.704 44.1506 32.352C44.4586 32 44.8106 31.428 45.2506 30.548L59.4626 2.608C59.6386 2.3 59.7266 2.036 59.7266 1.816C59.7266 1.42 59.3746 1.2 58.7146 1.2H52.7306C52.1586 1.2 51.7186 1.332 51.4546 1.508C51.1466 1.684 50.8386 2.08 50.5746 2.608L43.3146 17.7L35.9226 2.608C35.6586 2.08 35.3506 1.684 35.0866 1.508C34.7786 1.332 34.3386 1.2 33.8106 1.2H27.5626C26.8586 1.2 26.5506 1.42 26.5506 1.86ZM62.1751 4.236L70.7551 16.16L61.8231 28.964C61.4271 29.536 61.1631 29.976 60.9871 30.284C60.8111 30.592 60.7671 30.856 60.7671 31.076C60.7671 31.692 61.2071 32 62.0871 32H84.0431C84.4391 32 84.7471 31.912 84.9231 31.736C85.0991 31.56 85.2311 31.252 85.2311 30.812V25.928C85.2311 25.488 85.0991 25.18 84.9231 25.004C84.7471 24.828 84.4391 24.74 84.0431 24.74H74.1431L78.9391 17.92C79.2471 17.48 79.4671 17.128 79.5991 16.864C79.6871 16.6 79.7751 16.38 79.7751 16.116C79.7751 15.896 79.6871 15.632 79.5551 15.368C79.4231 15.104 79.2031 14.752 78.8951 14.312L74.6711 8.46H83.9551C84.3511 8.46 84.6591 8.372 84.8351 8.196C85.0111 8.02 85.1431 7.712 85.1431 7.272V2.388C85.1431 1.596 84.7471 1.2 83.9551 1.2H62.4391C61.5151 1.2 61.0751 1.508 61.0751 2.124C61.0751 2.388 61.1191 2.652 61.2951 2.96C61.4711 3.312 61.7351 3.708 62.1751 4.236ZM90.012 1.508C89.836 1.684 89.748 1.992 89.748 2.388V30.812C89.748 31.252 89.836 31.56 90.012 31.736C90.188 31.912 90.496 32 90.936 32H96.876C97.316 32 97.624 31.912 97.8 31.736C97.976 31.56 98.108 31.252 98.108 30.812V9.428C98.108 9.164 98.152 8.988 98.24 8.9C98.328 8.812 98.504 8.724 98.812 8.724H107.568C107.832 8.724 108.008 8.812 108.096 8.9C108.184 8.988 108.228 9.164 108.228 9.428V30.812C108.228 31.604 108.624 32 109.46 32H115.444C116.236 32 116.632 31.604 116.632 30.812V2.388C116.632 1.596 116.236 1.2 115.444 1.2H90.936C90.496 1.2 90.188 1.332 90.012 1.508ZM128.731 8.988C128.819 9.076 128.907 9.252 128.907 9.516V30.812C128.907 31.252 128.995 31.56 129.171 31.736C129.347 31.912 129.655 32 130.095 32H136.079C136.475 32 136.783 31.912 136.959 31.736C137.135 31.56 137.267 31.252 137.267 30.812V9.516C137.267 9.252 137.311 9.076 137.399 8.988C137.487 8.9 137.707 8.812 137.971 8.812H144.615C145.011 8.812 145.319 8.724 145.495 8.548C145.671 8.372 145.803 8.064 145.803 7.624V2.388C145.803 1.992 145.671 1.684 145.495 1.508C145.319 1.332 145.011 1.2 144.615 1.2H121.559C120.767 1.2 120.371 1.596 120.371 2.388V7.624C120.371 8.416 120.767 8.812 121.559 8.812H128.203C128.467 8.812 128.643 8.9 128.731 8.988Z" fill="#161E54"/>
<path d="M149.824 1.508C149.648 1.684 149.56 1.992 149.56 2.388V30.812C149.56 31.252 149.648 31.56 149.824 31.736C150 31.912 150.308 32 150.748 32H156.688C157.128 32 157.436 31.912 157.612 31.736C157.788 31.56 157.92 31.252 157.92 30.812V8.944C157.92 8.68 157.964 8.46 158.052 8.372C158.14 8.284 158.316 8.24 158.624 8.24H160.868C162.76 8.24 164.168 8.592 165.136 9.296C166.104 10 166.588 11.056 166.588 12.508C166.588 13.916 166.06 14.972 165.092 15.764C164.08 16.556 162.76 17.04 161.176 17.216C160.56 17.348 160.252 17.568 160.252 17.876C160.252 18.052 160.296 18.272 160.472 18.536L167.292 30.636C167.6 31.208 167.908 31.56 168.216 31.736C168.524 31.912 169.008 32 169.668 32H175.96C176.664 32 177.06 31.78 177.06 31.34C177.06 31.164 176.972 30.9 176.796 30.592L170.152 19.548C173.496 17.92 175.212 15.28 175.212 11.584C175.212 8.064 174.068 5.424 171.78 3.752C169.492 2.08 165.972 1.2 161.308 1.2H150.748C150.308 1.2 150 1.332 149.824 1.508ZM180.327 1.508C180.151 1.684 180.063 1.992 180.063 2.388V18.756C180.063 21.836 180.635 24.432 181.779 26.5C182.923 28.568 184.551 30.108 186.663 31.12C188.731 32.132 191.151 32.616 193.967 32.616C196.827 32.616 199.335 32.132 201.535 31.076C203.735 30.02 205.407 28.48 206.639 26.368C207.827 24.3 208.443 21.748 208.443 18.668V2.388C208.443 1.992 208.311 1.684 208.135 1.508C207.959 1.332 207.651 1.2 207.211 1.2H201.271C200.831 1.2 200.523 1.332 200.347 1.508C200.171 1.684 200.083 1.992 200.083 2.388V18.052C200.083 20.296 199.555 22.012 198.587 23.2C197.575 24.388 196.123 24.96 194.231 24.96C192.295 24.96 190.843 24.388 189.875 23.2C188.907 22.012 188.423 20.296 188.423 18.052V2.388C188.423 1.992 188.291 1.684 188.115 1.508C187.939 1.332 187.631 1.2 187.191 1.2H181.251C180.811 1.2 180.503 1.332 180.327 1.508ZM215.377 22.188C215.025 22.188 214.761 22.408 214.497 22.848L211.989 26.676C211.725 27.072 211.593 27.424 211.593 27.688C211.593 27.908 211.637 28.084 211.769 28.26C211.857 28.436 212.033 28.568 212.297 28.744C213.793 29.976 215.553 30.9 217.489 31.604C219.425 32.308 221.493 32.616 223.781 32.616C226.245 32.616 228.445 32.22 230.337 31.428C232.185 30.636 233.637 29.448 234.693 27.908C235.705 26.412 236.233 24.608 236.233 22.496C236.233 20.78 235.837 19.328 235.089 18.096C234.341 16.864 233.241 15.852 231.789 15.06C230.293 14.268 228.401 13.564 226.113 12.992C224.793 12.684 223.825 12.42 223.209 12.2C222.549 11.98 222.065 11.716 221.757 11.364C221.405 11.056 221.273 10.66 221.273 10.132C221.273 9.516 221.537 8.988 222.153 8.592C222.725 8.196 223.561 7.976 224.617 7.976C226.817 7.976 229.149 8.856 231.525 10.572C231.789 10.836 232.053 10.924 232.361 10.924C232.625 10.924 232.933 10.748 233.197 10.352L235.837 6.304C236.013 6.04 236.145 5.732 236.145 5.424C236.145 5.072 235.969 4.764 235.617 4.5C232.361 1.904 228.665 0.583998 224.529 0.583998C222.197 0.583998 220.129 0.979998 218.369 1.772C216.565 2.564 215.157 3.708 214.145 5.204C213.133 6.7 212.649 8.504 212.649 10.572C212.649 12.376 213.001 13.872 213.749 15.104C214.497 16.336 215.597 17.348 217.005 18.14C218.413 18.932 220.173 19.548 222.373 20.076C223.781 20.428 224.837 20.736 225.541 21C226.245 21.264 226.773 21.528 227.125 21.836C227.433 22.188 227.609 22.584 227.609 23.024C227.609 23.728 227.257 24.256 226.597 24.652C225.937 25.048 224.969 25.224 223.693 25.224C222.373 25.224 221.097 25.004 219.821 24.52C218.501 24.036 217.313 23.376 216.257 22.584C215.905 22.32 215.597 22.188 215.377 22.188ZM241.09 1.508C240.914 1.684 240.826 1.992 240.826 2.388V30.812C240.826 31.252 240.914 31.56 241.09 31.736C241.266 31.912 241.574 32 242.014 32H247.954C248.394 32 248.702 31.912 248.878 31.736C249.054 31.56 249.186 31.252 249.186 30.812V20.824C249.186 20.56 249.23 20.384 249.318 20.296C249.406 20.208 249.582 20.12 249.89 20.12H259.042C259.306 20.12 259.482 20.208 259.57 20.296C259.658 20.384 259.746 20.56 259.746 20.824V30.812C259.746 31.604 260.142 32 260.978 32H266.918C267.71 32 268.15 31.604 268.15 30.812V2.388C268.15 1.596 267.71 1.2 266.918 1.2H260.978C260.142 1.2 259.746 1.596 259.746 2.388V11.804C259.746 12.068 259.658 12.288 259.57 12.376C259.482 12.464 259.306 12.508 259.042 12.508H249.89C249.582 12.508 249.406 12.464 249.318 12.376C249.23 12.288 249.186 12.068 249.186 11.804V2.388C249.186 1.992 249.054 1.684 248.878 1.508C248.702 1.332 248.394 1.2 247.954 1.2H242.014C241.574 1.2 241.266 1.332 241.09 1.508Z" fill="#FF8D29"/>
</svg>
