<svg width="294" height="56" viewBox="0 0 294 56" fill="none" xmlns="http://www.w3.org/2000/svg">
<path d="M3.075 6.675L17.7 27L2.475 48.825C1.8 49.8 1.35 50.55 1.05 51.075C0.75 51.6 0.675 52.05 0.675 52.425C0.675 53.475 1.425 54 2.925 54H40.35C41.025 54 41.55 53.85 41.85 53.55C42.15 53.25 42.375 52.725 42.375 51.975V43.65C42.375 42.9 42.15 42.375 41.85 42.075C41.55 41.775 41.025 41.625 40.35 41.625H23.475L31.65 30C32.175 29.25 32.55 28.65 32.775 28.2C32.925 27.75 33.075 27.375 33.075 26.925C33.075 26.55 32.925 26.1 32.7 25.65C32.475 25.2 32.1 24.6 31.575 23.85L24.375 13.875H40.2C40.875 13.875 41.4 13.725 41.7 13.425C42 13.125 42.225 12.6 42.225 11.85V3.525C42.225 2.175 41.55 1.5 40.2 1.5H3.525C1.95 1.5 1.2 2.025 1.2 3.075C1.2 3.525 1.275 3.975 1.575 4.5C1.875 5.1 2.325 5.775 3.075 6.675ZM45.2566 2.625C45.2566 3.075 45.3316 3.45 45.6316 3.9L70.0066 51.525C70.7566 53.025 71.3566 54 71.8816 54.6C72.3316 55.2 72.9316 55.425 73.5316 55.425C74.1316 55.425 74.7316 55.2 75.2566 54.6C75.7816 54 76.3816 53.025 77.1316 51.525L101.357 3.9C101.657 3.375 101.807 2.925 101.807 2.55C101.807 1.875 101.207 1.5 100.082 1.5H89.8816C88.9066 1.5 88.1566 1.725 87.7066 2.025C87.1816 2.325 86.6566 3 86.2066 3.9L73.8316 29.625L61.2316 3.9C60.7816 3 60.2566 2.325 59.8066 2.025C59.2816 1.725 58.5316 1.5 57.6316 1.5H46.9816C45.7816 1.5 45.2566 1.875 45.2566 2.625ZM105.98 6.675L120.605 27L105.38 48.825C104.705 49.8 104.255 50.55 103.955 51.075C103.655 51.6 103.58 52.05 103.58 52.425C103.58 53.475 104.33 54 105.83 54H143.255C143.93 54 144.455 53.85 144.755 53.55C145.055 53.25 145.28 52.725 145.28 51.975V43.65C145.28 42.9 145.055 42.375 144.755 42.075C144.455 41.775 143.93 41.625 143.255 41.625H126.38L134.555 30C135.08 29.25 135.455 28.65 135.68 28.2C135.83 27.75 135.98 27.375 135.98 26.925C135.98 26.55 135.83 26.1 135.605 25.65C135.38 25.2 135.005 24.6 134.48 23.85L127.28 13.875H143.105C143.78 13.875 144.305 13.725 144.605 13.425C144.905 13.125 145.13 12.6 145.13 11.85V3.525C145.13 2.175 144.455 1.5 143.105 1.5H106.43C104.855 1.5 104.105 2.025 104.105 3.075C104.105 3.525 104.18 3.975 104.48 4.5C104.78 5.1 105.23 5.775 105.98 6.675ZM153.429 2.025C153.129 2.325 152.979 2.85 152.979 3.525V51.975C152.979 52.725 153.129 53.25 153.429 53.55C153.729 53.85 154.254 54 155.004 54H165.129C165.879 54 166.404 53.85 166.704 53.55C167.004 53.25 167.229 52.725 167.229 51.975V15.525C167.229 15.075 167.304 14.775 167.454 14.625C167.604 14.475 167.904 14.325 168.429 14.325H183.354C183.804 14.325 184.104 14.475 184.254 14.625C184.404 14.775 184.479 15.075 184.479 15.525V51.975C184.479 53.325 185.154 54 186.579 54H196.779C198.129 54 198.804 53.325 198.804 51.975V3.525C198.804 2.175 198.129 1.5 196.779 1.5H155.004C154.254 1.5 153.729 1.725 153.429 2.025ZM219.428 14.775C219.578 14.925 219.728 15.225 219.728 15.675V51.975C219.728 52.725 219.878 53.25 220.178 53.55C220.478 53.85 221.003 54 221.753 54H231.953C232.628 54 233.153 53.85 233.453 53.55C233.753 53.25 233.978 52.725 233.978 51.975V15.675C233.978 15.225 234.053 14.925 234.203 14.775C234.353 14.625 234.728 14.475 235.178 14.475H246.503C247.178 14.475 247.703 14.325 248.003 14.025C248.303 13.725 248.528 13.2 248.528 12.45V3.525C248.528 2.85 248.303 2.325 248.003 2.025C247.703 1.725 247.178 1.5 246.503 1.5H207.203C205.853 1.5 205.178 2.175 205.178 3.525V12.45C205.178 13.8 205.853 14.475 207.203 14.475H218.528C218.978 14.475 219.278 14.625 219.428 14.775ZM258.281 37.275C257.681 37.275 257.231 37.65 256.781 38.4L252.506 44.925C252.056 45.6 251.831 46.2 251.831 46.65C251.831 47.025 251.906 47.325 252.131 47.625C252.281 47.925 252.581 48.15 253.031 48.45C255.581 50.55 258.581 52.125 261.881 53.325C265.181 54.525 268.706 55.05 272.606 55.05C276.806 55.05 280.556 54.375 283.781 53.025C286.931 51.675 289.406 49.65 291.206 47.025C292.931 44.475 293.831 41.4 293.831 37.8C293.831 34.875 293.156 32.4 291.881 30.3C290.606 28.2 288.731 26.475 286.256 25.125C283.706 23.775 280.481 22.575 276.581 21.6C274.331 21.075 272.681 20.625 271.631 20.25C270.506 19.875 269.681 19.425 269.156 18.825C268.556 18.3 268.331 17.625 268.331 16.725C268.331 15.675 268.781 14.775 269.831 14.1C270.806 13.425 272.231 13.05 274.031 13.05C277.781 13.05 281.756 14.55 285.806 17.475C286.256 17.925 286.706 18.075 287.231 18.075C287.681 18.075 288.206 17.775 288.656 17.1L293.156 10.2C293.456 9.75 293.681 9.225 293.681 8.7C293.681 8.1 293.381 7.575 292.781 7.125C287.231 2.7 280.931 0.449997 273.881 0.449997C269.906 0.449997 266.381 1.125 263.381 2.475C260.306 3.825 257.906 5.775 256.181 8.325C254.456 10.875 253.631 13.95 253.631 17.475C253.631 20.55 254.231 23.1 255.506 25.2C256.781 27.3 258.656 29.025 261.056 30.375C263.456 31.725 266.456 32.775 270.206 33.675C272.606 34.275 274.406 34.8 275.606 35.25C276.806 35.7 277.706 36.15 278.306 36.675C278.831 37.275 279.131 37.95 279.131 38.7C279.131 39.9 278.531 40.8 277.406 41.475C276.281 42.15 274.631 42.45 272.456 42.45C270.206 42.45 268.031 42.075 265.856 41.25C263.606 40.425 261.581 39.3 259.781 37.95C259.181 37.5 258.656 37.275 258.281 37.275Z" fill="#161E54"/>
</svg>
