<svg width="1664" height="314" viewBox="0 0 1664 314" fill="none" xmlns="http://www.w3.org/2000/svg">
<g filter="url(#filter0_d_68_247)">
<rect x="82" y="82" width="1500" height="150" rx="26" fill="white"/>
<path d="M585.714 150H592.662C594.56 150 596.182 149.622 597.526 148.866C598.871 148.11 599.899 147.021 600.611 145.597C601.332 144.164 601.692 142.446 601.692 140.442V140.416C601.692 138.412 601.332 136.707 600.611 135.3C599.899 133.894 598.871 132.822 597.526 132.083C596.182 131.345 594.56 130.976 592.662 130.976H585.714V150ZM589.102 147.139V133.837H592.306C593.571 133.837 594.644 134.092 595.522 134.602C596.41 135.111 597.083 135.858 597.54 136.843C598.005 137.818 598.238 139.014 598.238 140.429V140.455C598.238 141.905 598.01 143.127 597.553 144.12C597.096 145.104 596.423 145.856 595.536 146.375C594.657 146.884 593.58 147.139 592.306 147.139H589.102ZM608.192 150.237C608.807 150.237 609.383 150.141 609.919 149.947C610.455 149.754 610.934 149.481 611.356 149.13C611.787 148.77 612.134 148.348 612.397 147.864H612.477V150H615.746V140.376C615.746 139.436 615.509 138.618 615.034 137.924C614.568 137.221 613.905 136.68 613.043 136.302C612.191 135.916 611.18 135.722 610.011 135.722C608.833 135.722 607.814 135.911 606.953 136.289C606.1 136.658 605.428 137.168 604.936 137.818C604.452 138.469 604.175 139.211 604.105 140.046L604.092 140.191H607.137L607.164 140.073C607.278 139.563 607.568 139.146 608.034 138.82C608.5 138.495 609.119 138.333 609.893 138.333C610.728 138.333 611.365 138.535 611.804 138.939C612.252 139.343 612.477 139.897 612.477 140.6V144.819C612.477 145.373 612.332 145.869 612.042 146.309C611.751 146.748 611.356 147.095 610.855 147.35C610.363 147.605 609.8 147.732 609.167 147.732C608.447 147.732 607.867 147.57 607.427 147.245C606.997 146.911 606.781 146.458 606.781 145.887V145.86C606.781 145.307 606.992 144.863 607.414 144.529C607.845 144.195 608.469 144.006 609.286 143.962L614.164 143.646V141.483L608.825 141.8C607.128 141.905 605.814 142.318 604.883 143.039C603.96 143.76 603.499 144.744 603.499 145.992V146.005C603.499 146.84 603.696 147.579 604.092 148.22C604.487 148.853 605.037 149.35 605.74 149.71C606.443 150.062 607.26 150.237 608.192 150.237ZM623.669 150.277C624.012 150.277 624.32 150.259 624.592 150.224C624.874 150.198 625.111 150.171 625.304 150.145V147.68C625.19 147.688 625.067 147.702 624.935 147.719C624.803 147.728 624.654 147.732 624.487 147.732C623.889 147.732 623.441 147.605 623.142 147.35C622.843 147.086 622.694 146.612 622.694 145.926V138.53H625.304V135.999H622.694V132.466H619.358V135.999H617.368V138.53H619.358V146.216C619.358 147.649 619.71 148.686 620.413 149.328C621.125 149.96 622.21 150.277 623.669 150.277ZM633.465 150.277C634.379 150.277 635.192 150.158 635.904 149.921C636.616 149.675 637.231 149.345 637.75 148.932C638.268 148.519 638.681 148.058 638.989 147.548C639.296 147.029 639.507 146.506 639.622 145.979L639.648 145.834H636.589L636.55 145.926C636.444 146.234 636.26 146.524 635.996 146.796C635.732 147.069 635.394 147.293 634.981 147.469C634.568 147.636 634.084 147.719 633.531 147.719C632.801 147.719 632.173 147.561 631.646 147.245C631.118 146.919 630.709 146.454 630.419 145.847C630.138 145.241 629.998 144.516 629.998 143.672V142.393C629.998 141.514 630.138 140.767 630.419 140.152C630.709 139.537 631.105 139.075 631.606 138.768C632.116 138.451 632.696 138.293 633.346 138.293C633.997 138.293 634.568 138.442 635.06 138.741C635.552 139.04 635.939 139.497 636.22 140.112C636.501 140.719 636.642 141.479 636.642 142.393V143.659L638.224 141.615H628.363V143.804H639.793V142.749C639.793 141.343 639.529 140.112 639.002 139.058C638.475 138.003 637.728 137.186 636.761 136.605C635.794 136.017 634.643 135.722 633.307 135.722C631.979 135.722 630.824 136.025 629.839 136.632C628.855 137.229 628.09 138.078 627.545 139.176C627.009 140.275 626.741 141.558 626.741 143.026V143.039C626.741 144.516 627.009 145.799 627.545 146.889C628.082 147.97 628.851 148.805 629.853 149.394C630.863 149.982 632.067 150.277 633.465 150.277Z" fill="black"/>
<path d="M591.703 192.317C593.094 192.317 594.291 192.102 595.292 191.67C596.301 191.239 597.074 190.629 597.611 189.839C598.156 189.042 598.429 188.106 598.429 187.032V187.02C598.429 185.669 598.014 184.603 597.184 183.821C596.362 183.032 595.039 182.446 593.216 182.063L591.3 181.648C590.193 181.412 589.383 181.087 588.871 180.672C588.358 180.249 588.102 179.708 588.102 179.048V179.036C588.102 178.515 588.248 178.064 588.541 177.681C588.834 177.291 589.249 176.989 589.786 176.778C590.323 176.558 590.95 176.448 591.666 176.448C592.366 176.448 592.98 176.554 593.509 176.766C594.046 176.977 594.478 177.278 594.803 177.669C595.129 178.051 595.332 178.515 595.414 179.061L595.426 179.219H598.099L598.087 179.024C598.022 178.047 597.717 177.189 597.171 176.448C596.626 175.7 595.886 175.118 594.95 174.703C594.022 174.279 592.944 174.068 591.715 174.068C590.47 174.068 589.367 174.284 588.407 174.715C587.446 175.146 586.694 175.744 586.148 176.509C585.603 177.266 585.326 178.149 585.318 179.158V179.17C585.318 180.472 585.737 181.53 586.576 182.344C587.422 183.15 588.712 183.736 590.445 184.102L592.362 184.517C593.534 184.769 594.372 185.107 594.876 185.53C595.389 185.945 595.646 186.507 595.646 187.215V187.227C595.646 187.772 595.487 188.248 595.169 188.655C594.86 189.062 594.417 189.38 593.839 189.607C593.269 189.827 592.594 189.937 591.812 189.937C591.031 189.937 590.335 189.831 589.725 189.62C589.123 189.4 588.639 189.095 588.272 188.704C587.906 188.313 587.682 187.85 587.601 187.312L587.577 187.154H584.903L584.916 187.337C584.989 188.354 585.314 189.237 585.892 189.986C586.47 190.735 587.251 191.312 588.236 191.719C589.229 192.118 590.384 192.317 591.703 192.317ZM606.217 192.256C607.006 192.256 607.718 192.151 608.353 191.939C608.988 191.727 609.541 191.438 610.013 191.072C610.485 190.698 610.864 190.283 611.148 189.827C611.441 189.363 611.641 188.883 611.747 188.387L611.771 188.252L609.244 188.265L609.22 188.35C609.114 188.659 608.927 188.948 608.658 189.217C608.398 189.477 608.064 189.689 607.657 189.852C607.258 190.006 606.799 190.083 606.278 190.083C605.562 190.083 604.939 189.929 604.41 189.62C603.889 189.302 603.486 188.847 603.202 188.252C602.925 187.658 602.787 186.942 602.787 186.104V185.066C602.787 184.196 602.929 183.459 603.214 182.857C603.499 182.247 603.889 181.787 604.386 181.478C604.89 181.168 605.46 181.014 606.095 181.014C606.729 181.014 607.287 181.164 607.767 181.465C608.255 181.758 608.638 182.206 608.915 182.808C609.191 183.41 609.33 184.163 609.33 185.066V186.092L610.636 184.346H601.444V186.226H611.917V185.323C611.917 184.029 611.681 182.898 611.209 181.929C610.737 180.953 610.066 180.196 609.195 179.659C608.325 179.122 607.287 178.853 606.083 178.853C604.878 178.853 603.828 179.134 602.933 179.695C602.046 180.257 601.354 181.042 600.858 182.051C600.37 183.06 600.125 184.236 600.125 185.579V185.591C600.125 186.95 600.37 188.13 600.858 189.131C601.346 190.124 602.046 190.893 602.958 191.438C603.869 191.984 604.955 192.256 606.217 192.256ZM614.2 192H616.849V174.275H614.2V192ZM625.235 192.256C626.025 192.256 626.737 192.151 627.372 191.939C628.006 191.727 628.56 191.438 629.032 191.072C629.504 190.698 629.882 190.283 630.167 189.827C630.46 189.363 630.659 188.883 630.765 188.387L630.79 188.252L628.263 188.265L628.238 188.35C628.132 188.659 627.945 188.948 627.677 189.217C627.416 189.477 627.083 189.689 626.676 189.852C626.277 190.006 625.817 190.083 625.296 190.083C624.58 190.083 623.958 189.929 623.429 189.62C622.908 189.302 622.505 188.847 622.22 188.252C621.944 187.658 621.805 186.942 621.805 186.104V185.066C621.805 184.196 621.948 183.459 622.232 182.857C622.517 182.247 622.908 181.787 623.404 181.478C623.909 181.168 624.479 181.014 625.113 181.014C625.748 181.014 626.306 181.164 626.786 181.465C627.274 181.758 627.656 182.206 627.933 182.808C628.21 183.41 628.348 184.163 628.348 185.066V186.092L629.654 184.346H620.462V186.226H630.936V185.323C630.936 184.029 630.7 182.898 630.228 181.929C629.756 180.953 629.085 180.196 628.214 179.659C627.343 179.122 626.306 178.853 625.101 178.853C623.897 178.853 622.847 179.134 621.952 179.695C621.065 180.257 620.373 181.042 619.876 182.051C619.388 183.06 619.144 184.236 619.144 185.579V185.591C619.144 186.95 619.388 188.13 619.876 189.131C620.365 190.124 621.065 190.893 621.976 191.438C622.888 191.984 623.974 192.256 625.235 192.256ZM638.639 192.256C639.688 192.256 640.608 192.057 641.397 191.658C642.187 191.259 642.822 190.718 643.302 190.035C643.79 189.351 644.083 188.582 644.181 187.728L644.193 187.642H641.654L641.629 187.74C641.467 188.431 641.133 188.989 640.628 189.412C640.124 189.827 639.465 190.035 638.651 190.035C637.967 190.035 637.369 189.86 636.856 189.51C636.344 189.152 635.945 188.639 635.66 187.972C635.375 187.304 635.233 186.499 635.233 185.555V185.542C635.233 184.623 635.371 183.829 635.648 183.162C635.933 182.495 636.327 181.978 636.832 181.612C637.345 181.246 637.947 181.062 638.639 181.062C639.501 181.062 640.181 181.29 640.677 181.746C641.174 182.202 641.491 182.747 641.629 183.382L641.654 183.479H644.181L644.168 183.382C644.087 182.568 643.819 181.819 643.363 181.136C642.907 180.452 642.276 179.903 641.471 179.488C640.673 179.065 639.721 178.853 638.614 178.853C637.385 178.853 636.315 179.126 635.404 179.671C634.492 180.208 633.784 180.977 633.28 181.978C632.775 182.979 632.523 184.159 632.523 185.518V185.542C632.523 186.91 632.771 188.098 633.268 189.107C633.764 190.108 634.472 190.885 635.392 191.438C636.311 191.984 637.394 192.256 638.639 192.256ZM650.833 192.232C651.102 192.232 651.354 192.22 651.59 192.195C651.826 192.171 652.026 192.146 652.188 192.122V190.071C652.083 190.079 651.969 190.092 651.847 190.108C651.725 190.116 651.59 190.12 651.444 190.12C650.866 190.12 650.435 189.994 650.15 189.742C649.865 189.489 649.723 189.034 649.723 188.375V181.197H652.188V179.109H649.723V175.765H647.013V179.109H645.145V181.197H647.013V188.594C647.013 189.872 647.326 190.8 647.953 191.377C648.579 191.947 649.54 192.232 650.833 192.232ZM660.086 192H666.324C668.082 192 669.579 191.654 670.816 190.962C672.062 190.263 673.014 189.253 673.673 187.935C674.332 186.609 674.662 185.018 674.662 183.162V183.138C674.662 181.29 674.328 179.716 673.661 178.414C673.001 177.103 672.049 176.106 670.804 175.423C669.567 174.731 668.074 174.385 666.324 174.385H660.086V192ZM662.833 189.632V176.753H666.068C667.305 176.753 668.355 177.002 669.217 177.498C670.08 177.986 670.735 178.711 671.183 179.671C671.638 180.623 671.866 181.787 671.866 183.162V183.187C671.866 184.57 671.642 185.742 671.195 186.702C670.747 187.662 670.092 188.391 669.229 188.887C668.367 189.384 667.313 189.632 666.068 189.632H662.833ZM680.838 192.232C681.416 192.232 681.953 192.142 682.45 191.963C682.954 191.776 683.402 191.516 683.792 191.182C684.191 190.848 684.517 190.454 684.769 189.998H684.842V192H687.491V183.125C687.491 182.255 687.28 181.502 686.856 180.867C686.441 180.224 685.851 179.728 685.086 179.378C684.321 179.028 683.41 178.853 682.352 178.853C681.302 178.853 680.395 179.024 679.63 179.366C678.865 179.699 678.263 180.159 677.823 180.745C677.392 181.323 677.14 181.982 677.066 182.723L677.054 182.857H679.557L679.581 182.759C679.695 182.247 679.984 181.832 680.448 181.514C680.912 181.197 681.518 181.038 682.267 181.038C683.097 181.038 683.731 181.242 684.171 181.648C684.618 182.047 684.842 182.601 684.842 183.309V187.178C684.842 187.732 684.696 188.232 684.403 188.68C684.118 189.119 683.727 189.469 683.231 189.729C682.743 189.982 682.185 190.108 681.559 190.108C680.851 190.108 680.281 189.945 679.85 189.62C679.418 189.286 679.203 188.834 679.203 188.265V188.252C679.203 187.699 679.414 187.26 679.837 186.934C680.269 186.6 680.887 186.409 681.693 186.36L686.197 186.08V184.224L681.339 184.505C679.817 184.594 678.637 184.969 677.799 185.628C676.961 186.287 676.542 187.182 676.542 188.313V188.338C676.542 189.111 676.721 189.791 677.079 190.376C677.445 190.962 677.949 191.418 678.592 191.744C679.243 192.069 679.992 192.232 680.838 192.232ZM694.803 192.232C695.072 192.232 695.324 192.22 695.56 192.195C695.796 192.171 695.995 192.146 696.158 192.122V190.071C696.052 190.079 695.938 190.092 695.816 190.108C695.694 190.116 695.56 190.12 695.414 190.12C694.836 190.12 694.404 189.994 694.12 189.742C693.835 189.489 693.692 189.034 693.692 188.375V181.197H696.158V179.109H693.692V175.765H690.982V179.109H689.115V181.197H690.982V188.594C690.982 189.872 691.296 190.8 691.922 191.377C692.549 191.947 693.509 192.232 694.803 192.232ZM703.678 192.256C704.467 192.256 705.179 192.151 705.814 191.939C706.449 191.727 707.002 191.438 707.474 191.072C707.946 190.698 708.325 190.283 708.609 189.827C708.902 189.363 709.102 188.883 709.208 188.387L709.232 188.252L706.705 188.265L706.681 188.35C706.575 188.659 706.388 188.948 706.119 189.217C705.859 189.477 705.525 189.689 705.118 189.852C704.719 190.006 704.26 190.083 703.739 190.083C703.023 190.083 702.4 189.929 701.871 189.62C701.35 189.302 700.947 188.847 700.663 188.252C700.386 187.658 700.248 186.942 700.248 186.104V185.066C700.248 184.196 700.39 183.459 700.675 182.857C700.96 182.247 701.35 181.787 701.847 181.478C702.351 181.168 702.921 181.014 703.556 181.014C704.19 181.014 704.748 181.164 705.228 181.465C705.716 181.758 706.099 182.206 706.375 182.808C706.652 183.41 706.791 184.163 706.791 185.066V186.092L708.097 184.346H698.905V186.226H709.378V185.323C709.378 184.029 709.142 182.898 708.67 181.929C708.198 180.953 707.527 180.196 706.656 179.659C705.785 179.122 704.748 178.853 703.543 178.853C702.339 178.853 701.289 179.134 700.394 179.695C699.507 180.257 698.815 181.042 698.319 182.051C697.831 183.06 697.586 184.236 697.586 185.579V185.591C697.586 186.95 697.831 188.13 698.319 189.131C698.807 190.124 699.507 190.893 700.418 191.438C701.33 191.984 702.416 192.256 703.678 192.256Z" fill="#7A7A7A"/>
<path d="M736.834 181.475C736.834 181.6 736.807 181.723 736.753 181.835C736.7 181.948 736.622 182.047 736.525 182.125L731.525 186.15C731.376 186.273 731.189 186.34 730.996 186.34C730.803 186.34 730.616 186.273 730.467 186.15L725.467 181.984C725.297 181.842 725.19 181.639 725.17 181.419C725.149 181.198 725.217 180.979 725.359 180.809C725.5 180.638 725.703 180.531 725.924 180.511C726.144 180.491 726.364 180.559 726.534 180.7L731 184.425L735.467 180.825C735.589 180.723 735.738 180.659 735.896 180.639C736.054 180.619 736.215 180.645 736.358 180.713C736.502 180.781 736.623 180.889 736.708 181.025C736.792 181.16 736.836 181.316 736.834 181.475Z" fill="#7A7A7A"/>
<path d="M968.714 150H981.014V147.139H972.102V141.708H980.526V138.965H972.102V133.837H981.014V130.976H968.714V150ZM987.474 150H991.073L996.004 135.999H992.589L989.333 146.941H989.267L986.011 135.999H982.517L987.474 150ZM1003.23 150.277C1004.14 150.277 1004.96 150.158 1005.67 149.921C1006.38 149.675 1006.99 149.345 1007.51 148.932C1008.03 148.519 1008.44 148.058 1008.75 147.548C1009.06 147.029 1009.27 146.506 1009.39 145.979L1009.41 145.834H1006.35L1006.31 145.926C1006.21 146.234 1006.02 146.524 1005.76 146.796C1005.5 147.069 1005.16 147.293 1004.74 147.469C1004.33 147.636 1003.85 147.719 1003.29 147.719C1002.56 147.719 1001.94 147.561 1001.41 147.245C1000.88 146.919 1000.47 146.454 1000.18 145.847C999.902 145.241 999.761 144.516 999.761 143.672V142.393C999.761 141.514 999.902 140.767 1000.18 140.152C1000.47 139.537 1000.87 139.075 1001.37 138.768C1001.88 138.451 1002.46 138.293 1003.11 138.293C1003.76 138.293 1004.33 138.442 1004.82 138.741C1005.32 139.04 1005.7 139.497 1005.98 140.112C1006.27 140.719 1006.41 141.479 1006.41 142.393V143.659L1007.99 141.615H998.126V143.804H1009.56V142.749C1009.56 141.343 1009.29 140.112 1008.77 139.058C1008.24 138.003 1007.49 137.186 1006.52 136.605C1005.56 136.017 1004.41 135.722 1003.07 135.722C1001.74 135.722 1000.59 136.025 999.603 136.632C998.619 137.229 997.854 138.078 997.309 139.176C996.773 140.275 996.505 141.558 996.505 143.026V143.039C996.505 144.516 996.773 145.799 997.309 146.889C997.845 147.97 998.614 148.805 999.616 149.394C1000.63 149.982 1001.83 150.277 1003.23 150.277ZM1011.72 150H1015V141.879C1015 141.202 1015.12 140.609 1015.37 140.099C1015.63 139.589 1015.99 139.194 1016.45 138.913C1016.92 138.631 1017.46 138.491 1018.09 138.491C1019.03 138.491 1019.73 138.763 1020.2 139.308C1020.66 139.844 1020.89 140.609 1020.89 141.602V150H1024.18V140.943C1024.18 139.317 1023.76 138.042 1022.91 137.12C1022.07 136.188 1020.88 135.722 1019.34 135.722C1018.28 135.722 1017.4 135.946 1016.69 136.395C1015.98 136.843 1015.44 137.44 1015.07 138.188H1015V135.999H1011.72V150ZM1032.06 150.277C1032.4 150.277 1032.71 150.259 1032.98 150.224C1033.27 150.198 1033.5 150.171 1033.7 150.145V147.68C1033.58 147.688 1033.46 147.702 1033.33 147.719C1033.19 147.728 1033.05 147.732 1032.88 147.732C1032.28 147.732 1031.83 147.605 1031.53 147.35C1031.23 147.086 1031.09 146.612 1031.09 145.926V138.53H1033.7V135.999H1031.09V132.466H1027.75V135.999H1025.76V138.53H1027.75V146.216C1027.75 147.649 1028.1 148.686 1028.8 149.328C1029.52 149.96 1030.6 150.277 1032.06 150.277ZM1046.69 150.277C1047.04 150.277 1047.35 150.259 1047.62 150.224C1047.9 150.198 1048.14 150.171 1048.33 150.145V147.68C1048.22 147.688 1048.09 147.702 1047.96 147.719C1047.83 147.728 1047.68 147.732 1047.51 147.732C1046.91 147.732 1046.47 147.605 1046.17 147.35C1045.87 147.086 1045.72 146.612 1045.72 145.926V138.53H1048.33V135.999H1045.72V132.466H1042.38V135.999H1040.39V138.53H1042.38V146.216C1042.38 147.649 1042.74 148.686 1043.44 149.328C1044.15 149.96 1045.24 150.277 1046.69 150.277ZM1052.47 154.654C1053.44 154.654 1054.28 154.518 1054.99 154.245C1055.7 153.981 1056.31 153.542 1056.81 152.927C1057.31 152.32 1057.74 151.503 1058.1 150.475L1063.13 135.999H1059.68L1056.19 147.904L1056.71 147.192H1055.99L1056.5 147.904L1053.02 135.999H1049.44L1054.47 150.013L1054.28 150.593C1054.06 151.182 1053.77 151.582 1053.39 151.793C1053.02 152.013 1052.52 152.123 1051.89 152.123C1051.66 152.123 1051.45 152.109 1051.27 152.083C1051.08 152.065 1050.93 152.043 1050.81 152.017V154.522C1051.01 154.557 1051.26 154.588 1051.56 154.614C1051.86 154.641 1052.16 154.654 1052.47 154.654ZM1064.72 154.627H1068V147.64H1068.07C1068.34 148.185 1068.69 148.655 1069.12 149.051C1069.55 149.446 1070.05 149.75 1070.61 149.96C1071.18 150.171 1071.8 150.277 1072.46 150.277C1073.62 150.277 1074.64 149.982 1075.5 149.394C1076.36 148.805 1077.03 147.97 1077.49 146.889C1077.97 145.799 1078.2 144.507 1078.2 143.013V143C1078.2 141.497 1077.97 140.2 1077.49 139.11C1077.03 138.021 1076.36 137.186 1075.49 136.605C1074.62 136.017 1073.59 135.722 1072.4 135.722C1071.74 135.722 1071.13 135.832 1070.57 136.052C1070.02 136.271 1069.53 136.579 1069.11 136.975C1068.69 137.37 1068.34 137.849 1068.08 138.412H1068V135.999H1064.72V154.627ZM1071.44 147.508C1070.75 147.508 1070.15 147.324 1069.63 146.955C1069.12 146.585 1068.71 146.067 1068.41 145.399C1068.12 144.722 1067.97 143.927 1067.97 143.013V143C1067.97 142.077 1068.12 141.281 1068.41 140.613C1068.71 139.937 1069.12 139.414 1069.63 139.044C1070.15 138.675 1070.75 138.491 1071.44 138.491C1072.13 138.491 1072.74 138.671 1073.25 139.031C1073.77 139.392 1074.17 139.91 1074.45 140.587C1074.73 141.255 1074.87 142.059 1074.87 143V143.013C1074.87 143.936 1074.73 144.735 1074.45 145.412C1074.17 146.08 1073.78 146.599 1073.26 146.968C1072.75 147.328 1072.14 147.508 1071.44 147.508ZM1086.52 150.277C1087.44 150.277 1088.25 150.158 1088.96 149.921C1089.67 149.675 1090.29 149.345 1090.81 148.932C1091.33 148.519 1091.74 148.058 1092.05 147.548C1092.35 147.029 1092.56 146.506 1092.68 145.979L1092.71 145.834H1089.65L1089.61 145.926C1089.5 146.234 1089.32 146.524 1089.05 146.796C1088.79 147.069 1088.45 147.293 1088.04 147.469C1087.63 147.636 1087.14 147.719 1086.59 147.719C1085.86 147.719 1085.23 147.561 1084.7 147.245C1084.18 146.919 1083.77 146.454 1083.48 145.847C1083.2 145.241 1083.06 144.516 1083.06 143.672V142.393C1083.06 141.514 1083.2 140.767 1083.48 140.152C1083.77 139.537 1084.16 139.075 1084.66 138.768C1085.17 138.451 1085.75 138.293 1086.4 138.293C1087.05 138.293 1087.63 138.442 1088.12 138.741C1088.61 139.04 1089 139.497 1089.28 140.112C1089.56 140.719 1089.7 141.479 1089.7 142.393V143.659L1091.28 141.615H1081.42V143.804H1092.85V142.749C1092.85 141.343 1092.59 140.112 1092.06 139.058C1091.53 138.003 1090.79 137.186 1089.82 136.605C1088.85 136.017 1087.7 135.722 1086.36 135.722C1085.04 135.722 1083.88 136.025 1082.9 136.632C1081.91 137.229 1081.15 138.078 1080.6 139.176C1080.07 140.275 1079.8 141.558 1079.8 143.026V143.039C1079.8 144.516 1080.07 145.799 1080.6 146.889C1081.14 147.97 1081.91 148.805 1082.91 149.394C1083.92 149.982 1085.12 150.277 1086.52 150.277Z" fill="black"/>
<path d="M967.391 192H970.271L975.24 177.327H976.009V174.385H973.787L967.391 192ZM970.503 187.239H980.049L979.256 185.042H971.285L970.503 187.239ZM980.269 192H983.15L976.753 174.385H975.313V177.327L980.269 192ZM985.042 192H987.691V174.275H985.042V192ZM990.682 192H993.331V174.275H990.682V192Z" fill="#7A7A7A"/>
<path d="M1020.83 181.475C1020.83 181.6 1020.81 181.723 1020.75 181.835C1020.7 181.948 1020.62 182.047 1020.53 182.125L1015.53 186.15C1015.38 186.273 1015.19 186.34 1015 186.34C1014.8 186.34 1014.62 186.273 1014.47 186.15L1009.47 181.984C1009.3 181.842 1009.19 181.639 1009.17 181.419C1009.15 181.198 1009.22 180.979 1009.36 180.809C1009.5 180.638 1009.7 180.531 1009.92 180.511C1010.14 180.491 1010.36 180.559 1010.53 180.7L1015 184.425L1019.47 180.825C1019.59 180.723 1019.74 180.659 1019.9 180.639C1020.05 180.619 1020.21 180.645 1020.36 180.713C1020.5 180.781 1020.62 180.889 1020.71 181.025C1020.79 181.16 1020.84 181.316 1020.83 181.475Z" fill="#7A7A7A"/>
<path d="M216.967 150.33C218.426 150.33 219.735 150.053 220.896 149.499C222.056 148.945 223 148.176 223.73 147.192C224.459 146.199 224.903 145.052 225.062 143.751L225.088 143.619H221.752L221.713 143.738C221.511 144.52 221.19 145.184 220.75 145.729C220.311 146.265 219.771 146.678 219.129 146.968C218.496 147.249 217.775 147.39 216.967 147.39C215.868 147.39 214.91 147.108 214.093 146.546C213.275 145.983 212.643 145.184 212.194 144.146C211.746 143.109 211.522 141.888 211.522 140.481V140.468C211.522 139.053 211.746 137.832 212.194 136.803C212.643 135.775 213.271 134.984 214.08 134.43C214.897 133.868 215.859 133.586 216.967 133.586C217.793 133.586 218.527 133.731 219.168 134.021C219.81 134.312 220.342 134.72 220.764 135.248C221.186 135.775 221.489 136.403 221.673 137.133L221.739 137.37H225.075L225.062 137.251C224.895 135.951 224.446 134.808 223.717 133.824C222.987 132.831 222.042 132.053 220.882 131.49C219.731 130.928 218.426 130.646 216.967 130.646C215.147 130.646 213.57 131.042 212.234 131.833C210.898 132.624 209.865 133.753 209.136 135.221C208.415 136.689 208.055 138.438 208.055 140.468V140.481C208.055 142.512 208.415 144.265 209.136 145.742C209.865 147.209 210.898 148.343 212.234 149.143C213.57 149.934 215.147 150.33 216.967 150.33ZM227.474 150H230.757V135.999H227.474V150ZM229.122 133.982C229.632 133.982 230.062 133.806 230.414 133.455C230.774 133.094 230.955 132.672 230.955 132.189C230.955 131.688 230.774 131.262 230.414 130.91C230.062 130.559 229.632 130.383 229.122 130.383C228.604 130.383 228.164 130.559 227.804 130.91C227.452 131.262 227.276 131.688 227.276 132.189C227.276 132.672 227.452 133.094 227.804 133.455C228.164 133.806 228.604 133.982 229.122 133.982ZM238.812 150.277C239.155 150.277 239.462 150.259 239.735 150.224C240.016 150.198 240.253 150.171 240.447 150.145V147.68C240.333 147.688 240.209 147.702 240.078 147.719C239.946 147.728 239.796 147.732 239.629 147.732C239.032 147.732 238.583 147.605 238.285 147.35C237.986 147.086 237.836 146.612 237.836 145.926V138.53H240.447V135.999H237.836V132.466H234.501V135.999H232.51V138.53H234.501V146.216C234.501 147.649 234.853 148.686 235.556 149.328C236.268 149.96 237.353 150.277 238.812 150.277ZM244.586 154.654C245.562 154.654 246.401 154.518 247.104 154.245C247.816 153.981 248.423 153.542 248.924 152.927C249.425 152.32 249.855 151.503 250.216 150.475L255.252 135.999H251.798L248.304 147.904L248.832 147.192H248.106L248.621 147.904L245.14 135.999H241.554L246.59 150.013L246.393 150.593C246.182 151.182 245.887 151.582 245.509 151.793C245.14 152.013 244.639 152.123 244.006 152.123C243.778 152.123 243.571 152.109 243.387 152.083C243.202 152.065 243.048 152.043 242.925 152.017V154.522C243.127 154.557 243.378 154.588 243.677 154.614C243.976 154.641 244.279 154.654 244.586 154.654Z" fill="black"/>
<path d="M212.859 192.317C214.593 192.317 215.94 191.833 216.9 190.865C217.868 189.888 218.353 188.533 218.353 186.8V174.385H215.618V186.775C215.618 187.776 215.378 188.541 214.898 189.07C214.426 189.599 213.738 189.864 212.835 189.864C212.298 189.864 211.842 189.758 211.468 189.546C211.102 189.335 210.817 189.046 210.613 188.68C210.41 188.313 210.288 187.911 210.247 187.471L210.235 187.361H207.537L207.549 187.508C207.598 188.444 207.834 189.274 208.257 189.998C208.689 190.722 209.291 191.292 210.064 191.707C210.845 192.114 211.777 192.317 212.859 192.317ZM225.03 192.232C225.608 192.232 226.145 192.142 226.641 191.963C227.146 191.776 227.593 191.516 227.984 191.182C228.383 190.848 228.708 190.454 228.96 189.998H229.034V192H231.683V183.125C231.683 182.255 231.471 181.502 231.048 180.867C230.633 180.224 230.043 179.728 229.278 179.378C228.513 179.028 227.601 178.853 226.543 178.853C225.494 178.853 224.586 179.024 223.821 179.366C223.056 179.699 222.454 180.159 222.015 180.745C221.583 181.323 221.331 181.982 221.258 182.723L221.246 182.857H223.748L223.772 182.759C223.886 182.247 224.175 181.832 224.639 181.514C225.103 181.197 225.709 181.038 226.458 181.038C227.288 181.038 227.923 181.242 228.362 181.648C228.81 182.047 229.034 182.601 229.034 183.309V187.178C229.034 187.732 228.887 188.232 228.594 188.68C228.309 189.119 227.919 189.469 227.422 189.729C226.934 189.982 226.377 190.108 225.75 190.108C225.042 190.108 224.472 189.945 224.041 189.62C223.61 189.286 223.394 188.834 223.394 188.265V188.252C223.394 187.699 223.606 187.26 224.029 186.934C224.46 186.6 225.079 186.409 225.884 186.36L230.389 186.08V184.224L225.53 184.505C224.008 184.594 222.828 184.969 221.99 185.628C221.152 186.287 220.733 187.182 220.733 188.313V188.338C220.733 189.111 220.912 189.791 221.27 190.376C221.636 190.962 222.141 191.418 222.784 191.744C223.435 192.069 224.183 192.232 225.03 192.232ZM234.502 192H237.164V179.109H234.502V192ZM235.833 177.071C236.272 177.071 236.643 176.92 236.944 176.619C237.245 176.318 237.396 175.956 237.396 175.533C237.396 175.101 237.245 174.739 236.944 174.446C236.643 174.145 236.272 173.995 235.833 173.995C235.402 173.995 235.035 174.145 234.734 174.446C234.433 174.739 234.283 175.101 234.283 175.533C234.283 175.956 234.433 176.318 234.734 176.619C235.035 176.92 235.402 177.071 235.833 177.071ZM240.02 196.297H242.669V189.852H242.754C243.007 190.34 243.332 190.767 243.731 191.133C244.13 191.491 244.59 191.768 245.11 191.963C245.639 192.151 246.209 192.244 246.819 192.244C247.902 192.244 248.842 191.976 249.639 191.438C250.437 190.893 251.055 190.12 251.495 189.119C251.942 188.118 252.166 186.934 252.166 185.567V185.542C252.166 184.175 251.946 182.991 251.507 181.99C251.067 180.989 250.441 180.216 249.627 179.671C248.821 179.126 247.873 178.853 246.783 178.853C246.172 178.853 245.607 178.955 245.086 179.158C244.573 179.354 244.122 179.63 243.731 179.988C243.34 180.346 243.015 180.782 242.754 181.294H242.669V179.109H240.02V196.297ZM246.075 189.974C245.399 189.974 244.805 189.795 244.292 189.437C243.788 189.07 243.389 188.558 243.096 187.898C242.803 187.231 242.657 186.454 242.657 185.567V185.555C242.657 184.651 242.799 183.87 243.084 183.211C243.377 182.552 243.78 182.039 244.292 181.673C244.805 181.307 245.399 181.124 246.075 181.124C246.775 181.124 247.377 181.303 247.881 181.661C248.386 182.011 248.777 182.519 249.053 183.187C249.33 183.846 249.468 184.631 249.468 185.542V185.567C249.468 186.47 249.33 187.251 249.053 187.911C248.785 188.57 248.394 189.078 247.881 189.437C247.377 189.795 246.775 189.974 246.075 189.974ZM258.733 192.256C259.71 192.256 260.524 192.057 261.175 191.658C261.834 191.251 262.33 190.718 262.664 190.059H262.75V192H265.398V179.109H262.75V186.629C262.75 187.296 262.623 187.882 262.371 188.387C262.119 188.891 261.761 189.282 261.297 189.559C260.841 189.835 260.3 189.974 259.673 189.974C258.746 189.974 258.058 189.713 257.61 189.192C257.163 188.672 256.939 187.919 256.939 186.934V179.109H254.278V187.459C254.278 188.444 254.453 189.298 254.803 190.022C255.153 190.739 255.657 191.292 256.316 191.683C256.984 192.065 257.789 192.256 258.733 192.256ZM268.169 192H270.818V184.31C270.818 183.675 270.932 183.13 271.16 182.674C271.396 182.218 271.726 181.872 272.149 181.636C272.58 181.392 273.085 181.27 273.663 181.27C273.923 181.27 274.159 181.286 274.371 181.319C274.59 181.343 274.761 181.376 274.883 181.417V178.963C274.778 178.938 274.639 178.914 274.468 178.89C274.306 178.865 274.126 178.853 273.931 178.853C273.182 178.853 272.54 179.069 272.002 179.5C271.473 179.931 271.107 180.521 270.904 181.27H270.818V179.109H268.169V192Z" fill="#7A7A7A"/>
<path d="M301.834 181.475C301.834 181.6 301.807 181.723 301.753 181.835C301.7 181.948 301.622 182.047 301.525 182.125L296.525 186.15C296.376 186.273 296.189 186.34 295.996 186.34C295.803 186.34 295.616 186.273 295.467 186.15L290.467 181.984C290.297 181.842 290.19 181.639 290.17 181.419C290.149 181.198 290.217 180.979 290.359 180.809C290.5 180.638 290.703 180.531 290.924 180.511C291.144 180.491 291.364 180.559 291.534 180.7L296 184.425L300.467 180.825C300.589 180.723 300.738 180.659 300.896 180.639C301.054 180.619 301.215 180.645 301.358 180.713C301.502 180.781 301.623 180.889 301.708 181.025C301.792 181.16 301.836 181.316 301.834 181.475Z" fill="#7A7A7A"/>
<rect x="1322" y="127" width="210" height="60" rx="10" fill="#FF8D29"/>
<path d="M1385.02 161.395C1386.83 158.918 1387.64 155.846 1387.29 152.795C1386.94 149.744 1385.45 146.938 1383.12 144.939C1380.79 142.94 1377.79 141.895 1374.72 142.013C1371.65 142.131 1368.74 143.404 1366.56 145.577C1364.39 147.749 1363.12 150.662 1363.01 153.731C1362.89 156.8 1363.94 159.8 1365.94 162.131C1367.94 164.461 1370.75 165.95 1373.8 166.3C1376.85 166.649 1379.92 165.834 1382.4 164.017H1382.39C1382.45 164.092 1382.51 164.163 1382.58 164.232L1389.8 171.451C1390.15 171.803 1390.63 172.001 1391.12 172.001C1391.62 172.001 1392.1 171.804 1392.45 171.452C1392.8 171.1 1393 170.623 1393 170.126C1393 169.629 1392.8 169.152 1392.45 168.8L1385.23 161.581C1385.16 161.513 1385.09 161.451 1385.02 161.394V161.395ZM1385.5 154.188C1385.5 155.542 1385.23 156.883 1384.71 158.134C1384.2 159.386 1383.44 160.522 1382.48 161.48C1381.52 162.438 1380.38 163.197 1379.13 163.715C1377.88 164.234 1376.54 164.5 1375.19 164.5C1373.83 164.5 1372.49 164.234 1371.24 163.715C1369.99 163.197 1368.85 162.438 1367.9 161.48C1366.94 160.522 1366.18 159.386 1365.66 158.134C1365.14 156.883 1364.87 155.542 1364.87 154.188C1364.87 151.453 1365.96 148.83 1367.9 146.896C1369.83 144.962 1372.45 143.875 1375.19 143.875C1377.92 143.875 1380.55 144.962 1382.48 146.896C1384.41 148.83 1385.5 151.453 1385.5 154.188V154.188Z" fill="white"/>
<path d="M1420.7 166.317C1422.09 166.317 1423.29 166.102 1424.29 165.67C1425.3 165.239 1426.07 164.629 1426.61 163.839C1427.16 163.042 1427.43 162.106 1427.43 161.032V161.02C1427.43 159.669 1427.01 158.603 1426.18 157.821C1425.36 157.032 1424.04 156.446 1422.22 156.063L1420.3 155.648C1419.19 155.412 1418.38 155.087 1417.87 154.672C1417.36 154.249 1417.1 153.708 1417.1 153.048V153.036C1417.1 152.515 1417.25 152.064 1417.54 151.681C1417.83 151.291 1418.25 150.989 1418.79 150.778C1419.32 150.558 1419.95 150.448 1420.67 150.448C1421.37 150.448 1421.98 150.554 1422.51 150.766C1423.05 150.977 1423.48 151.278 1423.8 151.669C1424.13 152.051 1424.33 152.515 1424.41 153.061L1424.43 153.219H1427.1L1427.09 153.024C1427.02 152.047 1426.72 151.189 1426.17 150.448C1425.63 149.7 1424.89 149.118 1423.95 148.703C1423.02 148.279 1421.94 148.068 1420.71 148.068C1419.47 148.068 1418.37 148.284 1417.41 148.715C1416.45 149.146 1415.69 149.744 1415.15 150.509C1414.6 151.266 1414.33 152.149 1414.32 153.158V153.17C1414.32 154.472 1414.74 155.53 1415.58 156.344C1416.42 157.15 1417.71 157.736 1419.45 158.102L1421.36 158.517C1422.53 158.769 1423.37 159.107 1423.88 159.53C1424.39 159.945 1424.65 160.507 1424.65 161.215V161.227C1424.65 161.772 1424.49 162.248 1424.17 162.655C1423.86 163.062 1423.42 163.38 1422.84 163.607C1422.27 163.827 1421.59 163.937 1420.81 163.937C1420.03 163.937 1419.34 163.831 1418.73 163.62C1418.12 163.4 1417.64 163.095 1417.27 162.704C1416.91 162.313 1416.68 161.85 1416.6 161.312L1416.58 161.154H1413.9L1413.92 161.337C1413.99 162.354 1414.31 163.237 1414.89 163.986C1415.47 164.735 1416.25 165.312 1417.24 165.719C1418.23 166.118 1419.38 166.317 1420.7 166.317ZM1435.22 166.256C1436.01 166.256 1436.72 166.151 1437.35 165.939C1437.99 165.727 1438.54 165.438 1439.01 165.072C1439.49 164.698 1439.86 164.283 1440.15 163.827C1440.44 163.363 1440.64 162.883 1440.75 162.387L1440.77 162.252L1438.24 162.265L1438.22 162.35C1438.11 162.659 1437.93 162.948 1437.66 163.217C1437.4 163.477 1437.06 163.689 1436.66 163.852C1436.26 164.006 1435.8 164.083 1435.28 164.083C1434.56 164.083 1433.94 163.929 1433.41 163.62C1432.89 163.302 1432.49 162.847 1432.2 162.252C1431.92 161.658 1431.79 160.942 1431.79 160.104V159.066C1431.79 158.196 1431.93 157.459 1432.21 156.857C1432.5 156.247 1432.89 155.787 1433.39 155.478C1433.89 155.168 1434.46 155.014 1435.09 155.014C1435.73 155.014 1436.29 155.164 1436.77 155.465C1437.26 155.758 1437.64 156.206 1437.91 156.808C1438.19 157.41 1438.33 158.163 1438.33 159.066V160.092L1439.64 158.346H1430.44V160.226H1440.92V159.323C1440.92 158.029 1440.68 156.898 1440.21 155.929C1439.74 154.953 1439.07 154.196 1438.2 153.659C1437.32 153.122 1436.29 152.853 1435.08 152.853C1433.88 152.853 1432.83 153.134 1431.93 153.695C1431.05 154.257 1430.35 155.042 1429.86 156.051C1429.37 157.06 1429.13 158.236 1429.13 159.579V159.591C1429.13 160.95 1429.37 162.13 1429.86 163.131C1430.35 164.124 1431.05 164.893 1431.96 165.438C1432.87 165.984 1433.96 166.256 1435.22 166.256ZM1446.85 166.232C1447.43 166.232 1447.97 166.142 1448.46 165.963C1448.97 165.776 1449.41 165.516 1449.8 165.182C1450.2 164.848 1450.53 164.454 1450.78 163.998H1450.85V166H1453.5V157.125C1453.5 156.255 1453.29 155.502 1452.87 154.867C1452.45 154.224 1451.86 153.728 1451.1 153.378C1450.33 153.028 1449.42 152.853 1448.36 152.853C1447.31 152.853 1446.41 153.024 1445.64 153.366C1444.88 153.699 1444.27 154.159 1443.83 154.745C1443.4 155.323 1443.15 155.982 1443.08 156.723L1443.07 156.857H1445.57L1445.59 156.759C1445.71 156.247 1446 155.832 1446.46 155.514C1446.92 155.197 1447.53 155.038 1448.28 155.038C1449.11 155.038 1449.74 155.242 1450.18 155.648C1450.63 156.047 1450.85 156.601 1450.85 157.309V161.178C1450.85 161.732 1450.71 162.232 1450.41 162.68C1450.13 163.119 1449.74 163.469 1449.24 163.729C1448.75 163.982 1448.2 164.108 1447.57 164.108C1446.86 164.108 1446.29 163.945 1445.86 163.62C1445.43 163.286 1445.21 162.834 1445.21 162.265V162.252C1445.21 161.699 1445.43 161.26 1445.85 160.934C1446.28 160.6 1446.9 160.409 1447.7 160.36L1452.21 160.08V158.224L1447.35 158.505C1445.83 158.594 1444.65 158.969 1443.81 159.628C1442.97 160.287 1442.55 161.182 1442.55 162.313V162.338C1442.55 163.111 1442.73 163.791 1443.09 164.376C1443.46 164.962 1443.96 165.418 1444.6 165.744C1445.26 166.069 1446 166.232 1446.85 166.232ZM1456.23 166H1458.87V158.31C1458.87 157.675 1458.99 157.13 1459.22 156.674C1459.45 156.218 1459.78 155.872 1460.2 155.636C1460.64 155.392 1461.14 155.27 1461.72 155.27C1461.98 155.27 1462.21 155.286 1462.43 155.319C1462.65 155.343 1462.82 155.376 1462.94 155.417V152.963C1462.83 152.938 1462.69 152.914 1462.52 152.89C1462.36 152.865 1462.18 152.853 1461.99 152.853C1461.24 152.853 1460.6 153.069 1460.06 153.5C1459.53 153.931 1459.16 154.521 1458.96 155.27H1458.87V153.109H1456.23V166ZM1469.71 166.256C1470.76 166.256 1471.68 166.057 1472.47 165.658C1473.26 165.259 1473.9 164.718 1474.38 164.035C1474.87 163.351 1475.16 162.582 1475.26 161.728L1475.27 161.642H1472.73L1472.7 161.74C1472.54 162.431 1472.21 162.989 1471.7 163.412C1471.2 163.827 1470.54 164.035 1469.73 164.035C1469.04 164.035 1468.44 163.86 1467.93 163.51C1467.42 163.152 1467.02 162.639 1466.74 161.972C1466.45 161.304 1466.31 160.499 1466.31 159.555V159.542C1466.31 158.623 1466.45 157.829 1466.72 157.162C1467.01 156.495 1467.4 155.978 1467.91 155.612C1468.42 155.246 1469.02 155.062 1469.71 155.062C1470.58 155.062 1471.26 155.29 1471.75 155.746C1472.25 156.202 1472.57 156.747 1472.7 157.382L1472.73 157.479H1475.26L1475.24 157.382C1475.16 156.568 1474.89 155.819 1474.44 155.136C1473.98 154.452 1473.35 153.903 1472.55 153.488C1471.75 153.065 1470.8 152.853 1469.69 152.853C1468.46 152.853 1467.39 153.126 1466.48 153.671C1465.57 154.208 1464.86 154.977 1464.35 155.978C1463.85 156.979 1463.6 158.159 1463.6 159.518V159.542C1463.6 160.91 1463.85 162.098 1464.34 163.107C1464.84 164.108 1465.55 164.885 1466.47 165.438C1467.39 165.984 1468.47 166.256 1469.71 166.256ZM1477.4 166H1480.05V158.517C1480.05 157.842 1480.18 157.252 1480.43 156.747C1480.68 156.234 1481.04 155.836 1481.49 155.551C1481.95 155.266 1482.48 155.124 1483.09 155.124C1484.02 155.124 1484.74 155.421 1485.24 156.015C1485.75 156.601 1486 157.427 1486 158.493V166H1488.65V157.98C1488.65 156.938 1488.46 156.035 1488.09 155.27C1487.71 154.505 1487.18 153.911 1486.5 153.488C1485.82 153.065 1485.02 152.853 1484.09 152.853C1483.13 152.853 1482.32 153.061 1481.64 153.476C1480.97 153.882 1480.47 154.46 1480.13 155.209H1480.05V148.275H1477.4V166Z" fill="white"/>
</g>
<defs>
<filter id="filter0_d_68_247" x="0" y="0" width="1664" height="314" filterUnits="userSpaceOnUse" color-interpolation-filters="sRGB">
<feFlood flood-opacity="0" result="BackgroundImageFix"/>
<feColorMatrix in="SourceAlpha" type="matrix" values="0 0 0 0 0 0 0 0 0 0 0 0 0 0 0 0 0 0 127 0" result="hardAlpha"/>
<feOffset/>
<feGaussianBlur stdDeviation="41"/>
<feComposite in2="hardAlpha" operator="out"/>
<feColorMatrix type="matrix" values="0 0 0 0 0 0 0 0 0 0 0 0 0 0 0 0 0 0 0.05 0"/>
<feBlend mode="normal" in2="BackgroundImageFix" result="effect1_dropShadow_68_247"/>
<feBlend mode="normal" in="SourceGraphic" in2="effect1_dropShadow_68_247" result="shape"/>
</filter>
</defs>
</svg>
