<svg width="478" height="490" viewBox="0 0 478 490" fill="none" xmlns="http://www.w3.org/2000/svg">
<path d="M-75.9102 414.985C-88.874 385.966 -104.436 346.963 -95.8776 318.723C-87.3348 290.556 -80.4637 275.839 -72.5118 251.866C-64.4833 227.744 -47.3609 209.88 -1.4527 202.206C43.489 194.695 72.3593 215.507 90.7884 228.302C109.217 241.097 131.89 250.422 179.184 248.284C226.165 246.176 241.918 246.347 255.26 242.5C268.602 238.654 287.973 230.893 268.16 196.886C248.144 162.596 245.796 153.069 240.796 141.178C235.984 129.599 230.823 111.368 200.651 103.547C169.406 95.3436 150.629 89.3677 134.965 74.0372" stroke="#FFBF00" stroke-width="0.1"/>
<path d="M-70.2666 415.548C-78.6266 394.571 -89.9414 367.793 -91.2274 343.872C-91.6735 335.584 -90.9142 327.638 -88.4122 320.396C-78.7338 292.36 -73.8613 276.793 -67.4494 252.504C-59.4218 222.243 -42.0581 210.075 2.88931 202.357C47.4426 194.7 77.4014 222.119 94.9074 232.906C114.888 245.21 132.088 252.736 186.333 251.056C234.345 249.568 245.772 249.513 259.094 245.625C272.534 241.699 290.903 231.789 271.928 196.794C253.702 163.308 252.753 153.223 247.934 141.645C242.785 129.528 240.181 108.34 205.838 100.956C174.678 94.273 153.357 88.0771 139.012 74.6915" stroke="#FFBF00" stroke-width="0.2"/>
<path d="M-64.9346 416.894C-71.4368 387.965 -91.7295 353.836 -82.3075 323.877C-73.5415 295.957 -65.8986 280.749 -62.9478 254.636C-59.2034 223.01 -39.9752 209.838 4.40775 202.495C47.4653 195.358 78.796 225.025 96.7064 236.305C118.908 250.291 134.65 255.221 187.46 253.976C234.849 252.852 239.625 257.478 262.612 251.111C275.82 247.453 293.687 232.318 277.167 199.44C262.523 170.328 258.854 155.267 255.329 143.215C246.75 113.341 240.681 105.108 206.656 97.7179C175.851 91.0451 157.375 87.4462 144.352 75.7331" stroke="#FFBF00" stroke-width="0.297129"/>
<path d="M-58.5049 418.639C-60.7284 397.979 -70.4007 378.986 -75.3341 360.61C-78.3783 349.271 -79.6189 338.168 -76.1925 327.053C-67.5582 299.102 -60.2302 286.687 -58.165 260.431C-55.5208 227.776 -48.6349 211.952 4.39613 202.81C46.7668 195.506 80.0256 228.253 98.5777 239.545C106.529 244.238 113.058 247.657 119.337 250.162C136.717 257.095 152.181 257.021 190.582 257.581C236.913 258.234 241.181 263.581 264.803 256.961C277.969 253.232 297.947 237.791 281.75 203.981C268.101 175.491 266.051 158.97 262.672 147.181C254.167 117.413 254.709 103.523 216.118 96.3498C187.192 90.9808 158.655 85.3823 148.346 75.8279" stroke="#FFBF00" stroke-width="0.396172"/>
<path d="M-52.2705 419.475C-51.0881 402.432 -57.6538 388.04 -63.2948 373.709C-68.5283 360.412 -72.9642 347.166 -69.6758 331.904C-63.5384 303.739 -54.0695 293.578 -53.1334 266.712C-51.9459 229.596 -53.745 213.206 4.69688 203.35C39.1058 197.551 70.8827 221.458 91.0762 236.331C95.7671 239.785 99.8323 242.753 103.161 244.747C107.745 247.439 112.041 249.609 116.396 251.379C133.906 258.497 152.356 259.142 194.301 261.22C238.988 263.336 243.507 269.96 268.267 263.02C281.448 259.329 301.108 239.73 286.999 210.354C273.328 181.911 273.631 165.369 270.691 152.746C261.687 113.224 260.292 99.4458 220.878 93.2155C192.473 88.7212 170.555 87.9197 148.975 74.169" stroke="#FFBF00" stroke-width="0.495215"/>
<path d="M-46.5635 422.002C-41.6558 405.835 -47.553 391.721 -53.5372 377.204C-58.7892 364.464 -64.1082 351.413 -62.2501 336.39C-58.6415 307.969 -47.2206 292.337 -47.6095 268.167C-48.4944 226.971 -50.8839 213.094 8.97146 203.226C30.107 199.737 50.8384 209.841 68.6202 221.644C84.835 232.405 98.5979 244.578 107.982 249.146C145.321 267.326 167.666 259.298 204.954 265.308C247.811 272.086 256.644 277.424 276.257 267.112C287.899 260.99 304.956 239.538 291.395 212.231C276.337 181.948 277.674 171.785 276.491 156.611C273.732 119.204 264.97 93.6853 227.023 90.3838C198.707 87.9196 171.677 85.3298 153.348 73.8685" stroke="#FFBF00" stroke-width="0.594257"/>
<path d="M-40.4512 423.709C-34.1834 408.07 -37.2857 396.32 -42.1314 384.294C-47.1284 371.893 -53.9765 359.2 -54.3125 341.651C-54.8509 312.977 -41.4538 296.75 -41.5097 271.586C-41.3517 230.171 -56.3651 212.941 8.95089 203.971C49.4564 198.38 91.607 243.762 111.665 253.012C125.295 259.283 137.811 262.142 149.976 263.683C169.631 266.172 188.369 265.218 209.412 269.649C250.72 278.297 255.213 284.688 278.065 274.034C290.091 268.427 310.218 241.905 297.879 217.496C282.175 186.552 280.867 179.381 281.604 163.492C284.234 126.301 273.429 92.0246 230.967 87.2724C202.131 84.0726 176.022 85.5932 154.613 71.7171" stroke="#FFBF00" stroke-width="0.6933"/>
<path d="M-34.8135 425.888C-25.9463 410.959 -27.697 399.347 -32.1333 387.459C-36.9871 374.453 -45.0575 361.118 -45.9598 342.75C-47.2598 313.904 -35.0755 298.611 -35.6517 274.921C-36.6587 233.447 -56.7474 213.55 9.22133 203.903C50.1496 197.876 89.6185 244.876 113.022 255.422C131.838 263.887 148.389 266.036 164.756 267.421C179.663 268.683 194.419 269.311 210.594 273.5C251.433 283.884 257.812 294.131 281.052 279.606C292.035 272.742 316.248 247.497 302.741 219.628C287.629 188.342 283.978 184.341 285.568 167.178C287.446 150.36 290.218 131.555 280.975 114.543C270.36 95.0112 259.89 88.9946 235.641 85.1536C207.574 80.686 180.036 85.5929 157.94 71.3519" stroke="#FFBF00" stroke-width="0.792343"/>
<path d="M-30.1367 428.289C-18.2401 414.156 -18.1719 404.047 -22.1212 391.527C-25.6226 380.425 -32.2827 367.427 -36.6539 348.048C-42.8502 320.929 -30.1433 308.603 -29.7174 279.003C-28.9839 237.546 -58.5159 213.122 8.84557 203.445C49.0479 197.668 92.0301 249.445 116.116 258.84C133.684 265.608 149.125 267.946 163.542 269.409C181.83 271.265 198.465 271.715 215.696 278.018C255.185 292.264 260.117 301.07 283.353 286.548C294.335 279.685 320.14 251.147 309.902 226.118C302.533 208.149 295.952 198.776 291.974 191.073C288.928 185.177 287.406 180.259 288.224 173.213C290.232 156.395 297.903 133.683 291.289 119.682C281.89 99.787 266.901 85.9679 245.054 83.2629C215.48 79.6065 177.422 82.9119 160.879 70.4006" stroke="#FFBF00" stroke-width="0.891386"/>
<path d="M-25.0791 430.65C-8.98869 414.286 -8.67735 402.425 -13.4698 387.983C-16.7771 378.015 -22.5161 366.818 -27.1761 352.061C-35.6553 324.977 -26.5519 313.003 -23.5453 283.963C-19.2738 242.752 -59.967 212.65 6.5547 203.091C29.9889 199.718 54.0444 215.496 75.4934 231.735C91.9057 244.161 106.792 256.855 118.706 261.446C133.65 267.256 147.543 269.531 160.777 270.982C181.948 273.303 201.435 273.521 220.851 282.743C257.448 300.123 261.418 306.447 286.731 292.215C298.098 285.791 324.93 256.749 317.006 231.409C307.613 201.001 291.45 194.914 291.404 175.829C291.38 158.802 306.429 133.449 298.38 117.187C288.592 97.4066 268.967 82.5288 246.968 79.8328C217.397 76.2008 180.735 81.953 164.022 69.3811" stroke="#FFBF00" stroke-width="0.990429"/>
<path d="M-20.8037 432.382C-8.09046 423.846 -2.4246 415.955 -1.66937 406.197C-0.748275 394.295 -7.13501 379.617 -16.9516 357.607C-26.6687 335.882 -23.6803 319.796 -17.514 289.762C-9.20669 249.316 -60.4971 212.93 5.70704 203.373C28.6359 200.041 53.4077 215.507 75.7325 231.955C94.0578 245.457 110.733 259.621 123.387 264.593C161.44 279.295 188.286 268.609 223.98 287.382C260.751 306.512 264.035 312.296 289.921 297.791C302.127 290.952 329.29 259.075 323.483 235.965C315.954 204.989 293.763 193.388 293.934 174.317C294.093 157.28 315.971 129.666 305.369 114.38C290.487 92.9249 269.258 80.0069 249.239 77.489C218.176 73.5769 180.55 78.8135 166.992 68.6935" stroke="#FFBF00" stroke-width="0.990429"/>
<path d="M-15.873 434.94C1.61515 425.142 8.72826 414.361 8.39531 401.233C8.11925 390.326 2.70292 377.798 -6.17125 362.865C-16.8592 344.885 -19.101 324.887 -12.7373 299.923C-5.48972 271.577 -17.609 250.492 -22.959 234.83C-28.2569 219.319 -26.9164 209.127 6.45167 202.469C30.0635 197.711 55.0194 216.031 78.7155 234.805C97.0183 249.306 114.57 264.079 130.171 268.697C168.148 279.719 194.535 271.662 228.811 292.976C261.823 313.36 269.221 316.7 293.666 303.155C306.053 296.257 331.049 267.872 329.999 244.117C328.808 213.086 295.553 194.53 296.762 174.323C297.893 156.012 321.522 127.446 312.287 111.709C305.616 100.341 283.437 86.6274 273.791 81.1937C248.482 66.7241 187.203 79.5806 169.332 67.4841" stroke="#FFBF00" stroke-width="0.951551"/>
<path d="M-11.3008 437.388C11.2666 427.064 19.0613 415.034 18.3628 401.101C17.8143 390.168 12.0382 378.064 4.06574 364.693C-6.64532 346.724 -13.5297 330.01 -6.53034 302.695C1.3512 271.855 -13.8074 248.771 -19.9869 232.22C-25.5418 217.343 -23.8422 207.745 8.36591 202.536C30.6136 198.908 50.7454 211.944 70.1454 227.705C90.7655 244.457 110.56 264.286 131.192 270.453C169.212 281.736 195.311 272.028 231.863 297.331C248.643 308.889 259.4 314.613 269.438 315.581C278.332 316.438 286.661 313.561 298.112 307.698C310.479 301.361 332.107 279.607 335.835 248.666C339.64 217.538 297.219 191.874 299.316 171.954C301.488 151.309 329.782 127.517 319.753 110.115C313.183 98.7137 287.951 85.9545 278.624 80.1078C267.103 72.9133 246.543 71.7341 226.267 71.4321C202.97 71.0845 180.047 71.8944 171.646 66.0602" stroke="#FFBF00" stroke-width="0.951551"/>
<path d="M-6.2002 439.575C19.3628 430.532 28.6803 418.519 28.6121 404.334C28.5575 392.989 22.5005 380.255 13.9502 366.541C2.84436 348.727 -6.82116 332.495 -0.908204 305.059C5.46237 275.457 -2.51407 258.574 -11.9328 241.206C-22.2512 221.726 -25.9546 204.332 8.9277 202.747C31.8856 201.633 50.6184 212.656 68.1591 226.39C90.4004 243.803 110.726 265.573 135.317 272.476C173.597 283.216 196.042 273.669 233.897 301.08C264.561 323.192 280.589 324.267 304.954 311.787C317.602 305.313 337.032 284.039 341.762 252.66C344.745 232.883 331.571 216.161 319.606 201.774C310.025 190.252 301.218 180.228 302.106 171.332C304.178 150.692 337.585 124.443 326.673 107.086C319.619 95.8669 291.335 84.056 282.029 78.192C270.886 71.1505 251.224 69.6534 231.388 69.2736C206.111 68.7892 180.55 70.1202 171.969 64.1024" stroke="#FFBF00" stroke-width="0.951551"/>
<path d="M-3.33696 442.603C28.72 433.32 39.4689 420.381 38.5597 404.61C37.9897 394.732 32.8451 383.742 25.4972 371.843C14.4746 353.994 2.37355 338.47 4.40506 312.193C6.73088 282.019 10.1386 271.751 -2.35823 249.552C-14.7247 227.252 -29.8374 205.23 8.17077 201.483C38.7224 198.467 60.5624 219.031 82.4844 238.806C97.3829 252.246 112.321 265.322 130.056 270.385C168.785 281.577 204.435 277.645 239.377 307.822C259.048 324.781 284.13 328.902 312.523 315.921C323.854 310.739 339.728 291.928 347.022 260.072C352.587 235.841 337.512 216.586 323.834 200.561C313.334 188.262 303.658 177.866 304.77 168.586C306.767 151.524 345.173 121.047 334.218 103.836C327.287 92.9296 297.474 84.3585 285.181 76.1923C272.827 67.8773 249.69 67.1421 227.553 67.2258C204.986 67.3107 183.459 68.2466 175.452 62.8715" stroke="#FFBF00" stroke-width="0.951551"/>
<path d="M1.33715 445.379C37.7313 436.258 50.661 422.451 48.6427 404.305C47.5702 394.663 42.2772 383.795 34.0412 371.754C22.0756 354.292 8.1677 334.027 10.8946 309.473C14.0592 281.237 14.6115 267.545 2.51795 249.013C-11.4898 227.264 -27.3042 203.301 11.6411 201.017C36.231 199.528 53.745 211.683 70.0311 226.381C88.2176 242.796 104.873 262.383 128.135 269.685C167.027 282.307 206.065 279.303 240.097 310.294C261.494 329.785 296.349 331.024 321.473 320.002C332.915 314.982 345.654 294.825 353.115 262.359C359.825 233.103 338.334 210.995 322.605 193.278C313.679 183.224 306.609 174.584 307.597 166.854C309.761 149.803 352.209 119.743 341.922 102.084C335.266 90.6516 296.207 80.6819 284.309 72.3036C273.942 64.9692 250.38 64.9716 226.803 65.1957C204.256 65.4078 183.38 66.0776 175.624 60.8926" stroke="#FFBF00" stroke-width="0.951551"/>
<path d="M6.44695 447.494C42.0507 441.161 57.4157 426.875 58.4909 409.627C59.2141 398.028 53.4754 385.09 43.0833 372.33C29.48 355.627 15.924 335.617 16.5497 311.919C17.2972 283.496 21.9825 271.601 8.08558 249.588C-5.64978 227.711 -25.7074 203.556 12.4681 201.31C39.8495 199.589 58.6655 214.797 76.9853 231.779C93.3254 246.927 109.27 263.486 130.546 270.702C167.974 283.312 204.905 280.48 238.15 310.845C261.478 332.124 289.897 330.994 324.073 327.15C338.471 325.285 347.701 301.899 357.77 270.4C367.699 239.226 350.209 217.064 333.657 199.427C321.172 186.123 309.221 175.395 309.968 165.315C311.757 141.4 358.103 118.838 348.383 98.4533C341.687 84.4862 305.615 82.2143 285.514 68.982C275.221 62.0937 253.774 62.572 232.377 63.4513C210.906 64.3346 190.013 66.0786 180.057 61.0644" stroke="#FFBF00" stroke-width="0.951551"/>
<path d="M10.5153 449.962C52.3933 445.988 68.7898 429.569 68.4793 409.881C68.2961 398.28 62.3131 385.544 52.3241 373.551C38.5118 356.961 20.8253 333.56 21.7687 311.87C23.0125 283.461 26.6097 271.484 13.1902 250.717C-0.80067 228.956 -23.6921 203.774 15.3493 201.481C45.6309 199.649 62.7333 217.133 80.872 235.389C93.9057 248.506 107.473 262.022 126.85 269.059C164.124 282.721 204.842 281.927 238.019 312.01C261.074 333.006 292.794 335.683 326.79 331.598C346.335 329.261 351.771 320.227 355.888 305.606C358.279 297.114 360.227 286.738 364.235 274.693C371.601 251.501 365.271 231.903 353.34 215.516C336.661 192.78 310.906 177.64 312.3 163.774C314.818 139.041 365.611 115.279 356.237 97.0812C346.739 78.6462 309.818 80.0319 290.941 68.6753C272.332 57.3541 245.626 60.4848 220.663 62.0648C206.355 62.9849 193.233 63.6461 183.16 60.2099" stroke="#FFBF00" stroke-width="0.951551"/>
<path d="M13.878 452.605C68.799 449.805 83.4624 425.644 75.5097 399.488C72.8659 390.795 67.7244 381.882 60.7323 373.459C46.9553 356.856 28.0747 334.733 27.2475 312.76C26.234 284.312 32.3945 273.103 18.4272 251.279C4.38708 229.536 -21.509 201.308 17.7431 201.025C39.2657 200.975 55.024 213.511 71.6014 228.436C88.2092 243.388 105.64 260.738 130.516 270.23C167.923 284.505 203.773 281.996 240.052 315.196C263.622 336.658 293.916 337.001 329.805 336.527C360.779 336.121 365.897 313.218 365.646 299.387C365.51 284.883 377.154 267.586 371.543 241.531C366.606 218.592 344.535 200.218 329.448 184.531C320.941 175.686 314.655 167.696 314.912 160.224C315.58 141.27 372.512 112.7 362.514 93.4352C353.648 76.3325 313.77 78.2363 291.06 65.5195C272.699 55.1776 247.061 58.3064 223.781 60.2349C209.309 61.4338 195.747 62.1687 185.409 58.9148" stroke="#FFBF00" stroke-width="0.951551"/>
</svg>
