<svg width="305" height="37" viewBox="0 0 305 37" fill="none" xmlns="http://www.w3.org/2000/svg">
<path d="M2.05 4.45L11.8 18L1.65 32.55C1.2 33.2 0.9 33.7 0.7 34.05C0.5 34.4 0.45 34.7 0.45 34.95C0.45 35.65 0.95 36 1.95 36H26.9C27.35 36 27.7 35.9 27.9 35.7C28.1 35.5 28.25 35.15 28.25 34.65V29.1C28.25 28.6 28.1 28.25 27.9 28.05C27.7 27.85 27.35 27.75 26.9 27.75H15.65L21.1 20C21.45 19.5 21.7 19.1 21.85 18.8C21.95 18.5 22.05 18.25 22.05 17.95C22.05 17.7 21.95 17.4 21.8 17.1C21.65 16.8 21.4 16.4 21.05 15.9L16.25 9.25H26.8C27.25 9.25 27.6 9.15 27.8 8.95C28 8.75 28.15 8.4 28.15 7.9V2.35C28.15 1.45 27.7 0.999998 26.8 0.999998H2.35C1.3 0.999998 0.8 1.35 0.8 2.05C0.8 2.35 0.85 2.65 1.05 3C1.25 3.4 1.55 3.85 2.05 4.45ZM30.1711 1.75C30.1711 2.05 30.2211 2.3 30.4211 2.6L46.6711 34.35C47.1711 35.35 47.5711 36 47.9211 36.4C48.2211 36.8 48.6211 36.95 49.0211 36.95C49.4211 36.95 49.8211 36.8 50.1711 36.4C50.5211 36 50.9211 35.35 51.4211 34.35L67.5711 2.6C67.7711 2.25 67.8711 1.95 67.8711 1.7C67.8711 1.25 67.4711 0.999998 66.7211 0.999998H59.9211C59.2711 0.999998 58.7711 1.15 58.4711 1.35C58.1211 1.55 57.7711 2 57.4711 2.6L49.2211 19.75L40.8211 2.6C40.5211 2 40.1711 1.55 39.8711 1.35C39.5211 1.15 39.0211 0.999998 38.4211 0.999998H31.3211C30.5211 0.999998 30.1711 1.25 30.1711 1.75ZM70.6535 4.45L80.4035 18L70.2535 32.55C69.8035 33.2 69.5035 33.7 69.3035 34.05C69.1035 34.4 69.0535 34.7 69.0535 34.95C69.0535 35.65 69.5535 36 70.5535 36H95.5035C95.9535 36 96.3035 35.9 96.5035 35.7C96.7035 35.5 96.8535 35.15 96.8535 34.65V29.1C96.8535 28.6 96.7035 28.25 96.5035 28.05C96.3035 27.85 95.9535 27.75 95.5035 27.75H84.2535L89.7035 20C90.0535 19.5 90.3035 19.1 90.4535 18.8C90.5535 18.5 90.6535 18.25 90.6535 17.95C90.6535 17.7 90.5535 17.4 90.4035 17.1C90.2535 16.8 90.0035 16.4 89.6535 15.9L84.8535 9.25H95.4035C95.8535 9.25 96.2035 9.15 96.4035 8.95C96.6035 8.75 96.7535 8.4 96.7535 7.9V2.35C96.7535 1.45 96.3035 0.999998 95.4035 0.999998H70.9535C69.9035 0.999998 69.4035 1.35 69.4035 2.05C69.4035 2.35 69.4535 2.65 69.6535 3C69.8535 3.4 70.1535 3.85 70.6535 4.45ZM102.286 1.35C102.086 1.55 101.986 1.9 101.986 2.35V34.65C101.986 35.15 102.086 35.5 102.286 35.7C102.486 35.9 102.836 36 103.336 36H110.086C110.586 36 110.936 35.9 111.136 35.7C111.336 35.5 111.486 35.15 111.486 34.65V10.35C111.486 10.05 111.536 9.85 111.636 9.75C111.736 9.65 111.936 9.55 112.286 9.55H122.236C122.536 9.55 122.736 9.65 122.836 9.75C122.936 9.85 122.986 10.05 122.986 10.35V34.65C122.986 35.55 123.436 36 124.386 36H131.186C132.086 36 132.536 35.55 132.536 34.65V2.35C132.536 1.45 132.086 0.999998 131.186 0.999998H103.336C102.836 0.999998 102.486 1.15 102.286 1.35ZM146.285 9.85C146.385 9.95 146.485 10.15 146.485 10.45V34.65C146.485 35.15 146.585 35.5 146.785 35.7C146.985 35.9 147.335 36 147.835 36H154.635C155.085 36 155.435 35.9 155.635 35.7C155.835 35.5 155.985 35.15 155.985 34.65V10.45C155.985 10.15 156.035 9.95 156.135 9.85C156.235 9.75 156.485 9.65 156.785 9.65H164.335C164.785 9.65 165.135 9.55 165.335 9.35C165.535 9.15 165.685 8.8 165.685 8.3V2.35C165.685 1.9 165.535 1.55 165.335 1.35C165.135 1.15 164.785 0.999998 164.335 0.999998H138.135C137.235 0.999998 136.785 1.45 136.785 2.35V8.3C136.785 9.2 137.235 9.65 138.135 9.65H145.685C145.985 9.65 146.185 9.75 146.285 9.85Z" fill="#161E54"/>
<path d="M170.255 1.35C170.055 1.55 169.955 1.9 169.955 2.35V34.65C169.955 35.15 170.055 35.5 170.255 35.7C170.455 35.9 170.805 36 171.305 36H178.055C178.555 36 178.905 35.9 179.105 35.7C179.305 35.5 179.455 35.15 179.455 34.65V9.8C179.455 9.5 179.505 9.25 179.605 9.15C179.705 9.05 179.905 9 180.255 9H182.805C184.955 9 186.555 9.4 187.655 10.2C188.755 11 189.305 12.2 189.305 13.85C189.305 15.45 188.705 16.65 187.605 17.55C186.455 18.45 184.955 19 183.155 19.2C182.455 19.35 182.105 19.6 182.105 19.95C182.105 20.15 182.155 20.4 182.355 20.7L190.105 34.45C190.455 35.1 190.805 35.5 191.155 35.7C191.505 35.9 192.055 36 192.805 36H199.955C200.755 36 201.205 35.75 201.205 35.25C201.205 35.05 201.105 34.75 200.905 34.4L193.355 21.85C197.155 20 199.105 17 199.105 12.8C199.105 8.8 197.805 5.8 195.205 3.9C192.605 2 188.605 0.999998 183.305 0.999998H171.305C170.805 0.999998 170.455 1.15 170.255 1.35ZM204.917 1.35C204.717 1.55 204.617 1.9 204.617 2.35V20.95C204.617 24.45 205.267 27.4 206.567 29.75C207.867 32.1 209.717 33.85 212.117 35C214.467 36.15 217.217 36.7 220.417 36.7C223.667 36.7 226.517 36.15 229.017 34.95C231.517 33.75 233.417 32 234.817 29.6C236.167 27.25 236.867 24.35 236.867 20.85V2.35C236.867 1.9 236.717 1.55 236.517 1.35C236.317 1.15 235.967 0.999998 235.467 0.999998H228.717C228.217 0.999998 227.867 1.15 227.667 1.35C227.467 1.55 227.367 1.9 227.367 2.35V20.15C227.367 22.7 226.767 24.65 225.667 26C224.517 27.35 222.867 28 220.717 28C218.517 28 216.867 27.35 215.767 26C214.667 24.65 214.117 22.7 214.117 20.15V2.35C214.117 1.9 213.967 1.55 213.767 1.35C213.567 1.15 213.217 0.999998 212.717 0.999998H205.967C205.467 0.999998 205.117 1.15 204.917 1.35ZM244.746 24.85C244.346 24.85 244.046 25.1 243.746 25.6L240.896 29.95C240.596 30.4 240.446 30.8 240.446 31.1C240.446 31.35 240.496 31.55 240.646 31.75C240.746 31.95 240.946 32.1 241.246 32.3C242.946 33.7 244.946 34.75 247.146 35.55C249.346 36.35 251.696 36.7 254.296 36.7C257.096 36.7 259.596 36.25 261.746 35.35C263.846 34.45 265.496 33.1 266.696 31.35C267.846 29.65 268.446 27.6 268.446 25.2C268.446 23.25 267.996 21.6 267.146 20.2C266.296 18.8 265.046 17.65 263.396 16.75C261.696 15.85 259.546 15.05 256.946 14.4C255.446 14.05 254.346 13.75 253.646 13.5C252.896 13.25 252.346 12.95 251.996 12.55C251.596 12.2 251.446 11.75 251.446 11.15C251.446 10.45 251.746 9.85 252.446 9.4C253.096 8.95 254.046 8.7 255.246 8.7C257.746 8.7 260.396 9.7 263.096 11.65C263.396 11.95 263.696 12.05 264.046 12.05C264.346 12.05 264.696 11.85 264.996 11.4L267.996 6.8C268.196 6.5 268.346 6.15 268.346 5.8C268.346 5.4 268.146 5.05 267.746 4.75C264.046 1.8 259.846 0.299998 255.146 0.299998C252.496 0.299998 250.146 0.749998 248.146 1.65C246.096 2.55 244.496 3.85 243.346 5.55C242.196 7.25 241.646 9.3 241.646 11.65C241.646 13.7 242.046 15.4 242.896 16.8C243.746 18.2 244.996 19.35 246.596 20.25C248.196 21.15 250.196 21.85 252.696 22.45C254.296 22.85 255.496 23.2 256.296 23.5C257.096 23.8 257.696 24.1 258.096 24.45C258.446 24.85 258.646 25.3 258.646 25.8C258.646 26.6 258.246 27.2 257.496 27.65C256.746 28.1 255.646 28.3 254.196 28.3C252.696 28.3 251.246 28.05 249.796 27.5C248.296 26.95 246.946 26.2 245.746 25.3C245.346 25 244.996 24.85 244.746 24.85ZM273.966 1.35C273.766 1.55 273.666 1.9 273.666 2.35V34.65C273.666 35.15 273.766 35.5 273.966 35.7C274.166 35.9 274.516 36 275.016 36H281.766C282.266 36 282.616 35.9 282.816 35.7C283.016 35.5 283.166 35.15 283.166 34.65V23.3C283.166 23 283.216 22.8 283.316 22.7C283.416 22.6 283.616 22.5 283.966 22.5H294.366C294.666 22.5 294.866 22.6 294.966 22.7C295.066 22.8 295.166 23 295.166 23.3V34.65C295.166 35.55 295.616 36 296.566 36H303.316C304.216 36 304.716 35.55 304.716 34.65V2.35C304.716 1.45 304.216 0.999998 303.316 0.999998H296.566C295.616 0.999998 295.166 1.45 295.166 2.35V13.05C295.166 13.35 295.066 13.6 294.966 13.7C294.866 13.8 294.666 13.85 294.366 13.85H283.966C283.616 13.85 283.416 13.8 283.316 13.7C283.216 13.6 283.166 13.35 283.166 13.05V2.35C283.166 1.9 283.016 1.55 282.816 1.35C282.616 1.15 282.266 0.999998 281.766 0.999998H275.016C274.516 0.999998 274.166 1.15 273.966 1.35Z" fill="#FF8D29"/>
</svg>
