<svg width="718" height="56" viewBox="0 0 718 56" fill="none" xmlns="http://www.w3.org/2000/svg">
<path d="M49.1149 46.125C49.1149 45.75 48.9649 45.3 48.6649 44.85L43.8649 37.95C43.4149 37.35 42.9649 37.05 42.5149 37.05C42.0649 37.05 41.5399 37.275 40.9399 37.725C39.1399 39.075 37.1899 40.125 35.2399 40.875C33.2149 41.625 31.0399 42 28.7899 42C26.0899 42 23.6149 41.4 21.5149 40.2C19.4149 39 17.7649 37.35 16.5649 35.175C15.3649 33.075 14.7649 30.6 14.7649 27.825C14.7649 25.05 15.3649 22.575 16.5649 20.4C17.7649 18.3 19.4149 16.575 21.5149 15.375C23.6149 14.175 26.0899 13.575 28.7899 13.575C32.8399 13.575 36.8899 15 40.7899 17.7C41.3899 18.15 41.9149 18.3 42.2899 18.3C42.8149 18.3 43.3399 18 43.7899 17.325L48.6649 10.425C48.9649 9.975 49.1899 9.525 49.1899 9.075C49.1899 8.625 48.8899 8.1 48.2899 7.575C45.5899 5.325 42.5899 3.6 39.2899 2.325C35.9899 1.125 32.5399 0.449997 28.8649 0.449997C23.3149 0.449997 18.3649 1.65 14.0149 4.05C9.66494 6.45 6.21494 9.675 3.73994 13.875C1.26494 18.075 0.0649414 22.8 0.0649414 28.05C0.0649414 33.15 1.26494 37.8 3.66494 41.925C6.06494 46.05 9.43994 49.275 13.7899 51.6C18.0649 53.925 22.8649 55.05 28.2649 55.05C31.9399 55.05 35.4649 54.45 38.8399 53.175C42.1399 51.975 45.2149 50.25 47.9149 48C48.6649 47.4 49.1149 46.725 49.1149 46.125ZM56.2317 2.025C55.9317 2.325 55.7817 2.85 55.7817 3.525V31.425C55.7817 36.675 56.7567 41.1 58.7067 44.625C60.6567 48.15 63.4317 50.775 67.0317 52.5C70.5567 54.225 74.6817 55.05 79.4817 55.05C84.3567 55.05 88.6317 54.225 92.3817 52.425C96.1317 50.625 98.9817 48 101.082 44.4C103.107 40.875 104.157 36.525 104.157 31.275V3.525C104.157 2.85 103.932 2.325 103.632 2.025C103.332 1.725 102.807 1.5 102.057 1.5H91.9317C91.1817 1.5 90.6567 1.725 90.3567 2.025C90.0567 2.325 89.9067 2.85 89.9067 3.525V30.225C89.9067 34.05 89.0067 36.975 87.3567 39C85.6317 41.025 83.1567 42 79.9317 42C76.6317 42 74.1567 41.025 72.5067 39C70.8567 36.975 70.0317 34.05 70.0317 30.225V3.525C70.0317 2.85 69.8067 2.325 69.5067 2.025C69.2067 1.725 68.6817 1.5 67.9317 1.5H57.8067C57.0567 1.5 56.5317 1.725 56.2317 2.025ZM114.761 2.025C114.461 2.325 114.311 2.85 114.311 3.525V51.975C114.311 52.725 114.461 53.25 114.761 53.55C115.061 53.85 115.586 54 116.336 54H148.361C149.036 54 149.561 53.85 149.861 53.55C150.161 53.25 150.386 52.725 150.386 51.975V43.05C150.386 42.375 150.161 41.85 149.861 41.55C149.561 41.25 149.036 41.025 148.361 41.025H129.761C129.236 41.025 128.936 40.95 128.786 40.8C128.636 40.65 128.561 40.275 128.561 39.825V3.525C128.561 2.85 128.336 2.325 128.036 2.025C127.736 1.725 127.211 1.5 126.461 1.5H116.336C115.586 1.5 115.061 1.725 114.761 2.025ZM163.767 14.775C163.917 14.925 164.067 15.225 164.067 15.675V51.975C164.067 52.725 164.217 53.25 164.517 53.55C164.817 53.85 165.342 54 166.092 54H176.292C176.967 54 177.492 53.85 177.792 53.55C178.092 53.25 178.317 52.725 178.317 51.975V15.675C178.317 15.225 178.392 14.925 178.542 14.775C178.692 14.625 179.067 14.475 179.517 14.475H190.842C191.517 14.475 192.042 14.325 192.342 14.025C192.642 13.725 192.867 13.2 192.867 12.45V3.525C192.867 2.85 192.642 2.325 192.342 2.025C192.042 1.725 191.517 1.5 190.842 1.5H151.542C150.192 1.5 149.517 2.175 149.517 3.525V12.45C149.517 13.8 150.192 14.475 151.542 14.475H162.867C163.317 14.475 163.617 14.625 163.767 14.775ZM199.347 2.025C199.047 2.325 198.897 2.85 198.897 3.525V31.425C198.897 36.675 199.872 41.1 201.822 44.625C203.772 48.15 206.547 50.775 210.147 52.5C213.672 54.225 217.797 55.05 222.597 55.05C227.472 55.05 231.747 54.225 235.497 52.425C239.247 50.625 242.097 48 244.197 44.4C246.222 40.875 247.272 36.525 247.272 31.275V3.525C247.272 2.85 247.047 2.325 246.747 2.025C246.447 1.725 245.922 1.5 245.172 1.5H235.047C234.297 1.5 233.772 1.725 233.472 2.025C233.172 2.325 233.022 2.85 233.022 3.525V30.225C233.022 34.05 232.122 36.975 230.472 39C228.747 41.025 226.272 42 223.047 42C219.747 42 217.272 41.025 215.622 39C213.972 36.975 213.147 34.05 213.147 30.225V3.525C213.147 2.85 212.922 2.325 212.622 2.025C212.322 1.725 211.797 1.5 211.047 1.5H200.922C200.172 1.5 199.647 1.725 199.347 2.025ZM257.876 2.025C257.576 2.325 257.426 2.85 257.426 3.525V51.975C257.426 52.725 257.576 53.25 257.876 53.55C258.176 53.85 258.701 54 259.451 54H269.576C270.326 54 270.851 53.85 271.151 53.55C271.451 53.25 271.676 52.725 271.676 51.975V14.7C271.676 14.25 271.751 13.875 271.901 13.725C272.051 13.575 272.351 13.5 272.876 13.5H276.701C279.926 13.5 282.326 14.1 283.976 15.3C285.626 16.5 286.451 18.3 286.451 20.775C286.451 23.175 285.551 24.975 283.901 26.325C282.176 27.675 279.926 28.5 277.226 28.8C276.176 29.025 275.651 29.4 275.651 29.925C275.651 30.225 275.726 30.6 276.026 31.05L287.651 51.675C288.176 52.65 288.701 53.25 289.226 53.55C289.751 53.85 290.576 54 291.701 54H302.426C303.626 54 304.301 53.625 304.301 52.875C304.301 52.575 304.151 52.125 303.851 51.6L292.526 32.775C298.226 30 301.151 25.5 301.151 19.2C301.151 13.2 299.201 8.7 295.301 5.85C291.401 3 285.401 1.5 277.451 1.5H259.451C258.701 1.5 258.176 1.725 257.876 2.025ZM330.494 1.2C329.894 1.8 329.294 2.775 328.544 4.2L304.619 51.525C304.319 51.975 304.244 52.425 304.244 52.875C304.244 53.625 304.769 54 305.969 54H359.069C360.194 54 360.794 53.625 360.794 52.875C360.794 52.5 360.644 52.05 360.344 51.525L336.419 4.2C335.669 2.775 334.994 1.8 334.394 1.2C333.794 0.599999 333.194 0.299998 332.519 0.299998C331.769 0.299998 331.094 0.599999 330.494 1.2ZM332.219 23.625L340.619 41.625H323.894L332.219 23.625ZM366.128 2.025C365.828 2.325 365.678 2.85 365.678 3.525V51.975C365.678 52.725 365.828 53.25 366.128 53.55C366.428 53.85 366.953 54 367.703 54H399.728C400.403 54 400.928 53.85 401.228 53.55C401.528 53.25 401.753 52.725 401.753 51.975V43.05C401.753 42.375 401.528 41.85 401.228 41.55C400.928 41.25 400.403 41.025 399.728 41.025H381.128C380.603 41.025 380.303 40.95 380.153 40.8C380.003 40.65 379.928 40.275 379.928 39.825V3.525C379.928 2.85 379.703 2.325 379.403 2.025C379.103 1.725 378.578 1.5 377.828 1.5H367.703C366.953 1.5 366.428 1.725 366.128 2.025Z" fill="#FF8D29"/>
<path d="M427.224 6.675L441.849 27L426.624 48.825C425.949 49.8 425.499 50.55 425.199 51.075C424.899 51.6 424.824 52.05 424.824 52.425C424.824 53.475 425.574 54 427.074 54H464.499C465.174 54 465.699 53.85 465.999 53.55C466.299 53.25 466.524 52.725 466.524 51.975V43.65C466.524 42.9 466.299 42.375 465.999 42.075C465.699 41.775 465.174 41.625 464.499 41.625H447.624L455.799 30C456.324 29.25 456.699 28.65 456.924 28.2C457.074 27.75 457.224 27.375 457.224 26.925C457.224 26.55 457.074 26.1 456.849 25.65C456.624 25.2 456.249 24.6 455.724 23.85L448.524 13.875H464.349C465.024 13.875 465.549 13.725 465.849 13.425C466.149 13.125 466.374 12.6 466.374 11.85V3.525C466.374 2.175 465.699 1.5 464.349 1.5H427.674C426.099 1.5 425.349 2.025 425.349 3.075C425.349 3.525 425.424 3.975 425.724 4.5C426.024 5.1 426.474 5.775 427.224 6.675ZM469.406 2.625C469.406 3.075 469.481 3.45 469.781 3.9L494.156 51.525C494.906 53.025 495.506 54 496.031 54.6C496.481 55.2 497.081 55.425 497.681 55.425C498.281 55.425 498.881 55.2 499.406 54.6C499.931 54 500.531 53.025 501.281 51.525L525.506 3.9C525.806 3.375 525.956 2.925 525.956 2.55C525.956 1.875 525.356 1.5 524.231 1.5H514.031C513.056 1.5 512.306 1.725 511.856 2.025C511.331 2.325 510.806 3 510.356 3.9L497.981 29.625L485.381 3.9C484.931 3 484.406 2.325 483.956 2.025C483.431 1.725 482.681 1.5 481.781 1.5H471.131C469.931 1.5 469.406 1.875 469.406 2.625ZM530.129 6.675L544.754 27L529.529 48.825C528.854 49.8 528.404 50.55 528.104 51.075C527.804 51.6 527.729 52.05 527.729 52.425C527.729 53.475 528.479 54 529.979 54H567.404C568.079 54 568.604 53.85 568.904 53.55C569.204 53.25 569.429 52.725 569.429 51.975V43.65C569.429 42.9 569.204 42.375 568.904 42.075C568.604 41.775 568.079 41.625 567.404 41.625H550.529L558.704 30C559.229 29.25 559.604 28.65 559.829 28.2C559.979 27.75 560.129 27.375 560.129 26.925C560.129 26.55 559.979 26.1 559.754 25.65C559.529 25.2 559.154 24.6 558.629 23.85L551.429 13.875H567.254C567.929 13.875 568.454 13.725 568.754 13.425C569.054 13.125 569.279 12.6 569.279 11.85V3.525C569.279 2.175 568.604 1.5 567.254 1.5H530.579C529.004 1.5 528.254 2.025 528.254 3.075C528.254 3.525 528.329 3.975 528.629 4.5C528.929 5.1 529.379 5.775 530.129 6.675ZM577.578 2.025C577.278 2.325 577.128 2.85 577.128 3.525V51.975C577.128 52.725 577.278 53.25 577.578 53.55C577.878 53.85 578.403 54 579.153 54H589.278C590.028 54 590.553 53.85 590.853 53.55C591.153 53.25 591.378 52.725 591.378 51.975V15.525C591.378 15.075 591.453 14.775 591.603 14.625C591.753 14.475 592.053 14.325 592.578 14.325H607.503C607.953 14.325 608.253 14.475 608.403 14.625C608.553 14.775 608.628 15.075 608.628 15.525V51.975C608.628 53.325 609.303 54 610.728 54H620.928C622.278 54 622.953 53.325 622.953 51.975V3.525C622.953 2.175 622.278 1.5 620.928 1.5H579.153C578.403 1.5 577.878 1.725 577.578 2.025ZM643.577 14.775C643.727 14.925 643.877 15.225 643.877 15.675V51.975C643.877 52.725 644.027 53.25 644.327 53.55C644.627 53.85 645.152 54 645.902 54H656.102C656.777 54 657.302 53.85 657.602 53.55C657.902 53.25 658.127 52.725 658.127 51.975V15.675C658.127 15.225 658.202 14.925 658.352 14.775C658.502 14.625 658.877 14.475 659.327 14.475H670.652C671.327 14.475 671.852 14.325 672.152 14.025C672.452 13.725 672.677 13.2 672.677 12.45V3.525C672.677 2.85 672.452 2.325 672.152 2.025C671.852 1.725 671.327 1.5 670.652 1.5H631.352C630.002 1.5 629.327 2.175 629.327 3.525V12.45C629.327 13.8 630.002 14.475 631.352 14.475H642.677C643.127 14.475 643.427 14.625 643.577 14.775ZM682.43 37.275C681.83 37.275 681.38 37.65 680.93 38.4L676.655 44.925C676.205 45.6 675.98 46.2 675.98 46.65C675.98 47.025 676.055 47.325 676.28 47.625C676.43 47.925 676.73 48.15 677.18 48.45C679.73 50.55 682.73 52.125 686.03 53.325C689.33 54.525 692.855 55.05 696.755 55.05C700.955 55.05 704.705 54.375 707.93 53.025C711.08 51.675 713.555 49.65 715.355 47.025C717.08 44.475 717.98 41.4 717.98 37.8C717.98 34.875 717.305 32.4 716.03 30.3C714.755 28.2 712.88 26.475 710.405 25.125C707.855 23.775 704.63 22.575 700.73 21.6C698.48 21.075 696.83 20.625 695.78 20.25C694.655 19.875 693.83 19.425 693.305 18.825C692.705 18.3 692.48 17.625 692.48 16.725C692.48 15.675 692.93 14.775 693.98 14.1C694.955 13.425 696.38 13.05 698.18 13.05C701.93 13.05 705.905 14.55 709.955 17.475C710.405 17.925 710.855 18.075 711.38 18.075C711.83 18.075 712.355 17.775 712.805 17.1L717.305 10.2C717.605 9.75 717.83 9.225 717.83 8.7C717.83 8.1 717.53 7.575 716.93 7.125C711.38 2.7 705.08 0.449997 698.03 0.449997C694.055 0.449997 690.53 1.125 687.53 2.475C684.455 3.825 682.055 5.775 680.33 8.325C678.605 10.875 677.78 13.95 677.78 17.475C677.78 20.55 678.38 23.1 679.655 25.2C680.93 27.3 682.805 29.025 685.205 30.375C687.605 31.725 690.605 32.775 694.355 33.675C696.755 34.275 698.555 34.8 699.755 35.25C700.955 35.7 701.855 36.15 702.455 36.675C702.98 37.275 703.28 37.95 703.28 38.7C703.28 39.9 702.68 40.8 701.555 41.475C700.43 42.15 698.78 42.45 696.605 42.45C694.355 42.45 692.18 42.075 690.005 41.25C687.755 40.425 685.73 39.3 683.93 37.95C683.33 37.5 682.805 37.275 682.43 37.275Z" fill="#161E54"/>
</svg>
