<svg width="869" height="61" viewBox="0 0 869 61" fill="none" xmlns="http://www.w3.org/2000/svg">
<path d="M1.232 2.174C0.904 2.502 0.74 3.076 0.74 3.814V56.786C0.74 57.606 0.904 58.18 1.232 58.508C1.56 58.836 2.134 59 2.954 59H14.024C14.844 59 15.418 58.836 15.746 58.508C16.074 58.18 16.32 57.606 16.32 56.786V16.032C16.32 15.54 16.402 15.13 16.566 14.966C16.73 14.802 17.058 14.72 17.632 14.72H21.814C25.34 14.72 27.964 15.376 29.768 16.688C31.572 18 32.474 19.968 32.474 22.674C32.474 25.298 31.49 27.266 29.686 28.742C27.8 30.218 25.34 31.12 22.388 31.448C21.24 31.694 20.666 32.104 20.666 32.678C20.666 33.006 20.748 33.416 21.076 33.908L33.786 56.458C34.36 57.524 34.934 58.18 35.508 58.508C36.082 58.836 36.984 59 38.214 59H49.94C51.252 59 51.99 58.59 51.99 57.77C51.99 57.442 51.826 56.95 51.498 56.376L39.116 35.794C45.348 32.76 48.546 27.84 48.546 20.952C48.546 14.392 46.414 9.472 42.15 6.356C37.886 3.24 31.326 1.6 22.634 1.6H2.954C2.134 1.6 1.56 1.846 1.232 2.174ZM55.6179 7.258L71.6079 29.48L54.9619 53.342C54.2239 54.408 53.7319 55.228 53.4039 55.802C53.0759 56.376 52.9939 56.868 52.9939 57.278C52.9939 58.426 53.8139 59 55.4539 59H96.3719C97.1099 59 97.6839 58.836 98.0119 58.508C98.3399 58.18 98.5859 57.606 98.5859 56.786V47.684C98.5859 46.864 98.3399 46.29 98.0119 45.962C97.6839 45.634 97.1099 45.47 96.3719 45.47H77.9219L86.8599 32.76C87.4339 31.94 87.8439 31.284 88.0899 30.792C88.2539 30.3 88.4179 29.89 88.4179 29.398C88.4179 28.988 88.2539 28.496 88.0079 28.004C87.7619 27.512 87.3519 26.856 86.7779 26.036L78.9059 15.13H96.2079C96.9459 15.13 97.5199 14.966 97.8479 14.638C98.1759 14.31 98.4219 13.736 98.4219 12.916V3.814C98.4219 2.338 97.6839 1.6 96.2079 1.6H56.1099C54.3879 1.6 53.5679 2.174 53.5679 3.322C53.5679 3.814 53.6499 4.306 53.9779 4.88C54.3059 5.536 54.7979 6.274 55.6179 7.258ZM142.56 30.3C142.232 30.71 142.068 31.284 142.068 32.022V43.01C142.068 43.584 141.904 43.994 141.74 44.24C141.576 44.486 141.248 44.65 140.756 44.814C138.706 45.634 136.164 46.044 133.048 46.044C130.096 46.044 127.554 45.388 125.258 44.076C122.962 42.764 121.24 40.96 120.01 38.582C118.698 36.204 118.124 33.498 118.124 30.464C118.124 27.512 118.698 24.806 119.928 22.428C121.158 20.05 122.962 18.164 125.34 16.852C127.636 15.54 130.424 14.802 133.704 14.802C136.328 14.802 138.788 15.13 141.084 15.786C143.38 16.442 145.594 17.426 147.808 18.656C148.382 19.066 148.956 19.23 149.448 19.23C150.104 19.23 150.678 18.82 151.334 17.836L155.926 10.62C156.336 10.046 156.582 9.472 156.582 8.98C156.582 8.324 156.09 7.586 155.106 6.93C152.154 4.962 148.792 3.322 145.102 2.174C141.412 1.026 137.558 0.451996 133.54 0.451996C127.472 0.451996 121.978 1.764 117.222 4.306C112.466 6.848 108.694 10.374 106.07 14.966C103.364 19.558 102.052 24.888 102.052 30.874C102.052 36.696 103.364 41.78 105.988 46.208C108.612 50.636 112.302 54.08 116.976 56.54C121.65 59 126.898 60.148 132.802 60.148C136.902 60.148 140.756 59.738 144.528 58.754C148.3 57.77 151.99 56.376 155.598 54.572C156.336 54.162 156.828 53.67 157.156 53.178C157.484 52.686 157.648 52.03 157.648 51.128V32.022C157.648 31.284 157.402 30.71 157.074 30.3C156.746 29.972 156.172 29.726 155.434 29.726H144.282C143.462 29.726 142.888 29.972 142.56 30.3ZM168.035 2.174C167.707 2.502 167.543 3.076 167.543 3.814V56.786C167.543 57.606 167.707 58.18 168.035 58.508C168.363 58.836 168.937 59 169.757 59H180.827C181.647 59 182.221 58.836 182.549 58.508C182.877 58.18 183.123 57.606 183.123 56.786V3.814C183.123 3.076 182.877 2.502 182.549 2.174C182.221 1.846 181.647 1.6 180.827 1.6H169.757C168.937 1.6 168.363 1.846 168.035 2.174ZM197.069 40.714C196.413 40.714 195.921 41.124 195.429 41.944L190.755 49.078C190.263 49.816 190.017 50.472 190.017 50.964C190.017 51.374 190.099 51.702 190.345 52.03C190.509 52.358 190.837 52.604 191.329 52.932C194.117 55.228 197.397 56.95 201.005 58.262C204.613 59.574 208.467 60.148 212.731 60.148C217.323 60.148 221.423 59.41 224.949 57.934C228.393 56.458 231.099 54.244 233.067 51.374C234.953 48.586 235.937 45.224 235.937 41.288C235.937 38.09 235.199 35.384 233.805 33.088C232.411 30.792 230.361 28.906 227.655 27.43C224.867 25.954 221.341 24.642 217.077 23.576C214.617 23.002 212.813 22.51 211.665 22.1C210.435 21.69 209.533 21.198 208.959 20.542C208.303 19.968 208.057 19.23 208.057 18.246C208.057 17.098 208.549 16.114 209.697 15.376C210.763 14.638 212.321 14.228 214.289 14.228C218.389 14.228 222.735 15.868 227.163 19.066C227.655 19.558 228.147 19.722 228.721 19.722C229.213 19.722 229.787 19.394 230.279 18.656L235.199 11.112C235.527 10.62 235.773 10.046 235.773 9.472C235.773 8.816 235.445 8.242 234.789 7.75C228.721 2.912 221.833 0.451996 214.125 0.451996C209.779 0.451996 205.925 1.19 202.645 2.666C199.283 4.142 196.659 6.274 194.773 9.062C192.887 11.85 191.985 15.212 191.985 19.066C191.985 22.428 192.641 25.216 194.035 27.512C195.429 29.808 197.479 31.694 200.103 33.17C202.727 34.646 206.007 35.794 210.107 36.778C212.731 37.434 214.699 38.008 216.011 38.5C217.323 38.992 218.307 39.484 218.963 40.058C219.537 40.714 219.865 41.452 219.865 42.272C219.865 43.584 219.209 44.568 217.979 45.306C216.749 46.044 214.945 46.372 212.567 46.372C210.107 46.372 207.729 45.962 205.351 45.06C202.891 44.158 200.677 42.928 198.709 41.452C198.053 40.96 197.479 40.714 197.069 40.714ZM256.769 16.114C256.933 16.278 257.097 16.606 257.097 17.098V56.786C257.097 57.606 257.261 58.18 257.589 58.508C257.917 58.836 258.491 59 259.311 59H270.463C271.201 59 271.775 58.836 272.103 58.508C272.431 58.18 272.677 57.606 272.677 56.786V17.098C272.677 16.606 272.759 16.278 272.923 16.114C273.087 15.95 273.497 15.786 273.989 15.786H286.371C287.109 15.786 287.683 15.622 288.011 15.294C288.339 14.966 288.585 14.392 288.585 13.572V3.814C288.585 3.076 288.339 2.502 288.011 2.174C287.683 1.846 287.109 1.6 286.371 1.6H243.403C241.927 1.6 241.189 2.338 241.189 3.814V13.572C241.189 15.048 241.927 15.786 243.403 15.786H255.785C256.277 15.786 256.605 15.95 256.769 16.114ZM294.01 7.258L310 29.48L293.354 53.342C292.616 54.408 292.124 55.228 291.796 55.802C291.468 56.376 291.386 56.868 291.386 57.278C291.386 58.426 292.206 59 293.846 59H334.764C335.502 59 336.076 58.836 336.404 58.508C336.732 58.18 336.978 57.606 336.978 56.786V47.684C336.978 46.864 336.732 46.29 336.404 45.962C336.076 45.634 335.502 45.47 334.764 45.47H316.314L325.252 32.76C325.826 31.94 326.236 31.284 326.482 30.792C326.646 30.3 326.81 29.89 326.81 29.398C326.81 28.988 326.646 28.496 326.4 28.004C326.154 27.512 325.744 26.856 325.17 26.036L317.298 15.13H334.6C335.338 15.13 335.912 14.966 336.24 14.638C336.568 14.31 336.814 13.736 336.814 12.916V3.814C336.814 2.338 336.076 1.6 334.6 1.6H294.502C292.78 1.6 291.96 2.174 291.96 3.322C291.96 3.814 292.042 4.306 292.37 4.88C292.698 5.536 293.19 6.274 294.01 7.258ZM345.888 2.174C345.56 2.502 345.396 3.076 345.396 3.814V56.786C345.396 57.606 345.56 58.18 345.888 58.508C346.216 58.836 346.79 59 347.61 59H358.68C359.5 59 360.074 58.836 360.402 58.508C360.73 58.18 360.976 57.606 360.976 56.786V16.032C360.976 15.54 361.058 15.13 361.222 14.966C361.386 14.802 361.714 14.72 362.288 14.72H366.47C369.996 14.72 372.62 15.376 374.424 16.688C376.228 18 377.13 19.968 377.13 22.674C377.13 25.298 376.146 27.266 374.342 28.742C372.456 30.218 369.996 31.12 367.044 31.448C365.896 31.694 365.322 32.104 365.322 32.678C365.322 33.006 365.404 33.416 365.732 33.908L378.442 56.458C379.016 57.524 379.59 58.18 380.164 58.508C380.738 58.836 381.64 59 382.87 59H394.596C395.908 59 396.646 58.59 396.646 57.77C396.646 57.442 396.482 56.95 396.154 56.376L383.772 35.794C390.004 32.76 393.202 27.84 393.202 20.952C393.202 14.392 391.07 9.472 386.806 6.356C382.542 3.24 375.982 1.6 367.29 1.6H347.61C346.79 1.6 346.216 1.846 345.888 2.174ZM419.494 2.82999C419.494 3.158 419.576 3.65 419.904 4.306L441.634 56.13C442.29 57.852 442.864 59 443.356 59.574C443.848 60.148 444.34 60.394 444.996 60.394C445.488 60.394 445.98 60.148 446.472 59.574C446.882 59.082 447.456 58.016 448.276 56.376L460.002 31.366L471.728 56.376C472.548 58.016 473.122 59.164 473.532 59.656C473.942 60.148 474.434 60.394 475.008 60.394C475.582 60.394 476.074 60.148 476.566 59.574C477.058 59 477.632 57.852 478.37 56.13L500.1 4.306C500.264 3.814 500.428 3.404 500.428 2.912C500.428 2.092 499.772 1.6 498.46 1.6H486.816C485.668 1.6 484.93 1.764 484.438 2.092C483.946 2.42 483.536 3.158 483.126 4.142L473.778 27.922L463.282 5.208C462.544 3.814 461.97 2.82999 461.56 2.338C461.15 1.846 460.658 1.6 460.084 1.6C459.428 1.6 458.936 1.846 458.526 2.338C458.034 2.82999 457.46 3.814 456.804 5.208L446.226 28.086L436.796 4.142C436.304 3.076 435.894 2.42 435.402 2.092C434.91 1.764 434.172 1.6 433.188 1.6H421.544C420.15 1.6 419.494 2.01 419.494 2.82999ZM506.685 2.174C506.357 2.502 506.193 3.076 506.193 3.814V56.786C506.193 57.606 506.357 58.18 506.685 58.508C507.013 58.836 507.587 59 508.407 59H519.477C520.297 59 520.871 58.836 521.199 58.508C521.527 58.18 521.773 57.606 521.773 56.786V3.814C521.773 3.076 521.527 2.502 521.199 2.174C520.871 1.846 520.297 1.6 519.477 1.6H508.407C507.587 1.6 507.013 1.846 506.685 2.174ZM544.33 16.114C544.494 16.278 544.658 16.606 544.658 17.098V56.786C544.658 57.606 544.822 58.18 545.15 58.508C545.478 58.836 546.052 59 546.872 59H558.024C558.762 59 559.336 58.836 559.664 58.508C559.992 58.18 560.238 57.606 560.238 56.786V17.098C560.238 16.606 560.32 16.278 560.484 16.114C560.648 15.95 561.058 15.786 561.55 15.786H573.932C574.67 15.786 575.244 15.622 575.572 15.294C575.9 14.966 576.146 14.392 576.146 13.572V3.814C576.146 3.076 575.9 2.502 575.572 2.174C575.244 1.846 574.67 1.6 573.932 1.6H530.964C529.488 1.6 528.75 2.338 528.75 3.814V13.572C528.75 15.048 529.488 15.786 530.964 15.786H543.346C543.838 15.786 544.166 15.95 544.33 16.114ZM583.64 2.174C583.312 2.502 583.148 3.076 583.148 3.814V56.786C583.148 57.606 583.312 58.18 583.64 58.508C583.968 58.836 584.542 59 585.362 59H596.432C597.252 59 597.826 58.836 598.154 58.508C598.482 58.18 598.728 57.606 598.728 56.786V38.172C598.728 37.68 598.81 37.352 598.974 37.188C599.138 37.024 599.466 36.86 600.04 36.86H617.096C617.588 36.86 617.916 37.024 618.08 37.188C618.244 37.352 618.408 37.68 618.408 38.172V56.786C618.408 58.262 619.146 59 620.704 59H631.774C633.25 59 634.07 58.262 634.07 56.786V3.814C634.07 2.338 633.25 1.6 631.774 1.6H620.704C619.146 1.6 618.408 2.338 618.408 3.814V21.362C618.408 21.854 618.244 22.264 618.08 22.428C617.916 22.592 617.588 22.674 617.096 22.674H600.04C599.466 22.674 599.138 22.592 598.974 22.428C598.81 22.264 598.728 21.854 598.728 21.362V3.814C598.728 3.076 598.482 2.502 598.154 2.174C597.826 1.846 597.252 1.6 596.432 1.6H585.362C584.542 1.6 583.968 1.846 583.64 2.174Z" fill="black"/>
<path d="M665.733 7.258L681.723 29.48L665.077 53.342C664.339 54.408 663.847 55.228 663.519 55.802C663.191 56.376 663.109 56.868 663.109 57.278C663.109 58.426 663.929 59 665.569 59H706.487C707.225 59 707.799 58.836 708.127 58.508C708.455 58.18 708.701 57.606 708.701 56.786V47.684C708.701 46.864 708.455 46.29 708.127 45.962C707.799 45.634 707.225 45.47 706.487 45.47H688.037L696.975 32.76C697.549 31.94 697.959 31.284 698.205 30.792C698.369 30.3 698.533 29.89 698.533 29.398C698.533 28.988 698.369 28.496 698.123 28.004C697.877 27.512 697.467 26.856 696.893 26.036L689.021 15.13H706.323C707.061 15.13 707.635 14.966 707.963 14.638C708.291 14.31 708.537 13.736 708.537 12.916V3.814C708.537 2.338 707.799 1.6 706.323 1.6H666.225C664.503 1.6 663.683 2.174 663.683 3.322C663.683 3.814 663.765 4.306 664.093 4.88C664.421 5.536 664.913 6.274 665.733 7.258ZM739.751 1.272C739.095 1.928 738.439 2.994 737.619 4.552L711.461 56.294C711.133 56.786 711.051 57.278 711.051 57.77C711.051 58.59 711.625 59 712.937 59H770.993C772.223 59 772.879 58.59 772.879 57.77C772.879 57.36 772.715 56.868 772.387 56.294L746.229 4.552C745.409 2.994 744.671 1.928 744.015 1.272C743.359 0.615999 742.703 0.287998 741.965 0.287998C741.145 0.287998 740.407 0.615999 739.751 1.272ZM741.637 25.79L750.821 45.47H732.535L741.637 25.79ZM780.679 40.714C780.023 40.714 779.531 41.124 779.039 41.944L774.365 49.078C773.873 49.816 773.627 50.472 773.627 50.964C773.627 51.374 773.709 51.702 773.955 52.03C774.119 52.358 774.447 52.604 774.939 52.932C777.727 55.228 781.007 56.95 784.615 58.262C788.223 59.574 792.077 60.148 796.341 60.148C800.933 60.148 805.033 59.41 808.559 57.934C812.003 56.458 814.709 54.244 816.677 51.374C818.563 48.586 819.547 45.224 819.547 41.288C819.547 38.09 818.809 35.384 817.415 33.088C816.021 30.792 813.971 28.906 811.265 27.43C808.477 25.954 804.951 24.642 800.687 23.576C798.227 23.002 796.423 22.51 795.275 22.1C794.045 21.69 793.143 21.198 792.569 20.542C791.913 19.968 791.667 19.23 791.667 18.246C791.667 17.098 792.159 16.114 793.307 15.376C794.373 14.638 795.931 14.228 797.899 14.228C801.999 14.228 806.345 15.868 810.773 19.066C811.265 19.558 811.757 19.722 812.331 19.722C812.823 19.722 813.397 19.394 813.889 18.656L818.809 11.112C819.137 10.62 819.383 10.046 819.383 9.472C819.383 8.816 819.055 8.242 818.399 7.75C812.331 2.912 805.443 0.451996 797.735 0.451996C793.389 0.451996 789.535 1.19 786.255 2.666C782.893 4.142 780.269 6.274 778.383 9.062C776.497 11.85 775.595 15.212 775.595 19.066C775.595 22.428 776.251 25.216 777.645 27.512C779.039 29.808 781.089 31.694 783.713 33.17C786.337 34.646 789.617 35.794 793.717 36.778C796.341 37.434 798.309 38.008 799.621 38.5C800.933 38.992 801.917 39.484 802.573 40.058C803.147 40.714 803.475 41.452 803.475 42.272C803.475 43.584 802.819 44.568 801.589 45.306C800.359 46.044 798.555 46.372 796.177 46.372C793.717 46.372 791.339 45.962 788.961 45.06C786.501 44.158 784.287 42.928 782.319 41.452C781.663 40.96 781.089 40.714 780.679 40.714ZM825.729 7.258L841.719 29.48L825.073 53.342C824.335 54.408 823.843 55.228 823.515 55.802C823.187 56.376 823.105 56.868 823.105 57.278C823.105 58.426 823.925 59 825.565 59H866.483C867.221 59 867.795 58.836 868.123 58.508C868.451 58.18 868.697 57.606 868.697 56.786V47.684C868.697 46.864 868.451 46.29 868.123 45.962C867.795 45.634 867.221 45.47 866.483 45.47H848.033L856.971 32.76C857.545 31.94 857.955 31.284 858.201 30.792C858.365 30.3 858.529 29.89 858.529 29.398C858.529 28.988 858.365 28.496 858.119 28.004C857.873 27.512 857.463 26.856 856.889 26.036L849.017 15.13H866.319C867.057 15.13 867.631 14.966 867.959 14.638C868.287 14.31 868.533 13.736 868.533 12.916V3.814C868.533 2.338 867.795 1.6 866.319 1.6H826.221C824.499 1.6 823.679 2.174 823.679 3.322C823.679 3.814 823.761 4.306 824.089 4.88C824.417 5.536 824.909 6.274 825.729 7.258Z" fill="#FF8D29"/>
</svg>
