<svg width="321" height="51" viewBox="0 0 321 51" fill="none" xmlns="http://www.w3.org/2000/svg">
<path d="M3.81 12.41C1.57 16.33 0.45 20.74 0.45 25.64C0.45 30.54 1.57 34.95 3.81 38.8C6.05 42.65 9.2 45.66 13.19 47.76C17.18 49.93 21.66 50.98 26.7 50.98C31.81 50.98 36.36 49.93 40.42 47.76C44.48 45.59 47.63 42.58 49.87 38.73C52.11 34.88 53.3 30.47 53.3 25.5C53.3 20.6 52.11 16.26 49.87 12.34C47.63 8.49 44.48 5.48 40.49 3.31C36.43 1.14 31.88 0.0199968 26.84 0.0199968C21.8 0.0199968 17.25 1.14 13.26 3.31C9.2 5.55 6.05 8.56 3.81 12.41ZM33.42 37.19C31.39 38.31 29.15 38.8 26.77 38.8C24.32 38.8 22.08 38.31 20.12 37.19C18.16 36.07 16.55 34.53 15.43 32.5C14.31 30.54 13.75 28.23 13.75 25.57C13.75 22.91 14.31 20.6 15.5 18.57C16.62 16.61 18.23 15.07 20.19 13.95C22.15 12.83 24.39 12.27 26.84 12.27C29.22 12.27 31.46 12.83 33.49 13.95C35.45 15.07 37.06 16.61 38.25 18.64C39.37 20.67 40 22.98 40 25.57C40 28.23 39.37 30.54 38.18 32.5C36.99 34.53 35.38 36.07 33.42 37.19ZM23.62 31.1C24.6 31.66 25.65 31.87 26.84 31.87C28.03 31.87 29.08 31.66 30.06 31.1C31.04 30.54 31.81 29.77 32.37 28.79C32.93 27.81 33.21 26.76 33.21 25.5C33.21 24.31 32.93 23.19 32.37 22.21C31.81 21.23 31.04 20.46 30.06 19.9C29.08 19.34 28.03 19.06 26.84 19.06C25.65 19.06 24.6 19.34 23.62 19.9C22.64 20.46 21.94 21.23 21.38 22.21C20.82 23.19 20.54 24.31 20.54 25.5C20.54 26.76 20.82 27.81 21.38 28.79C21.94 29.77 22.64 30.54 23.62 31.1ZM61.0837 1.49C60.8037 1.77 60.6637 2.26 60.6637 2.89V48.11C60.6637 48.81 60.8037 49.3 61.0837 49.58C61.3637 49.86 61.8537 50 62.5537 50H72.0037C72.7037 50 73.1937 49.86 73.4737 49.58C73.7537 49.3 73.9637 48.81 73.9637 48.11V14.09C73.9637 13.67 74.0337 13.39 74.1737 13.25C74.3137 13.11 74.5937 12.97 75.0837 12.97H89.0137C89.4337 12.97 89.7137 13.11 89.8537 13.25C89.9937 13.39 90.0637 13.67 90.0637 14.09V48.11C90.0637 49.37 90.6937 50 92.0237 50H101.544C102.804 50 103.434 49.37 103.434 48.11V2.89C103.434 1.63 102.804 0.999997 101.544 0.999997H62.5537C61.8537 0.999997 61.3637 1.21 61.0837 1.49ZM111.202 5.83L124.852 24.8L110.642 45.17C110.012 46.08 109.592 46.78 109.312 47.27C109.032 47.76 108.962 48.18 108.962 48.53C108.962 49.51 109.662 50 111.062 50H145.992C146.622 50 147.112 49.86 147.392 49.58C147.672 49.3 147.882 48.81 147.882 48.11V40.34C147.882 39.64 147.672 39.15 147.392 38.87C147.112 38.59 146.622 38.45 145.992 38.45H130.242L137.872 27.6C138.362 26.9 138.712 26.34 138.922 25.92C139.062 25.5 139.202 25.15 139.202 24.73C139.202 24.38 139.062 23.96 138.852 23.54C138.642 23.12 138.292 22.56 137.802 21.86L131.082 12.55H145.852C146.482 12.55 146.972 12.41 147.252 12.13C147.532 11.85 147.742 11.36 147.742 10.66V2.89C147.742 1.63 147.112 0.999997 145.852 0.999997H111.622C110.152 0.999997 109.452 1.49 109.452 2.47C109.452 2.89 109.522 3.31 109.802 3.8C110.082 4.36 110.502 4.99 111.202 5.83ZM155.488 1.49C155.208 1.77 155.068 2.26 155.068 2.89V48.11C155.068 48.81 155.208 49.3 155.488 49.58C155.768 49.86 156.258 50 156.958 50H166.408C167.108 50 167.598 49.86 167.878 49.58C168.158 49.3 168.368 48.81 168.368 48.11V2.89C168.368 2.26 168.158 1.77 167.878 1.49C167.598 1.21 167.108 0.999997 166.408 0.999997H156.958C156.258 0.999997 155.768 1.21 155.488 1.49ZM178.593 1.49C178.313 1.77 178.173 2.26 178.173 2.89V48.11C178.173 48.81 178.313 49.3 178.593 49.58C178.873 49.86 179.363 50 180.063 50H189.513C190.213 50 190.703 49.86 190.983 49.58C191.263 49.3 191.473 48.81 191.473 48.11V13.32C191.473 12.9 191.543 12.55 191.683 12.41C191.823 12.27 192.103 12.2 192.593 12.2H196.163C199.173 12.2 201.413 12.76 202.953 13.88C204.493 15 205.263 16.68 205.263 18.99C205.263 21.23 204.423 22.91 202.883 24.17C201.273 25.43 199.173 26.2 196.653 26.48C195.673 26.69 195.183 27.04 195.183 27.53C195.183 27.81 195.253 28.16 195.533 28.58L206.383 47.83C206.873 48.74 207.363 49.3 207.853 49.58C208.343 49.86 209.113 50 210.163 50H220.173C221.293 50 221.923 49.65 221.923 48.95C221.923 48.67 221.783 48.25 221.503 47.76L210.933 30.19C216.253 27.6 218.983 23.4 218.983 17.52C218.983 11.92 217.163 7.72 213.523 5.06C209.883 2.4 204.283 0.999997 196.863 0.999997H180.063C179.363 0.999997 178.873 1.21 178.593 1.49ZM227.96 12.41C225.72 16.33 224.6 20.74 224.6 25.64C224.6 30.54 225.72 34.95 227.96 38.8C230.2 42.65 233.35 45.66 237.34 47.76C241.33 49.93 245.81 50.98 250.85 50.98C255.96 50.98 260.51 49.93 264.57 47.76C268.63 45.59 271.78 42.58 274.02 38.73C276.26 34.88 277.45 30.47 277.45 25.5C277.45 20.6 276.26 16.26 274.02 12.34C271.78 8.49 268.63 5.48 264.64 3.31C260.58 1.14 256.03 0.0199968 250.99 0.0199968C245.95 0.0199968 241.4 1.14 237.41 3.31C233.35 5.55 230.2 8.56 227.96 12.41ZM257.57 37.19C255.54 38.31 253.3 38.8 250.92 38.8C248.47 38.8 246.23 38.31 244.27 37.19C242.31 36.07 240.7 34.53 239.58 32.5C238.46 30.54 237.9 28.23 237.9 25.57C237.9 22.91 238.46 20.6 239.65 18.57C240.77 16.61 242.38 15.07 244.34 13.95C246.3 12.83 248.54 12.27 250.99 12.27C253.37 12.27 255.61 12.83 257.64 13.95C259.6 15.07 261.21 16.61 262.4 18.64C263.52 20.67 264.15 22.98 264.15 25.57C264.15 28.23 263.52 30.54 262.33 32.5C261.14 34.53 259.53 36.07 257.57 37.19ZM247.77 31.1C248.75 31.66 249.8 31.87 250.99 31.87C252.18 31.87 253.23 31.66 254.21 31.1C255.19 30.54 255.96 29.77 256.52 28.79C257.08 27.81 257.36 26.76 257.36 25.5C257.36 24.31 257.08 23.19 256.52 22.21C255.96 21.23 255.19 20.46 254.21 19.9C253.23 19.34 252.18 19.06 250.99 19.06C249.8 19.06 248.75 19.34 247.77 19.9C246.79 20.46 246.09 21.23 245.53 22.21C244.97 23.19 244.69 24.31 244.69 25.5C244.69 26.76 244.97 27.81 245.53 28.79C246.09 29.77 246.79 30.54 247.77 31.1ZM286.914 34.39C286.354 34.39 285.934 34.74 285.514 35.44L281.524 41.53C281.104 42.16 280.894 42.72 280.894 43.14C280.894 43.49 280.964 43.77 281.174 44.05C281.314 44.33 281.594 44.54 282.014 44.82C284.394 46.78 287.194 48.25 290.274 49.37C293.354 50.49 296.644 50.98 300.284 50.98C304.204 50.98 307.704 50.35 310.714 49.09C313.654 47.83 315.964 45.94 317.644 43.49C319.254 41.11 320.094 38.24 320.094 34.88C320.094 32.15 319.464 29.84 318.274 27.88C317.084 25.92 315.334 24.31 313.024 23.05C310.644 21.79 307.634 20.67 303.994 19.76C301.894 19.27 300.354 18.85 299.374 18.5C298.324 18.15 297.554 17.73 297.064 17.17C296.504 16.68 296.294 16.05 296.294 15.21C296.294 14.23 296.714 13.39 297.694 12.76C298.604 12.13 299.934 11.78 301.614 11.78C305.114 11.78 308.824 13.18 312.604 15.91C313.024 16.33 313.444 16.47 313.934 16.47C314.354 16.47 314.844 16.19 315.264 15.56L319.464 9.12C319.744 8.7 319.954 8.21 319.954 7.72C319.954 7.16 319.674 6.67 319.114 6.25C313.934 2.12 308.054 0.0199968 301.474 0.0199968C297.764 0.0199968 294.474 0.649997 291.674 1.91C288.804 3.17 286.564 4.99 284.954 7.37C283.344 9.75 282.574 12.62 282.574 15.91C282.574 18.78 283.134 21.16 284.324 23.12C285.514 25.08 287.264 26.69 289.504 27.95C291.744 29.21 294.544 30.19 298.044 31.03C300.284 31.59 301.964 32.08 303.084 32.5C304.204 32.92 305.044 33.34 305.604 33.83C306.094 34.39 306.374 35.02 306.374 35.72C306.374 36.84 305.814 37.68 304.764 38.31C303.714 38.94 302.174 39.22 300.144 39.22C298.044 39.22 296.014 38.87 293.984 38.1C291.884 37.33 289.994 36.28 288.314 35.02C287.754 34.6 287.264 34.39 286.914 34.39Z" fill="white"/>
</svg>
