<svg width="411" height="49" viewBox="0 0 411 49" fill="none" xmlns="http://www.w3.org/2000/svg">
<g filter="url(#filter0_d_110_529)">
<path d="M0.929688 37H8.30273V24.2314H13.8447C13.9098 24.2314 13.9749 24.2314 14.04 24.2314C14.1051 24.2314 14.1621 24.2314 14.2109 24.2314L20.7783 37H29.1279L21.7061 23.1328C23.6592 22.3678 25.2054 21.082 26.3447 19.2754C27.5003 17.4688 28.0781 15.4098 28.0781 13.0986V13.0498C28.0781 10.6898 27.5736 8.67155 26.5645 6.99512C25.5716 5.30241 24.1312 4.00846 22.2432 3.11328C20.3714 2.2181 18.1172 1.77051 15.4805 1.77051H0.929688V37ZM8.30273 18.6406V7.53223H14.5771C16.4001 7.53223 17.8486 8.02865 18.9229 9.02148C19.9971 10.0143 20.5342 11.3571 20.5342 13.0498V13.0986C20.5342 14.8239 20.0133 16.1829 18.9717 17.1758C17.9463 18.1523 16.514 18.6406 14.6748 18.6406H8.30273ZM44.0205 37.5371C45.8923 37.5371 47.5199 37.293 48.9033 36.8047C50.3031 36.3164 51.4831 35.6654 52.4434 34.8516C53.4199 34.0378 54.193 33.1426 54.7627 32.166C55.3324 31.1895 55.7148 30.221 55.9102 29.2607L55.9834 28.9922H49.4404L49.3916 29.1387C49.2288 29.627 48.9196 30.1071 48.4639 30.5791C48.0081 31.0511 47.4222 31.4417 46.7061 31.751C45.9899 32.0602 45.1436 32.2148 44.167 32.2148C42.93 32.2148 41.8639 31.9463 40.9688 31.4092C40.0736 30.8558 39.3818 30.0664 38.8936 29.041C38.4215 28.0156 38.1855 26.7786 38.1855 25.3301V22.5713C38.1855 21.0739 38.4215 19.8125 38.8936 18.7871C39.3818 17.7454 40.0492 16.9561 40.8955 16.4189C41.7581 15.8818 42.7428 15.6133 43.8496 15.6133C44.9564 15.6133 45.9248 15.8737 46.7549 16.3945C47.6012 16.9154 48.2604 17.6966 48.7324 18.7383C49.2044 19.7637 49.4404 21.0413 49.4404 22.5713V25.3057L52.834 21.1064H34.6455V25.5986H56.2031V23.4014C56.2031 20.7646 55.6904 18.4616 54.665 16.4922C53.6559 14.5228 52.2155 13.001 50.3438 11.9268C48.4883 10.8363 46.2829 10.291 43.7275 10.291C41.1722 10.291 38.9505 10.8525 37.0625 11.9756C35.1908 13.0824 33.734 14.6611 32.6924 16.7119C31.667 18.7464 31.1543 21.1553 31.1543 23.9385V23.9629C31.1543 26.7461 31.667 29.1549 32.6924 31.1895C33.734 33.224 35.2152 34.7946 37.1357 35.9014C39.0563 36.9919 41.3512 37.5371 44.0205 37.5371ZM72.1211 46.082C74.7415 46.082 77.0039 45.667 78.9082 44.8369C80.8288 44.0068 82.3018 42.8512 83.3271 41.3701C84.3688 39.9053 84.8896 38.2044 84.8896 36.2676V10.8281H77.7607V15.2959H77.6143C77.1423 14.2705 76.5156 13.3835 75.7344 12.6348C74.9694 11.8861 74.0742 11.3083 73.0488 10.9014C72.0234 10.4945 70.8923 10.291 69.6553 10.291C67.4417 10.291 65.5374 10.82 63.9424 11.8779C62.3473 12.9359 61.1104 14.4577 60.2314 16.4434C59.3688 18.429 58.9375 20.8135 58.9375 23.5967V23.6211C58.9375 26.3229 59.3607 28.6504 60.207 30.6035C61.0697 32.5404 62.2904 34.0296 63.8691 35.0713C65.4642 36.113 67.3522 36.6338 69.5332 36.6338C70.8027 36.6338 71.9583 36.4548 73 36.0967C74.0579 35.7223 74.9775 35.2015 75.7588 34.5342C76.54 33.8669 77.1585 33.0775 77.6143 32.166H77.7607V36.1699C77.7607 37.6348 77.2806 38.8066 76.3203 39.6855C75.36 40.5645 73.9603 41.0039 72.1211 41.0039C70.64 41.0039 69.4355 40.7598 68.5078 40.2715C67.5801 39.7832 66.9697 39.2217 66.6768 38.5869L66.6035 38.416H59.6699L59.6943 38.6357C59.9222 40.0355 60.557 41.2969 61.5986 42.4199C62.6566 43.543 64.0726 44.43 65.8467 45.0811C67.637 45.7484 69.7285 46.082 72.1211 46.082ZM71.999 31.4092C70.8271 31.4092 69.8018 31.0999 68.9229 30.4814C68.0439 29.863 67.3685 28.984 66.8965 27.8447C66.4245 26.7054 66.1885 25.3545 66.1885 23.792V23.7676C66.1885 22.1888 66.4245 20.8379 66.8965 19.7148C67.3685 18.5918 68.0439 17.7292 68.9229 17.127C69.8018 16.5085 70.8271 16.1992 71.999 16.1992C73.1546 16.1992 74.1637 16.5085 75.0264 17.127C75.9053 17.7292 76.5807 18.5999 77.0527 19.7393C77.541 20.8623 77.7852 22.2051 77.7852 23.7676V23.792C77.7852 25.3545 77.541 26.7054 77.0527 27.8447C76.5807 28.984 75.9134 29.863 75.0508 30.4814C74.1882 31.0999 73.1709 31.4092 71.999 31.4092ZM89.7236 37H96.8525V10.8281H89.7236V37ZM93.2881 7.45898C94.3623 7.45898 95.2656 7.09277 95.998 6.36035C96.7305 5.62793 97.0967 4.75716 97.0967 3.74805C97.0967 2.72266 96.7305 1.85189 95.998 1.13574C95.2656 0.40332 94.3623 0.0371094 93.2881 0.0371094C92.2139 0.0371094 91.3105 0.40332 90.5781 1.13574C89.8457 1.85189 89.4795 2.72266 89.4795 3.74805C89.4795 4.75716 89.8457 5.62793 90.5781 6.36035C91.3105 7.09277 92.2139 7.45898 93.2881 7.45898ZM112.404 37.5371C114.65 37.5371 116.628 37.1872 118.337 36.4873C120.062 35.7712 121.413 34.7783 122.39 33.5088C123.366 32.2393 123.854 30.75 123.854 29.041V29.0166C123.854 27.096 123.252 25.5661 122.048 24.4268C120.86 23.2874 118.89 22.4329 116.14 21.8633L111.696 20.9111C110.378 20.6344 109.458 20.2682 108.938 19.8125C108.417 19.3568 108.156 18.7952 108.156 18.1279V18.1035C108.156 17.5339 108.319 17.0456 108.645 16.6387C108.97 16.2155 109.434 15.89 110.036 15.6621C110.638 15.4342 111.346 15.3203 112.16 15.3203C113.479 15.3203 114.512 15.6377 115.261 16.2725C116.026 16.891 116.465 17.6722 116.579 18.6162L116.604 18.8115H123.171V18.5674C123.122 17.0374 122.658 15.6458 121.779 14.3926C120.917 13.1393 119.672 12.1465 118.044 11.4141C116.433 10.6654 114.471 10.291 112.16 10.291C109.947 10.291 108.01 10.6328 106.35 11.3164C104.706 11.9837 103.436 12.9277 102.541 14.1484C101.646 15.3691 101.198 16.8177 101.198 18.4941V18.5186C101.198 20.4717 101.833 22.083 103.103 23.3525C104.388 24.6058 106.301 25.501 108.84 26.0381L113.283 26.9658C114.569 27.2588 115.464 27.6169 115.969 28.04C116.473 28.4632 116.726 29.0247 116.726 29.7246V29.749C116.726 30.3187 116.547 30.807 116.188 31.2139C115.847 31.6208 115.358 31.9382 114.724 32.166C114.089 32.3776 113.316 32.4834 112.404 32.4834C110.988 32.4834 109.882 32.1986 109.084 31.6289C108.286 31.0592 107.774 30.2617 107.546 29.2363L107.497 29.0166H100.539L100.563 29.2363C100.759 30.8802 101.328 32.3288 102.272 33.582C103.233 34.819 104.559 35.7874 106.252 36.4873C107.945 37.1872 109.995 37.5371 112.404 37.5371ZM137.771 37.5371C138.519 37.5371 139.178 37.5046 139.748 37.4395C140.334 37.3906 140.822 37.3337 141.213 37.2686V32.0439C141.001 32.0765 140.773 32.109 140.529 32.1416C140.285 32.1579 140 32.166 139.675 32.166C138.601 32.166 137.787 31.93 137.233 31.458C136.696 30.9697 136.428 30.1152 136.428 28.8945V16.1992H141.213V10.8281H136.428V4.43164H129.226V10.8281H125.588V16.1992H129.226V29.6758C129.226 32.4753 129.925 34.4854 131.325 35.7061C132.725 36.9268 134.873 37.5371 137.771 37.5371ZM156.716 37.5371C158.588 37.5371 160.215 37.293 161.599 36.8047C162.998 36.3164 164.178 35.6654 165.139 34.8516C166.115 34.0378 166.888 33.1426 167.458 32.166C168.028 31.1895 168.41 30.221 168.605 29.2607L168.679 28.9922H162.136L162.087 29.1387C161.924 29.627 161.615 30.1071 161.159 30.5791C160.703 31.0511 160.118 31.4417 159.401 31.751C158.685 32.0602 157.839 32.2148 156.862 32.2148C155.625 32.2148 154.559 31.9463 153.664 31.4092C152.769 30.8558 152.077 30.0664 151.589 29.041C151.117 28.0156 150.881 26.7786 150.881 25.3301V22.5713C150.881 21.0739 151.117 19.8125 151.589 18.7871C152.077 17.7454 152.744 16.9561 153.591 16.4189C154.453 15.8818 155.438 15.6133 156.545 15.6133C157.652 15.6133 158.62 15.8737 159.45 16.3945C160.297 16.9154 160.956 17.6966 161.428 18.7383C161.9 19.7637 162.136 21.0413 162.136 22.5713V25.3057L165.529 21.1064H147.341V25.5986H168.898V23.4014C168.898 20.7646 168.386 18.4616 167.36 16.4922C166.351 14.5228 164.911 13.001 163.039 11.9268C161.184 10.8363 158.978 10.291 156.423 10.291C153.868 10.291 151.646 10.8525 149.758 11.9756C147.886 13.0824 146.429 14.6611 145.388 16.7119C144.362 18.7464 143.85 21.1553 143.85 23.9385V23.9629C143.85 26.7461 144.362 29.1549 145.388 31.1895C146.429 33.224 147.91 34.7946 149.831 35.9014C151.752 36.9919 154.047 37.5371 156.716 37.5371ZM172.585 37H179.714V22.3516C179.714 21.082 179.934 20.0078 180.373 19.1289C180.812 18.25 181.447 17.5827 182.277 17.127C183.107 16.6712 184.108 16.4434 185.28 16.4434C185.801 16.4434 186.289 16.484 186.745 16.5654C187.201 16.6305 187.575 16.7201 187.868 16.834V10.5596C187.608 10.4782 187.299 10.4131 186.94 10.3643C186.582 10.3154 186.208 10.291 185.817 10.291C184.287 10.291 183.01 10.7386 181.984 11.6338C180.959 12.529 180.251 13.7822 179.86 15.3936H179.714V10.8281H172.585V37ZM201.882 37.5371C203.754 37.5371 205.381 37.293 206.765 36.8047C208.164 36.3164 209.344 35.6654 210.305 34.8516C211.281 34.0378 212.054 33.1426 212.624 32.166C213.194 31.1895 213.576 30.221 213.771 29.2607L213.845 28.9922H207.302L207.253 29.1387C207.09 29.627 206.781 30.1071 206.325 30.5791C205.869 31.0511 205.284 31.4417 204.567 31.751C203.851 32.0602 203.005 32.2148 202.028 32.2148C200.791 32.2148 199.725 31.9463 198.83 31.4092C197.935 30.8558 197.243 30.0664 196.755 29.041C196.283 28.0156 196.047 26.7786 196.047 25.3301V22.5713C196.047 21.0739 196.283 19.8125 196.755 18.7871C197.243 17.7454 197.91 16.9561 198.757 16.4189C199.619 15.8818 200.604 15.6133 201.711 15.6133C202.818 15.6133 203.786 15.8737 204.616 16.3945C205.463 16.9154 206.122 17.6966 206.594 18.7383C207.066 19.7637 207.302 21.0413 207.302 22.5713V25.3057L210.695 21.1064H192.507V25.5986H214.064V23.4014C214.064 20.7646 213.552 18.4616 212.526 16.4922C211.517 14.5228 210.077 13.001 208.205 11.9268C206.35 10.8363 204.144 10.291 201.589 10.291C199.034 10.291 196.812 10.8525 194.924 11.9756C193.052 13.0824 191.595 14.6611 190.554 16.7119C189.528 18.7464 189.016 21.1553 189.016 23.9385V23.9629C189.016 26.7461 189.528 29.1549 190.554 31.1895C191.595 33.224 193.076 34.7946 194.997 35.9014C196.918 36.9919 199.213 37.5371 201.882 37.5371ZM227.443 37.5371C229.331 37.5371 230.967 37.0977 232.351 36.2188C233.75 35.3236 234.8 34.0947 235.5 32.5322H235.646V37H242.775V1.77051H235.646V15.3691H235.5C234.784 13.7904 233.726 12.5534 232.326 11.6582C230.926 10.7467 229.299 10.291 227.443 10.291C225.246 10.291 223.35 10.8363 221.755 11.9268C220.176 13.001 218.955 14.5553 218.093 16.5898C217.23 18.6081 216.799 21.0413 216.799 23.8896V23.9141C216.799 26.7461 217.222 29.1794 218.068 31.2139C218.931 33.2484 220.16 34.8109 221.755 35.9014C223.35 36.9919 225.246 37.5371 227.443 37.5371ZM229.836 31.6289C228.648 31.6289 227.614 31.3197 226.735 30.7012C225.873 30.0664 225.205 29.1712 224.733 28.0156C224.278 26.86 224.05 25.4928 224.05 23.9141V23.8896C224.05 22.2946 224.286 20.9274 224.758 19.7881C225.23 18.6325 225.897 17.7454 226.76 17.127C227.622 16.5085 228.648 16.1992 229.836 16.1992C230.992 16.1992 232.001 16.5166 232.863 17.1514C233.742 17.7699 234.426 18.6569 234.914 19.8125C235.419 20.9518 235.671 22.3109 235.671 23.8896V23.9141C235.671 25.4928 235.427 26.86 234.938 28.0156C234.45 29.1712 233.767 30.0664 232.888 30.7012C232.009 31.3197 230.992 31.6289 229.836 31.6289ZM258.059 37H281.398V30.9209H265.432V22.0586H280.495V16.2969H265.432V7.84961H281.398V1.77051H258.059V37ZM293.02 37H301.052L310.036 10.8281H302.59L297.194 30.7012H297.048L291.579 10.8281H283.962L293.02 37ZM323.513 37.5371C325.384 37.5371 327.012 37.293 328.396 36.8047C329.795 36.3164 330.975 35.6654 331.936 34.8516C332.912 34.0378 333.685 33.1426 334.255 32.166C334.825 31.1895 335.207 30.221 335.402 29.2607L335.476 28.9922H328.933L328.884 29.1387C328.721 29.627 328.412 30.1071 327.956 30.5791C327.5 31.0511 326.914 31.4417 326.198 31.751C325.482 32.0602 324.636 32.2148 323.659 32.2148C322.422 32.2148 321.356 31.9463 320.461 31.4092C319.566 30.8558 318.874 30.0664 318.386 29.041C317.914 28.0156 317.678 26.7786 317.678 25.3301V22.5713C317.678 21.0739 317.914 19.8125 318.386 18.7871C318.874 17.7454 319.541 16.9561 320.388 16.4189C321.25 15.8818 322.235 15.6133 323.342 15.6133C324.449 15.6133 325.417 15.8737 326.247 16.3945C327.093 16.9154 327.753 17.6966 328.225 18.7383C328.697 19.7637 328.933 21.0413 328.933 22.5713V25.3057L332.326 21.1064H314.138V25.5986H335.695V23.4014C335.695 20.7646 335.183 18.4616 334.157 16.4922C333.148 14.5228 331.708 13.001 329.836 11.9268C327.98 10.8363 325.775 10.291 323.22 10.291C320.664 10.291 318.443 10.8525 316.555 11.9756C314.683 13.0824 313.226 14.6611 312.185 16.7119C311.159 18.7464 310.646 21.1553 310.646 23.9385V23.9629C310.646 26.7461 311.159 29.1549 312.185 31.1895C313.226 33.224 314.707 34.7946 316.628 35.9014C318.549 36.9919 320.843 37.5371 323.513 37.5371ZM339.382 37H346.511V21.9609C346.511 20.8053 346.722 19.7962 347.146 18.9336C347.585 18.071 348.195 17.4036 348.977 16.9316C349.758 16.4434 350.677 16.1992 351.735 16.1992C353.33 16.1992 354.527 16.6712 355.324 17.6152C356.138 18.543 356.545 19.8613 356.545 21.5703V37H363.674V20.1055C363.674 17.0293 362.884 14.6286 361.306 12.9033C359.743 11.1618 357.521 10.291 354.641 10.291C352.671 10.291 351.019 10.7223 349.685 11.585C348.35 12.4476 347.341 13.6276 346.657 15.125H346.511V10.8281H339.382V37ZM378.591 37.5371C379.34 37.5371 379.999 37.5046 380.568 37.4395C381.154 37.3906 381.643 37.3337 382.033 37.2686V32.0439C381.822 32.0765 381.594 32.109 381.35 32.1416C381.105 32.1579 380.821 32.166 380.495 32.166C379.421 32.166 378.607 31.93 378.054 31.458C377.517 30.9697 377.248 30.1152 377.248 28.8945V16.1992H382.033V10.8281H377.248V4.43164H370.046V10.8281H366.408V16.1992H370.046V29.6758C370.046 32.4753 370.746 34.4854 372.146 35.7061C373.545 36.9268 375.694 37.5371 378.591 37.5371ZM396.73 37.5371C398.977 37.5371 400.954 37.1872 402.663 36.4873C404.388 35.7712 405.739 34.7783 406.716 33.5088C407.692 32.2393 408.181 30.75 408.181 29.041V29.0166C408.181 27.096 407.578 25.5661 406.374 24.4268C405.186 23.2874 403.216 22.4329 400.466 21.8633L396.022 20.9111C394.704 20.6344 393.785 20.2682 393.264 19.8125C392.743 19.3568 392.482 18.7952 392.482 18.1279V18.1035C392.482 17.5339 392.645 17.0456 392.971 16.6387C393.296 16.2155 393.76 15.89 394.362 15.6621C394.965 15.4342 395.673 15.3203 396.486 15.3203C397.805 15.3203 398.838 15.6377 399.587 16.2725C400.352 16.891 400.791 17.6722 400.905 18.6162L400.93 18.8115H407.497V18.5674C407.448 17.0374 406.984 15.6458 406.105 14.3926C405.243 13.1393 403.998 12.1465 402.37 11.4141C400.759 10.6654 398.798 10.291 396.486 10.291C394.273 10.291 392.336 10.6328 390.676 11.3164C389.032 11.9837 387.762 12.9277 386.867 14.1484C385.972 15.3691 385.524 16.8177 385.524 18.4941V18.5186C385.524 20.4717 386.159 22.083 387.429 23.3525C388.715 24.6058 390.627 25.501 393.166 26.0381L397.609 26.9658C398.895 27.2588 399.79 27.6169 400.295 28.04C400.799 28.4632 401.052 29.0247 401.052 29.7246V29.749C401.052 30.3187 400.873 30.807 400.515 31.2139C400.173 31.6208 399.685 31.9382 399.05 32.166C398.415 32.3776 397.642 32.4834 396.73 32.4834C395.314 32.4834 394.208 32.1986 393.41 31.6289C392.613 31.0592 392.1 30.2617 391.872 29.2363L391.823 29.0166H384.865L384.89 29.2363C385.085 30.8802 385.655 32.3288 386.599 33.582C387.559 34.819 388.885 35.7874 390.578 36.4873C392.271 37.1872 394.322 37.5371 396.73 37.5371Z" fill="#FF8D29"/>
</g>
<defs>
<filter id="filter0_d_110_529" x="0.929688" y="0.0371094" width="409.25" height="48.0449" filterUnits="userSpaceOnUse" color-interpolation-filters="sRGB">
<feFlood flood-opacity="0" result="BackgroundImageFix"/>
<feColorMatrix in="SourceAlpha" type="matrix" values="0 0 0 0 0 0 0 0 0 0 0 0 0 0 0 0 0 0 127 0" result="hardAlpha"/>
<feOffset dx="2" dy="2"/>
<feComposite in2="hardAlpha" operator="out"/>
<feColorMatrix type="matrix" values="0 0 0 0 0.0862745 0 0 0 0 0.117647 0 0 0 0 0.329412 0 0 0 1 0"/>
<feBlend mode="normal" in2="BackgroundImageFix" result="effect1_dropShadow_110_529"/>
<feBlend mode="normal" in="SourceGraphic" in2="effect1_dropShadow_110_529" result="shape"/>
</filter>
</defs>
</svg>
