<svg width="523" height="490" viewBox="0 0 523 490" fill="none" xmlns="http://www.w3.org/2000/svg">
<path d="M622.946 433.656C635.253 410.494 649.726 378.973 638.164 351.986C626.626 325.067 617.922 310.497 607.344 287.443C596.671 264.24 576.343 244.709 524.755 228.222C474.253 212.084 443.669 224.584 424.11 232.127C404.552 239.669 380.024 243.225 327.297 231.384C274.919 219.637 257.421 216.481 242.311 210.248C227.202 204.014 205.106 193.023 224.665 166.851C244.429 140.469 246.349 132.464 251.045 122.908C255.555 113.59 259.97 98.4116 292.942 97.7724C327.08 97.0177 347.519 95.6309 363.82 85.2462" stroke="#FFBF00" stroke-width="0.1"/>
<path d="M616.76 433.033C624.532 416.078 635.168 394.571 634.864 373.505C634.759 366.206 633.339 358.959 630.033 351.974C617.243 324.935 610.699 310.027 601.811 287.016C590.695 258.339 570.512 243.839 519.991 227.515C469.913 211.329 438.599 229.492 419.922 235.437C398.604 242.215 380.031 245.315 319.613 232.424C266.137 221.013 253.431 218.564 238.341 212.298C223.117 205.974 201.98 193.277 220.536 166.048C238.368 140.009 238.693 131.213 243.21 121.898C248.055 112.172 249.414 93.8207 287.054 94.4477C321.205 95.0309 344.456 93.9825 359.43 85.0561" stroke="#FFBF00" stroke-width="0.2"/>
<path d="M610.953 433.163C616.084 408.728 636.166 382.551 623.523 353.853C611.757 327.111 602.16 311.942 596.988 288.034C590.535 259.041 568.209 243.255 518.347 227.384C469.972 211.976 437.299 231.855 418.209 238.154C394.546 245.965 377.406 247.055 318.62 234.854C265.867 223.899 260.894 227.022 234.882 216.516C219.937 210.479 198.982 193.228 214.961 167.375C229.128 144.487 232.114 131.824 235.159 121.816C242.53 96.9747 248.679 90.9063 285.962 91.4615C319.717 91.9799 339.992 92.6503 353.618 84.9389" stroke="#FFBF00" stroke-width="0.297129"/>
<path d="M603.987 433.446C604.962 415.486 614.336 400.577 618.488 385.224C621.05 375.75 621.624 366.108 617.01 355.475C605.388 328.731 596.343 316.119 592.144 292.268C586.839 262.587 578.038 247.027 518.431 227.736C470.806 212.322 436.211 234.545 416.408 240.72C407.911 243.236 400.901 244.914 394.103 245.829C375.287 248.362 358.093 245.048 315.451 237.483C263.999 228.335 259.644 232.208 232.908 221.342C218.003 215.251 194.678 197.284 210.231 170.53C223.338 147.986 224.419 133.681 227.32 123.876C234.617 99.1119 233.007 86.6097 275.383 88.3168C307.145 89.6031 338.459 90.6032 349.226 84.2468" stroke="#FFBF00" stroke-width="0.396172"/>
<path d="M597.239 432.983C594.689 417.533 600.945 406.074 606.176 394.474C611.03 383.712 615.001 372.828 610.239 358.523C601.374 332.11 590.111 321.057 587.123 296.895C583.112 263.537 583.923 249.295 518.241 228.227C479.569 215.828 445.977 230.48 424.607 239.506C419.643 241.602 415.339 243.395 411.783 244.475C406.882 245.914 402.263 246.946 397.551 247.611C378.601 250.283 358.138 246.983 311.66 240.027C262.136 232.529 257.592 237.488 229.565 226.098C214.644 220.036 191.368 198.424 204.923 175.184C218.058 152.683 216.522 137.863 218.875 127.22C226.019 93.8562 226.57 81.8585 269.934 84.5791C301.185 86.536 325.492 90.4244 348.485 82.6908" stroke="#FFBF00" stroke-width="0.495215"/>
<path d="M591.123 434.109C584.495 418.657 590.027 407.304 595.627 395.61C600.542 385.348 605.509 374.823 602.354 361.031C596.281 334.919 582.451 318.575 581.13 297.094C579.126 260.529 580.777 248.652 513.518 227.277C489.768 219.725 467.453 224.385 448.54 231.179C431.294 237.374 416.876 245.342 406.774 247.446C366.581 255.822 341.158 243.967 300.14 241.496C252.985 238.541 243.552 241.448 221 228.129C207.613 220.223 187.095 197.503 200.191 175.992C214.735 152.139 212.511 142.791 212.727 129.503C213.081 96.7121 220.972 75.7878 262.919 80.8128C294.221 84.5619 324.082 87.9286 343.629 81.5539" stroke="#FFBF00" stroke-width="0.594257"/>
<path d="M584.562 434.45C576.458 419.179 579.055 409.346 583.571 399.634C588.227 389.619 594.921 379.732 594.021 364.144C592.539 338.672 576.465 321.379 574.701 298.937C571.52 261.95 586.964 249.73 513.685 228.007C468.239 214.51 424.663 246.149 403.03 250.19C388.329 252.922 374.619 252.844 361.205 251.664C339.53 249.757 318.625 244.97 295.547 244.503C250.243 243.543 245.71 248.301 219.527 233.996C205.748 226.467 181.443 198.574 193.393 179.387C208.609 155.074 209.543 148.95 207.571 134.618C201.947 100.881 211.475 72.567 258.345 77.2457C290.177 80.4475 319.32 87.2886 342.119 79.4042" stroke="#FFBF00" stroke-width="0.6933"/>
<path d="M578.506 435.282C567.562 420.098 568.666 410.104 572.736 400.428C577.19 389.842 585.196 379.637 584.867 363.436C584.219 337.969 569.559 321.763 568.48 300.745C566.59 263.947 587.485 250.412 513.426 227.946C467.475 213.971 426.995 247.621 401.735 252.115C381.426 255.717 363.177 254.158 345.076 251.956C328.591 249.951 312.227 247.411 294.544 247.752C249.883 248.439 243.534 256.243 216.636 238.401C203.924 229.969 175.166 202.356 188.163 180.324C202.698 155.581 206.467 152.777 203.453 137.128C200.144 121.726 195.697 104.363 204.741 91.1243C215.127 75.9247 226.334 72.7552 253.021 74.4213C283.908 76.3302 314.887 86.4932 338.425 78.4267" stroke="#FFBF00" stroke-width="0.792343"/>
<path d="M573.536 436.51C559.28 421.398 558.47 412.363 561.953 402.02C565.041 392.848 571.504 382.648 574.959 366.272C579.881 343.373 564.855 329.704 562.232 303.2C558.407 266.05 589.476 250.457 513.862 227.672C468.734 214.072 424.692 251.248 398.588 254.573C379.543 256.923 362.54 255.765 346.613 254.043C326.411 251.858 307.943 248.765 289.239 250.77C246.357 255.188 241.511 262.011 214.617 244.171C201.905 235.74 171.136 204.852 180.706 184.667C187.595 170.179 194.234 163.197 198.099 157.158C201.058 152.537 202.393 148.468 200.973 142.009C197.519 126.578 187.339 104.699 193.678 93.5936C202.686 77.8138 218.352 68.6302 242.452 70.8055C275.075 73.7548 317.639 84.6988 335.128 77.0088" stroke="#FFBF00" stroke-width="0.891386"/>
<path d="M568.146 437.627C549.063 419.643 547.856 408.993 552.137 397.11C555.092 388.909 560.661 380.122 564.773 367.931C572.236 345.542 561.242 332.943 555.79 306.395C548.047 268.72 591.119 250.403 516.443 227.899C490.135 219.966 464.528 228.994 441.852 238.981C424.502 246.623 408.868 254.825 395.951 256.419C379.753 258.465 364.467 257.577 349.854 256.092C326.477 253.716 304.82 249.817 283.897 253.969C244.457 261.792 240.501 266.601 211.315 248.583C198.207 240.462 166.257 208.908 173.23 187.958C181.469 162.794 199.003 160.757 197.668 143.734C196.459 128.544 177.881 102.756 185.652 89.9343C195.101 74.3376 215.847 65.1825 240.118 67.3977C272.741 70.3678 313.933 83.2026 331.607 75.4937" stroke="#FFBF00" stroke-width="0.990429"/>
<path d="M563.577 438.336C548.819 428.048 541.944 419.815 540.396 410.948C538.508 400.133 544.545 388.376 553.864 370.796C563.094 353.449 558.602 338.465 549.564 310.367C537.389 272.527 591.789 250.829 517.467 228.393C491.725 220.603 465.298 229.202 441.664 239.191C422.264 247.391 404.747 256.528 391.036 258.308C349.783 263.435 319.151 248.259 280.817 257.515C241.312 266.863 238.079 271.335 208.238 252.953C194.167 244.285 161.644 210.132 166.424 190.728C172.548 164.665 196.385 158.974 194.81 141.918C193.397 126.68 167.06 97.4413 177.742 86.0268C192.734 70.0057 215.406 62.9367 237.487 64.8949C271.75 67.9287 313.975 80.5057 328.318 74.3222" stroke="#FFBF00" stroke-width="0.990429"/>
<path d="M558.351 439.658C538.188 427.24 529.494 416.124 528.911 404.477C528.426 394.8 533.541 384.757 542.326 373.294C552.908 359.491 553.949 342.114 545.058 318.498C534.939 291.677 546.887 275.405 551.7 262.55C556.466 249.82 554.235 240.442 516.639 227.49C490.032 218.284 463.606 229.392 438.614 241.17C419.311 250.267 400.862 259.765 383.846 260.609C342.408 262.469 312.475 249.735 275.901 261.557C240.665 272.815 232.679 274.242 204.508 257.018C190.23 248.26 160.367 217.676 159.81 196.695C158.881 169.251 194.52 159.675 191.709 141.387C189.12 124.807 160.766 94.3485 169.894 82.2433C176.488 73.4988 200.16 65.9182 210.494 63.095C237.592 55.4974 306.681 79.8443 325.679 72.8023" stroke="#FFBF00" stroke-width="0.951551"/>
<path d="M553.513 440.956C527.662 427 518.118 414.625 517.883 402.336C517.699 392.693 523.244 383.103 531.141 372.844C541.749 359.056 548.193 345.583 538.424 319.733C527.417 290.551 542.601 273.133 548.272 259.658C553.37 247.547 550.783 238.623 514.58 227.208C489.571 219.296 468.125 226.703 447.692 236.695C425.973 247.315 405.396 260.855 382.896 262.025C341.426 264.109 311.692 249.962 272.874 264.868C255.05 271.658 243.501 274.508 232.406 273.263C222.575 272.16 213.103 267.843 199.94 260.204C185.724 251.95 160.087 227.99 153.693 199.591C147.201 171.009 192.52 157.013 188.741 138.793C184.826 119.91 151.626 92.7309 161.518 79.3054C167.998 70.5098 195.136 64.4221 205.085 61.1629C217.378 57.1617 240.16 60.4282 262.69 64.4178C288.578 69.0016 314.134 74.5398 323.055 71.0973" stroke="#FFBF00" stroke-width="0.951551"/>
<path d="M548.103 441.927C519.009 428.485 507.772 415.804 506.817 403.155C506.053 393.04 511.866 382.946 520.381 372.5C531.441 358.932 541.013 346.473 532.442 320.74C523.205 292.978 530.851 279.583 540.067 266.058C550.13 250.837 552.986 236.088 514.067 227.345C488.448 221.528 468.41 227.433 449.896 236.007C426.42 246.879 405.391 262.042 378.537 263.038C336.735 264.583 311.074 251.346 270.955 267.862C238.451 281.159 220.7 278.751 192.689 262.492C178.149 254.056 154.99 230.985 147.448 201.98C142.693 183.7 156.133 171.54 168.397 161.211C178.218 152.94 187.287 145.842 185.652 137.714C181.847 118.854 142.779 88.4058 153.656 75.2041C160.688 66.6715 191.293 62.0702 201.219 58.7907C213.103 54.846 234.866 57.64 256.904 61.468C284.987 66.3456 313.518 72.9034 322.626 69.3343" stroke="#FFBF00" stroke-width="0.951551"/>
<path d="M545.173 444.075C508.84 429.055 495.943 415.247 495.809 401.361C495.725 392.663 500.649 383.934 507.958 374.857C518.923 361.24 531.256 349.925 527.087 326.043C522.308 298.621 517.771 288.74 530.059 271.549C542.195 254.242 557.406 237.76 514.855 226.43C480.651 217.32 457.851 231.088 434.903 244.135C419.307 253.002 403.64 261.536 384.279 262.329C342.012 264.183 302.071 253.184 265.395 272.78C244.745 283.786 217.144 282.195 184.618 264.644C171.637 257.638 152.613 237.512 142.186 207.545C134.235 184.747 149.605 170.726 163.656 159.296C174.442 150.523 184.45 143.277 182.538 134.759C179.078 119.11 134.142 83.8378 145.078 70.7761C151.995 62.497 184.535 61.1091 197.616 56.4021C210.754 51.5753 236.438 55.7795 261.069 60.5047C286.177 65.321 310.191 70.6787 318.707 67.5628" stroke="#FFBF00" stroke-width="0.951551"/>
<path d="M540.269 445.66C499.117 429.871 483.73 414.829 484.656 399.054C485.149 390.672 490.247 382.082 498.535 373.063C510.577 359.987 524.577 344.818 519.759 322.325C514.186 296.453 512.577 284.115 524.684 270.111C538.687 253.638 554.539 235.568 511.047 225.347C483.582 218.852 464.981 226.024 447.931 235.724C428.891 246.557 411.786 260.544 386.437 262.175C344.087 265.273 300.439 254.391 264.831 274.907C242.443 287.812 203.757 281.596 175.006 266.479C161.911 259.593 146.275 238.923 135.615 208.372C126.024 180.846 148.325 165.624 164.537 153.111C173.736 146.011 180.974 139.783 179.313 132.675C175.667 116.999 126.258 81.2455 136.419 67.6421C142.993 58.8346 185.721 58.1399 198.349 53.1599C209.35 48.7904 235.563 53.7424 261.808 58.8952C286.907 63.8212 310.181 68.8049 318.432 65.8054" stroke="#FFBF00" stroke-width="0.951551"/>
<path d="M534.772 446.537C494.702 433.404 476.57 417.422 474.12 401.798C472.472 391.292 477.916 380.946 488.55 371.739C502.47 359.685 516.097 344.669 513.679 323.382C510.782 297.851 504.705 286.247 518.565 269.515C532.256 252.87 552.815 235.52 510.181 225.495C479.594 218.206 459.766 227.83 440.619 239.142C423.541 249.232 407.006 260.665 383.861 262.638C343.138 266.032 301.846 255.745 267.067 275.869C242.66 289.965 210.962 282.986 172.661 272.375C156.507 267.685 144.539 244.868 131.048 214.632C117.736 184.717 135.583 168.606 152.716 156.338C165.639 147.084 178.155 140.017 176.591 130.862C172.863 109.136 119.662 79.2581 128.995 63.1017C135.429 52.0394 175.395 57.5892 196.796 49.9991C207.747 46.0121 231.641 50.9446 255.51 56.2247C279.46 61.5237 302.831 67.4699 313.543 65.0851" stroke="#FFBF00" stroke-width="0.951551"/>
<path d="M530.47 447.955C483.588 435.61 464.151 417.506 463.066 399.993C462.426 389.675 468.157 379.561 478.399 370.952C492.561 359.042 510.538 341.866 507.911 322.302C504.462 296.677 499.59 285.229 513.011 269.507C526.995 253.017 550.634 235.345 507.029 225.095C473.205 217.098 455.447 229.114 436.593 241.603C423.046 250.575 408.933 259.792 387.886 262.004C347.408 266.371 302.047 257.108 267.322 276.996C243.197 290.898 208.1 286.624 169.978 275.835C148.062 269.643 141.359 260.436 135.714 246.516C132.437 238.432 129.516 228.759 124.181 217.164C114.299 194.91 119.918 178.743 132 166.619C148.906 149.825 176.46 141.718 173.9 129.046C169.301 106.435 111.062 74.5492 120.169 60.2716C129.396 45.8082 170.575 54.8018 190.751 48.6283C210.633 42.4301 240.574 50.8359 268.462 57.4907C284.448 61.318 299.097 64.6652 310.053 63.7133" stroke="#FFBF00" stroke-width="0.951551"/>
<path d="M526.966 449.673C465.653 435.634 447.58 410.981 454.528 389.298C456.837 382.092 461.91 375.213 469.078 369.162C483.2 357.233 502.6 341.446 501.922 322.001C500.982 296.813 493.312 285.511 507.267 268.96C521.308 252.496 548.07 232.732 504.374 224.233C480.422 219.666 463.8 227.549 446.44 237.392C429.048 247.254 410.914 259.082 383.925 262.332C343.341 267.219 303.269 257.447 265.316 279.468C240.649 293.679 206.967 287.621 166.999 279.658C132.506 272.789 125.146 251.264 124.42 238.967C123.517 226.045 109.303 208.156 113.651 186.07C117.478 166.626 140.7 154.857 156.346 144.021C165.168 137.911 171.581 132.097 170.752 125.371C168.631 108.307 103.207 70.838 112.931 55.7372C121.552 42.3293 166.062 52.4071 190.406 45.8237C210.085 40.4473 238.839 48.6271 264.883 55.2399C281.073 59.3507 296.216 62.8561 307.482 62.1226" stroke="#FFBF00" stroke-width="0.951551"/>
</svg>
