<svg width="394" height="48" viewBox="0 0 394 48" fill="none" xmlns="http://www.w3.org/2000/svg">
<g filter="url(#filter0_d_110_529)">
<path d="M15.7002 37.6104C18.7275 37.6104 21.3398 37.0651 23.5371 35.9746C25.7507 34.8841 27.4515 33.3623 28.6396 31.4092C29.8441 29.4398 30.4463 27.153 30.4463 24.5488V1.77051H23.0732V23.8896C23.0732 26.1683 22.4385 27.9831 21.1689 29.334C19.8994 30.6849 18.0765 31.3604 15.7002 31.3604C13.3402 31.3604 11.5173 30.6849 10.2314 29.334C8.94564 27.9831 8.30273 26.1683 8.30273 23.8896V1.77051H0.929688V24.5488C0.929688 27.153 1.5319 29.4398 2.73633 31.4092C3.95703 33.3623 5.66602 34.8841 7.86328 35.9746C10.0768 37.0651 12.6891 37.6104 15.7002 37.6104ZM35.7197 37H42.8486V21.9609C42.8486 20.8053 43.0602 19.7962 43.4834 18.9336C43.9229 18.071 44.5332 17.4036 45.3145 16.9316C46.0957 16.4434 47.0153 16.1992 48.0732 16.1992C49.6683 16.1992 50.8646 16.6712 51.6621 17.6152C52.4759 18.543 52.8828 19.8613 52.8828 21.5703V37H60.0117V20.1055C60.0117 17.0293 59.2223 14.6286 57.6436 12.9033C56.0811 11.1618 53.8594 10.291 50.9785 10.291C49.0091 10.291 47.3571 10.7223 46.0225 11.585C44.6878 12.4476 43.6787 13.6276 42.9951 15.125H42.8486V10.8281H35.7197V37ZM64.6748 37H71.8037V10.8281H64.6748V37ZM68.2393 7.45898C69.3135 7.45898 70.2168 7.09277 70.9492 6.36035C71.6816 5.62793 72.0479 4.75716 72.0479 3.74805C72.0479 2.72266 71.6816 1.85189 70.9492 1.13574C70.2168 0.40332 69.3135 0.0371094 68.2393 0.0371094C67.165 0.0371094 66.2617 0.40332 65.5293 1.13574C64.7969 1.85189 64.4307 2.72266 64.4307 3.74805C64.4307 4.75716 64.7969 5.62793 65.5293 6.36035C66.2617 7.09277 67.165 7.45898 68.2393 7.45898ZM83.498 37H91.5303L100.515 10.8281H93.0684L87.6729 30.7012H87.5264L82.0576 10.8281H74.4404L83.498 37ZM113.991 37.5371C115.863 37.5371 117.491 37.293 118.874 36.8047C120.274 36.3164 121.454 35.6654 122.414 34.8516C123.391 34.0378 124.164 33.1426 124.733 32.166C125.303 31.1895 125.686 30.221 125.881 29.2607L125.954 28.9922H119.411L119.362 29.1387C119.2 29.627 118.89 30.1071 118.435 30.5791C117.979 31.0511 117.393 31.4417 116.677 31.751C115.961 32.0602 115.114 32.2148 114.138 32.2148C112.901 32.2148 111.835 31.9463 110.939 31.4092C110.044 30.8558 109.353 30.0664 108.864 29.041C108.392 28.0156 108.156 26.7786 108.156 25.3301V22.5713C108.156 21.0739 108.392 19.8125 108.864 18.7871C109.353 17.7454 110.02 16.9561 110.866 16.4189C111.729 15.8818 112.714 15.6133 113.82 15.6133C114.927 15.6133 115.896 15.8737 116.726 16.3945C117.572 16.9154 118.231 17.6966 118.703 18.7383C119.175 19.7637 119.411 21.0413 119.411 22.5713V25.3057L122.805 21.1064H104.616V25.5986H126.174V23.4014C126.174 20.7646 125.661 18.4616 124.636 16.4922C123.627 14.5228 122.186 13.001 120.314 11.9268C118.459 10.8363 116.254 10.291 113.698 10.291C111.143 10.291 108.921 10.8525 107.033 11.9756C105.161 13.0824 103.705 14.6611 102.663 16.7119C101.638 18.7464 101.125 21.1553 101.125 23.9385V23.9629C101.125 26.7461 101.638 29.1549 102.663 31.1895C103.705 33.224 105.186 34.7946 107.106 35.9014C109.027 36.9919 111.322 37.5371 113.991 37.5371ZM129.86 37H136.989V22.3516C136.989 21.082 137.209 20.0078 137.648 19.1289C138.088 18.25 138.723 17.5827 139.553 17.127C140.383 16.6712 141.384 16.4434 142.556 16.4434C143.076 16.4434 143.565 16.484 144.021 16.5654C144.476 16.6305 144.851 16.7201 145.144 16.834V10.5596C144.883 10.4782 144.574 10.4131 144.216 10.3643C143.858 10.3154 143.483 10.291 143.093 10.291C141.563 10.291 140.285 10.7386 139.26 11.6338C138.234 12.529 137.526 13.7822 137.136 15.3936H136.989V10.8281H129.86V37ZM158.84 37.5371C161.086 37.5371 163.063 37.1872 164.772 36.4873C166.498 35.7712 167.849 34.7783 168.825 33.5088C169.802 32.2393 170.29 30.75 170.29 29.041V29.0166C170.29 27.096 169.688 25.5661 168.483 24.4268C167.295 23.2874 165.326 22.4329 162.575 21.8633L158.132 20.9111C156.813 20.6344 155.894 20.2682 155.373 19.8125C154.852 19.3568 154.592 18.7952 154.592 18.1279V18.1035C154.592 17.5339 154.755 17.0456 155.08 16.6387C155.406 16.2155 155.869 15.89 156.472 15.6621C157.074 15.4342 157.782 15.3203 158.596 15.3203C159.914 15.3203 160.948 15.6377 161.696 16.2725C162.461 16.891 162.901 17.6722 163.015 18.6162L163.039 18.8115H169.606V18.5674C169.558 17.0374 169.094 15.6458 168.215 14.3926C167.352 13.1393 166.107 12.1465 164.479 11.4141C162.868 10.6654 160.907 10.291 158.596 10.291C156.382 10.291 154.445 10.6328 152.785 11.3164C151.141 11.9837 149.872 12.9277 148.977 14.1484C148.081 15.3691 147.634 16.8177 147.634 18.4941V18.5186C147.634 20.4717 148.269 22.083 149.538 23.3525C150.824 24.6058 152.736 25.501 155.275 26.0381L159.719 26.9658C161.005 27.2588 161.9 27.6169 162.404 28.04C162.909 28.4632 163.161 29.0247 163.161 29.7246V29.749C163.161 30.3187 162.982 30.807 162.624 31.2139C162.282 31.6208 161.794 31.9382 161.159 32.166C160.524 32.3776 159.751 32.4834 158.84 32.4834C157.424 32.4834 156.317 32.1986 155.52 31.6289C154.722 31.0592 154.209 30.2617 153.981 29.2363L153.933 29.0166H146.975L146.999 29.2363C147.194 30.8802 147.764 32.3288 148.708 33.582C149.668 34.819 150.995 35.7874 152.688 36.4873C154.38 37.1872 156.431 37.5371 158.84 37.5371ZM173.952 37H181.081V10.8281H173.952V37ZM177.517 7.45898C178.591 7.45898 179.494 7.09277 180.227 6.36035C180.959 5.62793 181.325 4.75716 181.325 3.74805C181.325 2.72266 180.959 1.85189 180.227 1.13574C179.494 0.40332 178.591 0.0371094 177.517 0.0371094C176.442 0.0371094 175.539 0.40332 174.807 1.13574C174.074 1.85189 173.708 2.72266 173.708 3.74805C173.708 4.75716 174.074 5.62793 174.807 6.36035C175.539 7.09277 176.442 7.45898 177.517 7.45898ZM196.267 37.5371C197.015 37.5371 197.674 37.5046 198.244 37.4395C198.83 37.3906 199.318 37.3337 199.709 37.2686V32.0439C199.497 32.0765 199.27 32.109 199.025 32.1416C198.781 32.1579 198.496 32.166 198.171 32.166C197.097 32.166 196.283 31.93 195.729 31.458C195.192 30.9697 194.924 30.1152 194.924 28.8945V16.1992H199.709V10.8281H194.924V4.43164H187.722V10.8281H184.084V16.1992H187.722V29.6758C187.722 32.4753 188.422 34.4854 189.821 35.7061C191.221 36.9268 193.369 37.5371 196.267 37.5371ZM207.741 45.6182C209.678 45.6182 211.371 45.3659 212.819 44.8613C214.268 44.3568 215.505 43.5104 216.53 42.3223C217.572 41.1341 218.435 39.5146 219.118 37.4639L228.103 10.8281H220.583L214.675 32.7031L215.627 31.2871H214.284L215.236 32.7031L209.328 10.8281H201.491L210.744 37L210.427 37.8545C210.118 38.7334 209.654 39.3519 209.035 39.71C208.417 40.068 207.57 40.2471 206.496 40.2471C205.975 40.2471 205.511 40.2145 205.104 40.1494C204.698 40.1006 204.364 40.0518 204.104 40.0029V45.3008C204.527 45.3822 205.064 45.4554 205.715 45.5205C206.366 45.5856 207.041 45.6182 207.741 45.6182ZM241.115 37H264.455V30.9209H248.488V22.0586H263.552V16.2969H248.488V7.84961H264.455V1.77051H241.115V37ZM276.076 37H284.108L293.093 10.8281H285.646L280.251 30.7012H280.104L274.636 10.8281H267.019L276.076 37ZM306.569 37.5371C308.441 37.5371 310.069 37.293 311.452 36.8047C312.852 36.3164 314.032 35.6654 314.992 34.8516C315.969 34.0378 316.742 33.1426 317.312 32.166C317.881 31.1895 318.264 30.221 318.459 29.2607L318.532 28.9922H311.989L311.94 29.1387C311.778 29.627 311.468 30.1071 311.013 30.5791C310.557 31.0511 309.971 31.4417 309.255 31.751C308.539 32.0602 307.692 32.2148 306.716 32.2148C305.479 32.2148 304.413 31.9463 303.518 31.4092C302.622 30.8558 301.931 30.0664 301.442 29.041C300.97 28.0156 300.734 26.7786 300.734 25.3301V22.5713C300.734 21.0739 300.97 19.8125 301.442 18.7871C301.931 17.7454 302.598 16.9561 303.444 16.4189C304.307 15.8818 305.292 15.6133 306.398 15.6133C307.505 15.6133 308.474 15.8737 309.304 16.3945C310.15 16.9154 310.809 17.6966 311.281 18.7383C311.753 19.7637 311.989 21.0413 311.989 22.5713V25.3057L315.383 21.1064H297.194V25.5986H318.752V23.4014C318.752 20.7646 318.239 18.4616 317.214 16.4922C316.205 14.5228 314.764 13.001 312.893 11.9268C311.037 10.8363 308.832 10.291 306.276 10.291C303.721 10.291 301.499 10.8525 299.611 11.9756C297.74 13.0824 296.283 14.6611 295.241 16.7119C294.216 18.7464 293.703 21.1553 293.703 23.9385V23.9629C293.703 26.7461 294.216 29.1549 295.241 31.1895C296.283 33.224 297.764 34.7946 299.685 35.9014C301.605 36.9919 303.9 37.5371 306.569 37.5371ZM322.438 37H329.567V21.9609C329.567 20.8053 329.779 19.7962 330.202 18.9336C330.642 18.071 331.252 17.4036 332.033 16.9316C332.814 16.4434 333.734 16.1992 334.792 16.1992C336.387 16.1992 337.583 16.6712 338.381 17.6152C339.195 18.543 339.602 19.8613 339.602 21.5703V37H346.73V20.1055C346.73 17.0293 345.941 14.6286 344.362 12.9033C342.8 11.1618 340.578 10.291 337.697 10.291C335.728 10.291 334.076 10.7223 332.741 11.585C331.407 12.4476 330.397 13.6276 329.714 15.125H329.567V10.8281H322.438V37ZM361.647 37.5371C362.396 37.5371 363.055 37.5046 363.625 37.4395C364.211 37.3906 364.699 37.3337 365.09 37.2686V32.0439C364.878 32.0765 364.65 32.109 364.406 32.1416C364.162 32.1579 363.877 32.166 363.552 32.166C362.478 32.166 361.664 31.93 361.11 31.458C360.573 30.9697 360.305 30.1152 360.305 28.8945V16.1992H365.09V10.8281H360.305V4.43164H353.103V10.8281H349.465V16.1992H353.103V29.6758C353.103 32.4753 353.802 34.4854 355.202 35.7061C356.602 36.9268 358.75 37.5371 361.647 37.5371ZM379.787 37.5371C382.033 37.5371 384.011 37.1872 385.72 36.4873C387.445 35.7712 388.796 34.7783 389.772 33.5088C390.749 32.2393 391.237 30.75 391.237 29.041V29.0166C391.237 27.096 390.635 25.5661 389.431 24.4268C388.243 23.2874 386.273 22.4329 383.522 21.8633L379.079 20.9111C377.761 20.6344 376.841 20.2682 376.32 19.8125C375.799 19.3568 375.539 18.7952 375.539 18.1279V18.1035C375.539 17.5339 375.702 17.0456 376.027 16.6387C376.353 16.2155 376.817 15.89 377.419 15.6621C378.021 15.4342 378.729 15.3203 379.543 15.3203C380.861 15.3203 381.895 15.6377 382.644 16.2725C383.409 16.891 383.848 17.6722 383.962 18.6162L383.986 18.8115H390.554V18.5674C390.505 17.0374 390.041 15.6458 389.162 14.3926C388.299 13.1393 387.054 12.1465 385.427 11.4141C383.815 10.6654 381.854 10.291 379.543 10.291C377.329 10.291 375.393 10.6328 373.732 11.3164C372.089 11.9837 370.819 12.9277 369.924 14.1484C369.029 15.3691 368.581 16.8177 368.581 18.4941V18.5186C368.581 20.4717 369.216 22.083 370.485 23.3525C371.771 24.6058 373.684 25.501 376.223 26.0381L380.666 26.9658C381.952 27.2588 382.847 27.6169 383.352 28.04C383.856 28.4632 384.108 29.0247 384.108 29.7246V29.749C384.108 30.3187 383.929 30.807 383.571 31.2139C383.229 31.6208 382.741 31.9382 382.106 32.166C381.472 32.3776 380.699 32.4834 379.787 32.4834C378.371 32.4834 377.264 32.1986 376.467 31.6289C375.669 31.0592 375.157 30.2617 374.929 29.2363L374.88 29.0166H367.922L367.946 29.2363C368.142 30.8802 368.711 32.3288 369.655 33.582C370.616 34.819 371.942 35.7874 373.635 36.4873C375.327 37.1872 377.378 37.5371 379.787 37.5371Z" fill="#FF8D29"/>
</g>
<defs>
<filter id="filter0_d_110_529" x="0.929688" y="0.0371094" width="392.309" height="47.5811" filterUnits="userSpaceOnUse" color-interpolation-filters="sRGB">
<feFlood flood-opacity="0" result="BackgroundImageFix"/>
<feColorMatrix in="SourceAlpha" type="matrix" values="0 0 0 0 0 0 0 0 0 0 0 0 0 0 0 0 0 0 127 0" result="hardAlpha"/>
<feOffset dx="2" dy="2"/>
<feComposite in2="hardAlpha" operator="out"/>
<feColorMatrix type="matrix" values="0 0 0 0 0.0862745 0 0 0 0 0.117647 0 0 0 0 0.329412 0 0 0 1 0"/>
<feBlend mode="normal" in2="BackgroundImageFix" result="effect1_dropShadow_110_529"/>
<feBlend mode="normal" in="SourceGraphic" in2="effect1_dropShadow_110_529" result="shape"/>
</filter>
</defs>
</svg>
